<svg width="30" height="27" viewBox="0 0 30 27" fill="none" xmlns="http://www.w3.org/2000/svg">
<g clip-path="url(#clip0)">
<path d="M29.6932 23.1136L16.9773 1.63636C16.5341 0.954547 15.8182 0.545456 15 0.545456C14.1818 0.545456 13.4659 0.954547 13.0227 1.63636L0.306818 23.1136C-0.102273 23.7954 -0.102273 24.6818 0.306818 25.3636C0.715909 26.0454 1.46591 26.4886 2.28409 26.4545H27.7159C28.5341 26.4545 29.2841 26.0454 29.6932 25.3636C30.1023 24.6477 30.1023 23.7954 29.6932 23.1136Z" fill="white"/>
<path d="M29.6932 23.1136L16.9773 1.63636C16.5341 0.954547 15.8182 0.545456 15 0.545456C14.1818 0.545456 13.4659 0.954547 13.0227 1.63636L0.306818 23.1136C-0.102273 23.7954 -0.102273 24.6818 0.306818 25.3636C0.715909 26.0454 1.46591 26.4886 2.28409 26.4545H27.7159C28.5341 26.4545 29.2841 26.0454 29.6932 25.3636C30.1023 24.6477 30.1023 23.7954 29.6932 23.1136ZM28.5341 24.6477C28.3977 24.8864 28.0568 25.0909 27.75 25.0909H2.28409C1.97727 25.0909 1.63636 24.8864 1.5 24.6477C1.36364 24.4091 1.36364 24.0341 1.5 23.7954L14.2159 2.35227C14.3523 2.11364 14.6932 1.90909 15 1.90909C15.3068 1.90909 15.6477 2.11364 15.7841 2.35227L28.5 23.7954C28.6705 24.0341 28.6705 24.4091 28.5341 24.6477Z" fill="#BE0F34"/>
<path d="M15 8.04546C14.0455 8.04546 13.2955 8.79546 13.2955 9.75L13.6364 15.8864C13.6364 16.6364 14.25 17.25 15 17.25C15.75 17.25 16.3637 16.6364 16.3637 15.8864L16.7046 9.75C16.7046 8.79546 15.9546 8.04546 15 8.04546Z" fill="black"/>
<path d="M15 21.6818C15.9414 21.6818 16.7046 20.9187 16.7046 19.9773C16.7046 19.0359 15.9414 18.2727 15 18.2727C14.0586 18.2727 13.2955 19.0359 13.2955 19.9773C13.2955 20.9187 14.0586 21.6818 15 21.6818Z" fill="black"/>
</g>
<defs>
<clipPath id="clip0">
<rect width="30" height="25.9091" fill="white" transform="translate(0 0.545456)"/>
</clipPath>
</defs>
</svg>
