<?xml version="1.0" encoding="utf-8"?>
<svg version="1.1" id="Layer_1" x="0px" y="0px" viewBox="29.919 37.12 40.162 25.76" style="enable-background:new 0 0 100 100;" xmlns="http://www.w3.org/2000/svg">
  <style type="text/css">
	.st0{fill:#C7CCCF;}
	.st1{fill:#575F61;}
</style>
  <path class="st0" d="M66,38c1.7,0,3,1.4,3,3v18c0,1.7-1.4,3-3,3H34c-1.7,0-3-1.4-3-3V41c0-1.7,1.4-3,3-3H66 M66,37H34 c-2.2,0-4,1.8-4,4v18c0,2.2,1.8,4,4,4h32c2.2,0,4-1.8,4-4V41C70,38.8,68.2,37,66,37L66,37z"/>
  <g>
    <path class="st1" d="M40.6,60h19c0.2,0,0.4-0.2,0.4-0.4v-1.8c0-0.2-0.2-0.4-0.4-0.4h-1.4V56c0-0.2-0.2-0.4-0.4-0.4h-1.6V47h2.2 c0.2,0,0.4-0.2,0.4-0.4v-2.3c0-0.2-0.1-0.3-0.2-0.4L50.3,40c-0.1,0-0.2,0-0.3,0l-8.3,3.8c-0.1,0.1-0.2,0.2-0.2,0.4v2.3 c0,0.2,0.2,0.4,0.4,0.4H44v8.6h-1.6c-0.2,0-0.4,0.2-0.4,0.4v1.4h-1.4c-0.2,0-0.4,0.2-0.4,0.4v1.9C40.2,59.8,40.4,60,40.6,60z M55.4,55.5h-2.1v-8.6h2.1V55.5z M47.6,55.5v-8.6h4.8v8.6H47.6z M42.2,44.5l7.9-3.6l7.9,3.6v1.6H42.2V44.5z M44.8,46.9h2.1v8.6 h-2.1V46.9z M42.8,56.3h14.6v1H42.8V56.3z M40.9,58.2h18.3v1H40.9V58.2z"/>
    <path class="st1" d="M54.7,44.4l-4.4-2.1c-0.1,0-0.2,0-0.3,0l-4.4,2c-0.1,0.1-0.2,0.2-0.1,0.4l0.1,0.2c0,0.1,0.1,0.1,0.2,0.2 c0.1,0,0.2,0,0.2,0l4.2-1.9l4.3,1.9h0.1c0.1,0,0.2-0.1,0.3-0.2l0.1-0.1c0-0.1,0-0.2,0-0.2C54.8,44.5,54.8,44.5,54.7,44.4z"/>
  </g>
</svg>