<?xml version="1.0" encoding="utf-8"?>
<svg version="1.1" id="Layer_1" x="0px" y="0px" viewBox="29.919 36.872 40.161 26.256" style="enable-background:new 0 0 100 100;" xmlns="http://www.w3.org/2000/svg">
  <style type="text/css">
	.st0{fill:#C7CCCF;}
	.st1{fill:#F46F1B;}
</style>
  <g>
    <path class="st0" d="M66,38c1.7,0,3,1.4,3,3v18c0,1.7-1.4,3-3,3H34c-1.7,0-3-1.4-3-3V41c0-1.7,1.4-3,3-3H66 M66,37H34 c-2.2,0-4,1.8-4,4v18c0,2.2,1.8,4,4,4h32c2.2,0,4-1.8,4-4V41C70,38.8,68.2,37,66,37L66,37z"/>
  </g>
  <g id="layer1" transform="translate(0,-127.76561)">
    <path id="path20-7" d="M36.2,179.1c-0.3,0.3-0.7,0.4-1.4,0.4h-0.3V176h0.3c0.7,0,1,0.1,1.4,0.4c0.3,0.3,0.6,0.8,0.6,1.3 S36.6,178.8,36.2,179.1z M35.1,175.1h-1.5v5.2h1.5c0.8,0,1.3-0.2,1.8-0.6c0.6-0.5,0.9-1.2,0.9-2C37.8,176.2,36.7,175.1,35.1,175.1"/>
    <path id="path22" d="M38.3,180.4h1v-5.2h-1V180.4"/>
    <path id="path24" d="M41.8,177.1c-0.6-0.2-0.8-0.4-0.8-0.7s0.3-0.6,0.8-0.6c0.3,0,0.6,0.1,0.8,0.4l0.5-0.7c-0.4-0.4-1-0.6-1.5-0.6 c-0.9,0-1.6,0.6-1.6,1.5c0,0.7,0.3,1.1,1.3,1.4c0.4,0.1,0.6,0.2,0.7,0.3c0.2,0.1,0.3,0.3,0.3,0.5c0,0.4-0.3,0.7-0.8,0.7 s-0.9-0.2-1.1-0.7l-0.7,0.6c0.5,0.7,1,1,1.8,1c1,0,1.8-0.7,1.8-1.7C43.3,178,42.9,177.5,41.8,177.1"/>
    <path id="path26" d="M43.6,177.7c0,1.5,1.2,2.7,2.7,2.7c0.4,0,0.8-0.1,1.3-0.3V179c-0.4,0.4-0.8,0.6-1.2,0.6c-1,0-1.7-0.7-1.7-1.8 c0-1,0.7-1.8,1.7-1.8c0.5,0,0.8,0.2,1.3,0.6v-1.2c-0.4-0.2-0.8-0.3-1.2-0.3C44.8,175,43.6,176.2,43.6,177.7"/>
    <path id="path28" d="M55.7,178.7l-1.4-3.5h-1.1l2.2,5.3h0.5l2.2-5.3H57L55.7,178.7"/>
    <path id="path30" d="M58.6,180.4h2.9v-0.9h-1.9v-1.4h1.8v-0.9h-1.8V176h1.9v-0.9h-2.9V180.4"/>
    <path id="path32" d="M63.4,177.5h-0.3v-1.6h0.3c0.6,0,1,0.3,1,0.8S64.1,177.5,63.4,177.5z M65.5,176.7c0-1-0.7-1.5-1.8-1.5h-1.5 v5.2h1v-2.1h0.1l1.4,2.1h1.2l-1.6-2.2C65,178.1,65.5,177.4,65.5,176.7"/>
    <path id="path42" class="st1" d="M47.9,177.7L47.9,177.7c0-1.5,1.2-2.7,2.8-2.7c1.5,0,2.8,1.2,2.8,2.7l0,0c0,1.5-1.2,2.8-2.8,2.8 S47.9,179.4,47.9,177.7"/>
  </g>
</svg>