<?xml version="1.0" encoding="utf-8"?>
<svg version="1.1" id="Layer_1" x="0px" y="0px" viewBox="29.919 36.872 40.162 26.008" style="enable-background:new 0 0 100 100;" xmlns="http://www.w3.org/2000/svg">
  <style type="text/css">
	.st0{fill:#C7CCCF;}
	.st1{fill:#575F61;}
	.st2{fill:none;stroke:#575F61;stroke-linecap:round;stroke-miterlimit:10;}
</style>
  <g>
    <g>
      <path class="st0" d="M66,38c1.7,0,3,1.4,3,3v18c0,1.7-1.4,3-3,3H34c-1.7,0-3-1.4-3-3V41c0-1.7,1.4-3,3-3H66 M34,37 c-2.2,0-4,1.8-4,4v18c0,2.2,1.8,4,4,4h32c2.2,0,4-1.8,4-4V41c0-2.2-1.8-4-4-4"/>
    </g>
    <g transform="translate(0,-952.3622)">
      <path class="st1" d="M36.1,994.9c-0.3,0-0.6,0.3-0.6,0.6c0,1.6,0,4.7,0,6.3c0,0.3,0.3,0.6,0.6,0.6c1.6,0,4.7,0,6.3,0 c0.3,0,0.6-0.3,0.6-0.6v-6.3c0-0.3-0.3-0.6-0.6-0.6C40.8,994.9,37.7,994.9,36.1,994.9z M36.1,995.5h4v1.7h-4V995.5z M40.7,995.5 h1.7v6.3h-1.7C40.7,1000.2,40.7,997.1,40.7,995.5z M36.1,997.8h1.7v1.7h-1.7V997.8z M38.4,997.8h1.7v1.7h-1.7V997.8z M36.1,1000.1 c1,0,3,0,4,0v1.7h-4V1000.1z"/>
    </g>
    <line class="st2" x1="35.5" y1="57.9" x2="53" y2="57.9"/>
    <g>
      <line class="st2" x1="35.5" y1="54.6" x2="39.1" y2="54.6"/>
      <line class="st2" x1="46.4" y1="54.6" x2="50" y2="54.6"/>
      <line class="st2" x1="51.9" y1="54.6" x2="55.5" y2="54.6"/>
      <line class="st2" x1="41" y1="54.6" x2="44.6" y2="54.6"/>
    </g>
  </g>
</svg>