<?xml version="1.0" encoding="utf-8"?>
<svg version="1.1" id="Layer_1" x="0px" y="0px" viewBox="29.919 36.996 39.913 25.884" style="enable-background:new 0 0 100 100;" xmlns="http://www.w3.org/2000/svg">
  <style type="text/css">
	.st0{fill:#C7CCCF;}
	.st1{fill:#2671B9;}
</style>
  <g>
    <path class="st0" d="M66.1,38c1.7,0,3,1.4,3,3v18c0,1.7-1.4,3-3,3H34c-1.7,0-3-1.4-3-3V41c0-1.7,1.4-3,3-3H66.1 M66.1,37H34 c-2.2,0-4,1.8-4,4v18c0,2.2,1.8,4,4,4h32c2.2,0,4-1.8,4-4V41C70.1,38.8,68.3,37,66.1,37L66.1,37z"/>
  </g>
  <path class="st1" d="M40,40.1v20h20v-3.2h-2.6l-1.1-1.2l-1.1,1.2h-7.8v-6.3h-2.6l3.2-7.3h3.1l0.9,1.9v-1.9h3.7l0.8,2.1l0.8-2.1h2.8 V40C60.1,40,40,40,40,40.1z M57.8,44.2l-1,2.3l-0.5,1.1l-0.5-1.1l-1-2.3h-2v5.4l-2.4-5.4h-1.8l-2.4,5.4h1.6l0.4-1h2.6l0.4,1h1.6h1.4 v-3.3v-0.8l0.3,0.8l1.3,3.2H57l1.3-3.2l0.3-0.8v0.8v3.2H60v-5.4L57.8,44.2L57.8,44.2z M49.2,46.2l0.3-0.8l0.3,0.8l0.5,1.2h-1.7 L49.2,46.2z M57.9,50.5l-1.6,1.8l-1.6-1.8h-1.9l2.5,2.7l-2.5,2.6h1.7l1.6-1.8l1.6,1.8h1.8L57,53.2l2.5-2.7H57.9L57.9,50.5z M48.3,50.5v5.3h4.5v-1.1h-3.1v-1h3.1v-1.1h-3.1v-1h3.1v-1.1C52.8,50.6,48.3,50.6,48.3,50.5z M58.5,53.2l1.5,1.6v-3.1L58.5,53.2z"/>
</svg>