<?xml version="1.0" encoding="utf-8"?>
<svg version="1.1" id="Layer_1" x="0px" y="0px" viewBox="29.919 36.872 40.162 25.884" style="enable-background:new 0 0 100 100;" xmlns="http://www.w3.org/2000/svg">
  <style type="text/css">
	.st0{fill:#C7CCCF;}
	.st1{fill:#1A1F71;}
</style>
  <g>
    <path class="st0" d="M66.1,38c1.7,0,3,1.4,3,3v18c0,1.7-1.4,3-3,3H34c-1.7,0-3-1.4-3-3V41c0-1.7,1.4-3,3-3H66.1 M66.1,37H34 c-2.2,0-4,1.8-4,4v18c0,2.2,1.8,4,4,4h32c2.2,0,4-1.8,4-4V41C70.1,38.8,68.3,37,66.1,37L66.1,37z"/>
  </g>
  <path id="SVGID_3_" class="st1" d="M50.5,48.2c0,1.4,1.2,2.2,2.2,2.6c1,0.5,1.3,0.8,1.3,1.2c0,0.6-0.8,0.9-1.5,0.9 c-1.3,0-2-0.3-2.6-0.6l-0.5,2.1c0.6,0.3,1.7,0.5,2.8,0.5c2.6,0,4.3-1.3,4.4-3.3c0-2.6-3.5-2.7-3.5-3.8c0-0.3,0.3-0.7,1.1-0.8 c0.4,0,1.3-0.1,2.5,0.4l0.4-2.1c-0.6-0.2-1.4-0.4-2.3-0.4C52.3,45.1,50.6,46.3,50.5,48.2 M61.3,45.2c-0.5,0-0.9,0.3-1.1,0.7l-3.8,9 H59l0.5-1.4h3.2L63,55h2.3l-2-9.7L61.3,45.2 M61.7,47.8l0.8,3.6h-2.1L61.7,47.8 M47.4,45.2l-2.1,9.7h2.5l2.1-9.7H47.4 M43.7,45.2 l-2.6,6.6L40,46.2c-0.1-0.6-0.6-1-1.2-1h-4.3l-0.1,0.3c0.9,0.2,1.9,0.5,2.5,0.8c0.4,0.2,0.5,0.4,0.6,0.8l2,7.7h2.6l4.1-9.7 L43.7,45.2"/>
</svg>