<svg width="50" height="34" viewBox="0 0 50 34" fill="none" xmlns="http://www.w3.org/2000/svg">
<path d="M39.555 25.5311C39.1224 25.5311 38.7515 25.9048 38.7515 26.3407V30.2015C38.7515 31.2601 37.8245 32.0073 36.7738 32.0073H21.6316L21.8171 31.8205C22.2497 31.3846 22.8677 31.1355 23.4858 31.1355H35.3523C36.8356 31.1355 38.0099 29.9524 38.0099 28.4579V26.2784C38.0099 25.7802 37.5773 25.3443 37.0828 25.3443C36.5884 25.3443 36.1558 25.7802 36.1558 26.2784V28.4579C36.1558 28.9561 35.7849 29.3297 35.2905 29.3297H23.424C22.5587 29.3297 21.8171 29.5788 21.1372 30.0769V5.79122C21.1372 5.16851 21.3844 4.5458 21.8171 4.17217C22.2497 3.73627 22.8677 3.48719 23.424 3.48719H29.1718C29.6663 3.48719 30.0989 3.05129 30.0989 2.55312C30.0989 2.05495 29.6663 1.61906 29.1718 1.61906H23.424C22.3115 1.61906 21.3226 2.05495 20.5192 2.86448C20.3956 2.98902 20.3337 3.11356 20.2101 3.2381C20.0865 3.11356 20.0247 2.98902 19.9011 2.92675C19.0977 2.11723 18.1088 1.68133 16.9963 1.68133H4.75896C3.52287 1.68133 2.53399 2.73994 2.53399 3.92309C0.988875 4.48353 0 5.79122 0 7.34799V30.326C0 32.3187 1.66873 34 3.83189 34H36.5884C38.6897 34 40.4821 32.3187 40.4821 30.2637V26.3407C40.3585 25.9048 39.9876 25.5311 39.555 25.5311ZM4.75896 3.42492H17.0581C17.6761 3.42492 18.2942 3.674 18.665 4.1099C19.0977 4.5458 19.3449 5.16851 19.3449 5.72895V30.0769C18.665 29.5788 17.8616 29.3297 17.0581 29.3297H4.94438C4.57355 29.3297 4.26452 29.0183 4.26452 28.6447V3.92309C4.32633 3.61173 4.51174 3.42492 4.75896 3.42492ZM1.79234 30.326V7.28572C1.79234 6.72528 2.10136 6.22712 2.53399 5.85349V28.707C2.53399 28.7692 2.53399 28.8315 2.53399 28.8938C2.6576 30.2015 3.70828 31.1978 5.00618 31.1978H17.0581C17.6761 31.1978 18.2942 31.4469 18.665 31.8828C18.7268 31.9451 18.7886 32.0073 18.8504 32.0696H3.83189C2.6576 32.1319 1.79234 31.2601 1.79234 30.326Z" fill="#00587C"/>
<path d="M6.92211 8.46887H16.3164C16.7491 8.46887 17.1817 8.03298 17.1817 7.53481C17.1817 7.03664 16.8109 6.60074 16.3164 6.60074H6.92211C6.48947 6.60074 6.05684 7.03664 6.05684 7.53481C6.05684 8.03298 6.42767 8.46887 6.92211 8.46887Z" fill="#00587C"/>
<path d="M6.92211 14.1978H16.3164C16.7491 14.1978 17.1817 13.7619 17.1817 13.2637C17.1817 12.7655 16.8109 12.3297 16.3164 12.3297H6.92211C6.48947 12.3297 6.05684 12.7655 6.05684 13.2637C6.05684 13.7619 6.42767 14.1978 6.92211 14.1978Z" fill="#00587C"/>
<path d="M6.92211 19.989H16.3164C16.7491 19.989 17.1817 19.5531 17.1817 19.055C17.1817 18.5568 16.8109 18.1209 16.3164 18.1209H6.92211C6.48947 18.1209 6.05684 18.5568 6.05684 19.055C6.05684 19.5531 6.42767 19.989 6.92211 19.989Z" fill="#00587C"/>
<path d="M6.92211 25.7179H16.3164C16.7491 25.7179 17.1817 25.282 17.1817 24.7839C17.1817 24.2857 16.8109 23.8498 16.3164 23.8498H6.92211C6.48947 23.8498 6.05684 24.2857 6.05684 24.7839C6.05684 25.282 6.42767 25.7179 6.92211 25.7179Z" fill="#00587C"/>
<path d="M23.1768 24.5348C23.1768 25.033 23.5476 25.4689 24.042 25.4689H33.4363C33.869 25.4689 34.3016 25.033 34.3016 24.5348C34.3016 24.0366 33.9308 23.6007 33.4363 23.6007H23.9802C23.5476 23.6007 23.1768 24.0366 23.1768 24.5348Z" fill="#00587C"/>
<path d="M44.4376 10.1502C44.0049 8.1575 42.707 6.47619 40.8529 5.66666C38.6897 4.7326 36.2794 4.91941 34.4252 6.16483C32.6329 7.41025 31.5204 9.4652 31.5204 11.6447C31.5204 12.7656 31.7676 13.7619 32.3239 14.7582C32.5711 15.1941 32.8801 15.63 33.1891 16.0037C33.3127 16.1905 33.4981 16.315 33.6218 16.4396C33.7454 16.5641 33.869 16.6886 33.9308 16.7509C33.9926 16.8132 33.9926 16.9377 34.0544 17C34.178 17.2491 34.3016 17.8095 34.4252 18.3077C34.5488 18.9304 34.7342 19.5531 34.8578 19.8645C35.0433 20.3004 35.2287 20.6117 35.4759 20.8608V22.1685C35.4759 23.663 36.712 24.8462 38.1335 24.8462C39.555 24.8462 40.7911 23.6007 40.7911 22.1685V20.8608C41.0383 20.6117 41.2237 20.3626 41.3473 19.989C41.5328 19.5531 41.6564 18.9304 41.8418 18.37C41.9654 17.8095 42.089 17.2491 42.2126 16.9377C42.2126 16.8755 42.2744 16.7509 42.2744 16.7509C42.2744 16.6886 42.3362 16.6886 42.398 16.6264C44.2522 14.8205 44.932 12.641 44.4376 10.1502ZM38.8752 22.1062C38.8752 22.6044 38.5043 22.978 38.0099 22.978C37.5155 22.978 37.1446 22.6044 37.1446 22.1062V21.4212H38.8133V22.1062H38.8752ZM41.0383 15.4432C40.9147 15.5678 40.8529 15.63 40.7293 15.7546C40.6057 15.9414 40.4821 16.1905 40.4203 16.315C40.2349 16.7509 40.1112 17.3736 39.9258 17.9341C39.8022 18.4945 39.6168 19.0549 39.555 19.3663V19.4286C39.4932 19.5531 39.3696 19.6154 39.246 19.6154H36.7738C36.712 19.6154 36.5884 19.6154 36.403 19.1795C36.2794 18.9304 36.1557 18.37 36.0321 17.8718C35.9085 17.2491 35.7231 16.6264 35.5995 16.315C35.5377 16.1282 35.4141 15.9414 35.2905 15.7546C35.1051 15.4432 34.8578 15.2564 34.6724 15.0696C34.5488 15.0073 34.487 14.8828 34.4252 14.8205C34.2398 14.5714 33.9926 14.2601 33.8072 13.8864C33.4363 13.2015 33.2509 12.3919 33.2509 11.6447C33.2509 10.0879 34.0544 8.53113 35.3523 7.65934C36.1557 7.0989 37.021 6.84981 37.9481 6.84981C38.6279 6.84981 39.3696 6.97435 39.9876 7.28571C41.2855 7.84615 42.2126 8.96703 42.5216 10.4615C43.0161 12.3919 42.5216 13.9487 41.0383 15.4432Z" fill="#00587C"/>
<path d="M38.0717 4.42125C38.5661 4.42125 38.9988 3.98535 38.9988 3.48718V0.934066C38.9988 0.435897 38.5661 0 38.0717 0C37.5773 0 37.1446 0.435897 37.1446 0.934066V3.48718C37.1446 3.98535 37.5155 4.42125 38.0717 4.42125Z" fill="#00587C"/>
<path d="M32.9419 5.10624C33.1273 5.41759 33.4364 5.54213 33.7454 5.54213C33.9308 5.54213 34.0544 5.47986 34.2398 5.41759C34.6725 5.16851 34.8579 4.60807 34.5488 4.1099L33.2509 1.93041C33.0037 1.49452 32.4475 1.3077 31.9531 1.61906C31.5204 1.86814 31.335 2.42858 31.644 2.92675L32.9419 5.10624Z" fill="#00587C"/>
<path d="M27.6885 6.10259C27.4413 6.53848 27.5649 7.09892 28.0593 7.34801L30.2225 8.6557C30.3461 8.71797 30.5315 8.78024 30.6551 8.78024C30.9642 8.78024 31.2732 8.59343 31.4586 8.28207C31.7058 7.84618 31.5822 7.28574 31.0878 7.03665L28.9246 5.72896C28.492 5.54215 27.9357 5.66669 27.6885 6.10259Z" fill="#00587C"/>
<path d="M29.5427 12.9524C30.0371 12.9524 30.4697 12.5165 30.4697 12.0183C30.4697 11.5201 30.0371 11.0842 29.5427 11.0842H27.0087C26.5142 11.0842 26.0816 11.5201 26.0816 12.0183C26.0816 12.5165 26.5142 12.9524 27.0087 12.9524H29.5427Z" fill="#00587C"/>
<path d="M30.1607 15.5055L27.9975 16.8132C27.5649 17.0623 27.3795 17.6227 27.6267 18.0586C27.8121 18.37 28.1211 18.5568 28.4301 18.5568C28.6156 18.5568 28.7392 18.4945 28.8628 18.4322L31.0259 17.1245C31.4586 16.8755 31.644 16.315 31.3968 15.8791C31.2114 15.4432 30.6551 15.3187 30.1607 15.5055Z" fill="#00587C"/>
<path d="M41.9036 5.47987C42.0272 5.54214 42.2126 5.60441 42.398 5.60441C42.707 5.60441 43.0161 5.4176 43.2015 5.16851L44.4994 2.98903C44.7466 2.55313 44.623 1.99269 44.1903 1.68133C43.7577 1.43225 43.2015 1.55679 42.8924 1.99269L41.5945 4.17218C41.3473 4.67034 41.4709 5.23078 41.9036 5.47987Z" fill="#00587C"/>
<path d="M45.4264 8.8425C45.55 8.8425 45.7355 8.78023 45.8591 8.71795L48.0222 7.47253C48.4549 7.22345 48.6403 6.66301 48.3931 6.22711C48.1458 5.79121 47.5896 5.6044 47.157 5.85349L44.9938 7.09891C44.5612 7.34799 44.3758 7.90843 44.623 8.34433C44.8702 8.65568 45.1174 8.8425 45.4264 8.8425Z" fill="#00587C"/>
<path d="M49.0729 11.1465H46.5389C46.0445 11.1465 45.6119 11.5824 45.6119 12.0806C45.6119 12.5787 46.0445 13.0146 46.5389 13.0146H49.0729C49.5674 13.0146 50 12.5787 50 12.0806C50 11.5824 49.5674 11.1465 49.0729 11.1465Z" fill="#00587C"/>
<path d="M48.084 16.8755L45.9209 15.5678C45.4882 15.3187 44.932 15.4432 44.6848 15.8791C44.4376 16.315 44.5612 16.8755 44.9938 17.1245L47.157 18.4322C47.2806 18.4945 47.466 18.5568 47.6514 18.5568C47.9604 18.5568 48.2694 18.37 48.4549 18.1209C48.5785 17.685 48.4549 17.1245 48.084 16.8755Z" fill="#00587C"/>
</svg>
