<svg width="44" height="36" viewBox="0 0 44 36" fill="none" xmlns="http://www.w3.org/2000/svg">
<path d="M3 9.01216H15V3.50429C15 1.85193 16.35 0.5 18 0.5H41C42.65 0.5 44 1.85193 44 3.50429V19.5272C44 21.1795 42.65 22.5315 41 22.5315H35.7V25.7361C35.7 26.6373 34.75 27.2382 33.95 26.8877L29 24.6845V28.0393C29 29.6917 27.65 31.0436 26 31.0436H19.9L10.1 35.3498C9.25 35.7504 8.3 35.0994 8.3 34.1481V31.0436H3C1.35 31.0436 0 29.6917 0 28.0393V12.0165C0 10.3641 1.35 9.01216 3 9.01216ZM33.85 24.6845V21.2797C33.85 20.8791 34.2 20.5286 34.6 20.5286H41C41.55 20.5286 42 20.078 42 19.5272V3.50429C42 2.95351 41.55 2.50286 41 2.50286H18C17.45 2.50286 17 2.95351 17 3.50429V9.01216H26C27.1 9.01216 28.05 9.61302 28.6 10.5143H37.3C37.85 10.5143 38.3 10.9649 38.3 11.5157C38.3 12.0665 37.85 12.5172 37.3 12.5172H29V15.5215H37.3C37.85 15.5215 38.3 15.9721 38.3 16.5229C38.3 17.0737 37.85 17.5243 37.3 17.5243H29V22.5315L33.85 24.6845ZM2 28.0393C2 28.5901 2.45 29.0408 3 29.0408H9.4C9.8 29.0408 10.15 29.3913 10.15 29.7918V33.1967L19.5 29.0408H26C26.55 29.0408 27 28.5901 27 28.0393V12.0165C27 11.4657 26.55 11.015 26 11.015H3C2.45 11.015 2 11.4657 2 12.0165V28.0393Z" fill="#00587C"/>
<path d="M14.55 14.52C12.1 14.52 10.85 16.1724 10.6 17.9249C10.55 18.2754 10.85 18.5758 11.2 18.5758H12.15C12.45 18.5758 12.65 18.3755 12.7 18.0751C12.8 17.4242 13.2 16.573 14.55 16.573C15.6 16.573 16 17.1237 16.15 17.4242C16.4 17.9249 16.35 18.4757 16.05 18.8763C15.75 19.2768 15.5 19.4771 15.15 19.6774C14.35 20.2282 13.75 20.779 13.6 22.3813C13.6 22.7318 13.85 23.0322 14.2 23.0322H15.1C15.4 23.0322 15.65 22.7818 15.7 22.4814C15.75 21.7804 15.95 21.6803 16.35 21.3798C16.7 21.1295 17.2 20.779 17.7 20.078C18.5 19.0265 18.55 17.6245 17.95 16.4227C17.4 15.2711 16.05 14.52 14.55 14.52Z" fill="#00587C"/>
<path d="M14.65 26.5372C15.3679 26.5372 15.95 25.9543 15.95 25.2353C15.95 24.5163 15.3679 23.9335 14.65 23.9335C13.932 23.9335 13.35 24.5163 13.35 25.2353C13.35 25.9543 13.932 26.5372 14.65 26.5372Z" fill="#00587C"/>
</svg>
