<svg id="Layer_1" data-name="Layer 1" xmlns="http://www.w3.org/2000/svg" viewBox="0 0 500 120"><defs><style>.cls-1{fill:#00587c;}.cls-2{fill:#8db9ca;}</style></defs><title>HSLDA_logo_h_RGB</title><path class="cls-1" d="M254.86,64.54H242a1.94,1.94,0,0,0-1.94,1.93v25H216.19v-25a1.94,1.94,0,0,0-1.94-1.93H201.43a1.94,1.94,0,0,0-1.94,1.93v65.09a1.93,1.93,0,0,0,1.94,1.93h12.82a1.93,1.93,0,0,0,1.94-1.93V107.22H240.1v24.34a1.93,1.93,0,0,0,1.94,1.93h12.82a1.93,1.93,0,0,0,1.94-1.93V66.47A1.94,1.94,0,0,0,254.86,64.54Z" transform="translate(-40 -40)"/><path class="cls-1" d="M307.35,92.06h0c-9.08-3.4-12.11-5.16-12.11-8.87,0-2.91,2.84-5.83,9.18-5.83a31.54,31.54,0,0,1,12.53,2.53,2,2,0,0,0,1.61,0,1.9,1.9,0,0,0,1-1.22l2.85-10.16a1.46,1.46,0,0,0-.83-1.72,41.12,41.12,0,0,0-17-3.21c-15.78,0-26.38,8.41-26.38,20.94,0,9.21,6.46,16.17,19.21,20.7,8.05,2.77,10.9,5.07,10.9,8.77,0,4.22-3.67,6.64-10.08,6.64a38.89,38.89,0,0,1-15.39-3.42,1.93,1.93,0,0,0-2.7,1.28l-2.58,10.39a1.41,1.41,0,0,0,.74,1.63,46.31,46.31,0,0,0,19,4c20.64,0,28-11.18,28-21.65C325.33,103,319.79,96.63,307.35,92.06Z" transform="translate(-40 -40)"/><path class="cls-1" d="M386.9,119.28H362.41V66.47a1.93,1.93,0,0,0-1.93-1.93H347.66a1.94,1.94,0,0,0-1.94,1.93v65.09a1.94,1.94,0,0,0,1.94,1.93h37a1.45,1.45,0,0,0,1.4-1.08l2.75-10.72a1.94,1.94,0,0,0-1.88-2.41Z" transform="translate(-40 -40)"/><path class="cls-1" d="M454.9,71.39C448.08,66.31,439.34,64,426.57,64a145,145,0,0,0-19.7,1.36,1.9,1.9,0,0,0-1.65,1.91V131.4a1.91,1.91,0,0,0,1.7,1.91,145.15,145.15,0,0,0,16.43.88c13.83,0,24.86-3.07,31.89-8.89h0c5.21-4.45,11.42-12.91,11.42-27.89C466.67,86.07,462.6,77.08,454.9,71.39Zm-6,22.22c.87,9.67-1.08,16.94-5.79,21.61-3.82,3.76-9.28,5.67-16.22,5.67h-.27a37.64,37.64,0,0,1-4.61-.18h-.05V77.62H422a43.26,43.26,0,0,1,9.85-.35A18.2,18.2,0,0,1,448.86,93.61Z" transform="translate(-40 -40)"/><path class="cls-1" d="M539.91,131,519.53,65.9a1.93,1.93,0,0,0-1.86-1.36H499.36a1.93,1.93,0,0,0-1.86,1.37L477.6,131a1.93,1.93,0,0,0,1.86,2.49h12.75a1.93,1.93,0,0,0,1.86-1.37l3.33-11h22.15l3.06,10.92a1.94,1.94,0,0,0,1.87,1.41h13.58a1.93,1.93,0,0,0,1.56-.79A1.89,1.89,0,0,0,539.91,131Zm-39.35-23.63,7.36-28h0c.05,0,.06,0,.06,0l7.77,27.94Z" transform="translate(-40 -40)"/><path class="cls-2" d="M159,89.08h-5.29a3.52,3.52,0,0,0-3.52,3.51v61.35a3.06,3.06,0,0,0,1.89,2.83l7.39,3.06a2.08,2.08,0,0,0,.85.17,2.16,2.16,0,0,0,1.22-.37,2.2,2.2,0,0,0,1-1.82V92.59A3.52,3.52,0,0,0,159,89.08" transform="translate(-40 -40)"/><path class="cls-2" d="M134.28,89.08H129a3.53,3.53,0,0,0-3.53,3.51v51.12a3.06,3.06,0,0,0,1.9,2.83l7.39,3.07a2.28,2.28,0,0,0,2.07-.2,2.2,2.2,0,0,0,1-1.83v-55a3.53,3.53,0,0,0-3.53-3.51" transform="translate(-40 -40)"/><path class="cls-2" d="M167.77,64.54h-94a6.39,6.39,0,0,0-6.46,5.81,6.09,6.09,0,0,0,2.06,4.91,6.48,6.48,0,0,0,4.32,1.55h0a2.43,2.43,0,0,1,2.43,2.43v58.12a2.18,2.18,0,0,0,2.2,2.19,2.15,2.15,0,0,0,.85-.17L92.26,134A6.25,6.25,0,0,1,97,134l13.08,5.42a2.2,2.2,0,0,0,3-2v-57a3.51,3.51,0,0,1,3.51-3.51h51.13a3.53,3.53,0,0,0,3.52-3.52V68a3.51,3.51,0,0,0-3.52-3.5" transform="translate(-40 -40)"/><path class="cls-2" d="M174.82,40H71.57C57,40,44.05,49.93,40.82,63.61a35.89,35.89,0,0,0-.82,7,30.64,30.64,0,0,0,20.63,29,2.65,2.65,0,0,0,3.42-1.86l1.81-7.23a2.17,2.17,0,0,0-1.37-2.57,18.41,18.41,0,0,1-9.12-7.2c-.18-.27-.36-.55-.52-.82l-.11-.21c-.23-.4-.44-.8-.64-1.22h0A18.41,18.41,0,0,1,52.9,66.14,18.82,18.82,0,0,1,71.42,52.27h103.4a3.52,3.52,0,0,0,3.52-3.51V43.5a3.51,3.51,0,0,0-3.52-3.5" transform="translate(-40 -40)"/></svg>