<svg width="40" height="38" viewBox="0 0 40 38" fill="none" xmlns="http://www.w3.org/2000/svg">
<path d="M40 13.5353C40 13.4186 40 13.3797 40 13.3408C40 13.3019 39.9611 13.1853 39.9611 13.1464V13.1075C39.9223 13.0686 39.9223 12.9908 39.8445 12.9519L34.208 7.46776C35.0243 6.96213 35.5685 6.10645 35.5685 5.13408C35.5685 3.6172 34.3246 2.37257 32.8086 2.37257C32.07 2.37257 31.3703 2.68373 30.8649 3.18936H23.8678C23.518 1.4002 21.8853 0 19.9806 0C18.0758 0 16.4431 1.4002 16.0933 3.18936H9.09621C8.59086 2.68373 7.89116 2.37257 7.15258 2.37257C5.63654 2.37257 4.39261 3.6172 4.39261 5.13408C4.39261 6.14534 4.93683 7.03992 5.75316 7.46776L0.155491 12.9908C0.116618 13.0297 0.0388727 13.1075 0.0388727 13.1464V13.1853C0 13.2242 0 13.3019 0 13.3408C0 13.3797 0 13.4575 0 13.4964V13.5353C0.0388727 17.4248 3.26531 20.653 7.15258 20.653C11.0398 20.653 14.2663 17.4637 14.3052 13.5353V13.4964C14.3052 13.4575 14.3052 13.3797 14.3052 13.3408C14.3052 13.3019 14.2663 13.1853 14.2663 13.1464V13.1075C14.2274 13.0686 14.2274 12.9908 14.1497 12.9519L8.55199 7.42886C9.36832 6.92323 9.91254 6.06755 9.91254 5.09519C9.91254 4.93961 9.91254 4.78403 9.87366 4.62845H16.1322C16.3265 5.63971 16.8707 6.49539 17.6871 7.03992V27.654H15.4325C13.139 27.654 11.2342 29.5599 11.2342 31.8547V31.9713C9.36832 32.6714 8.04665 34.4217 8.04665 36.5609V37.261C8.04665 37.65 8.3965 38 8.78523 38H31.2925C31.6812 38 32.0311 37.65 32.0311 37.261V36.5609C32.0311 34.4606 30.6706 32.6714 28.8435 31.9713V31.8547C28.8435 29.5599 26.9388 27.654 24.6453 27.654H22.3518V7.03992C23.1681 6.4565 23.7123 5.60082 23.9067 4.62845H30.1652C30.1652 4.78403 30.1263 4.93961 30.1263 5.09519C30.1263 6.10645 30.6706 7.00102 31.4869 7.42886L25.9281 12.913C25.8892 12.9519 25.8115 13.0297 25.8115 13.0686V13.1075C25.7726 13.1464 25.7726 13.2242 25.7726 13.3019C25.7726 13.3408 25.7726 13.4186 25.7726 13.4575V13.4964C25.8115 17.3859 29.0379 20.6141 32.9252 20.6141C36.8124 20.653 39.9223 17.5415 40 13.5353ZM34.0525 5.0174C34.0525 5.7175 33.5083 6.26203 32.8086 6.26203C32.1088 6.26203 31.5646 5.7175 31.5646 5.0174C31.5646 4.78403 31.6812 4.51177 31.759 4.3173C31.759 4.3173 31.759 4.2784 31.7979 4.2784C32.0311 3.96725 32.381 3.77277 32.8086 3.77277C33.5083 3.81167 34.0525 4.3173 34.0525 5.0174ZM19.9806 1.4391C21.3411 1.4391 22.4295 2.52815 22.4295 3.88946C22.4295 4.78403 21.9242 5.52303 21.2245 5.98976C21.069 6.10645 20.8746 6.14534 20.6803 6.22313C20.6414 6.22313 20.6414 6.22313 20.5637 6.26203C20.5248 6.26203 20.4082 6.30092 20.3693 6.30092C20.2527 6.30092 20.1361 6.33982 20.0194 6.33982C19.9806 6.33982 19.9806 6.33982 19.9028 6.33982C19.7862 6.33982 19.6696 6.33982 19.553 6.30092C19.5141 6.30092 19.3975 6.30092 19.3586 6.26203C19.3197 6.26203 19.3197 6.26203 19.242 6.22313C19.0476 6.18424 18.8921 6.06755 18.7366 5.98976C18.0369 5.52303 17.5316 4.78403 17.5316 3.88946C17.5316 2.52815 18.62 1.4391 19.9806 1.4391ZM7.1137 3.81167C7.50243 3.81167 7.85228 4.00614 8.12439 4.3173C8.27988 4.51177 8.35763 4.78403 8.35763 5.05629C8.35763 5.7564 7.81341 6.30092 7.1137 6.30092C6.41399 6.30092 5.86978 5.7564 5.86978 5.05629C5.86978 4.35619 6.41399 3.81167 7.1137 3.81167ZM7.1137 19.1361C4.276 19.1361 1.86589 16.9969 1.51604 14.2354H12.7502C12.3615 17.0358 10.0292 19.1361 7.1137 19.1361ZM2.52672 12.7963L7.1137 8.20676L11.7007 12.7963H2.52672ZM30.4762 36.4053H9.48494C9.52381 34.5384 11.0398 33.0993 12.828 33.0993H27.0165C28.9213 33.1382 30.4373 34.5384 30.4762 36.4053ZM27.2109 31.6602H27.0554H12.8669H12.7114C12.828 30.26 13.9553 29.1709 15.3936 29.1709H18.3868H21.5743H24.5675C25.967 29.0542 27.1331 30.26 27.2109 31.6602ZM20.8358 27.5374H19.1254V7.74002C19.2809 7.77892 19.3586 7.77892 19.5141 7.77892C19.6696 7.77892 19.8251 7.77892 19.9806 7.77892C20.1361 7.77892 20.2915 7.77892 20.447 7.77892C20.6025 7.77892 20.758 7.74002 20.8358 7.74002C20.8358 7.74002 20.8358 27.5374 20.8358 27.5374ZM32.8086 8.16786L37.3955 12.7574H28.1827L32.8086 8.16786ZM32.8086 19.1361C29.9708 19.1361 27.5607 16.9969 27.2109 14.2354H38.4451C38.0564 17.0358 35.6851 19.1361 32.8086 19.1361Z" fill="#00587C"/>
</svg>
