<?xml version="1.0" encoding="utf-8"?>
<!-- Generator: Adobe Illustrator 24.1.2, SVG Export Plug-In . SVG Version: 6.00 Build 0)  -->
<svg version="1.1" id="Layer_1" xmlns="http://www.w3.org/2000/svg" xmlns:xlink="http://www.w3.org/1999/xlink" x="0px" y="0px"
	 viewBox="0 0 194 148" style="enable-background:new 0 0 194 148;" xml:space="preserve">
<style type="text/css">
	.st0{fill:#F5F9FA;}
	.st1{fill:#8DB9CA;}
	.st2{fill:#E2EDF1;}
	.st3{fill:#00587C;}
	.st4{fill:#FFFFFF;}
	.st5{fill:#231F20;}
</style>
<g transform="translate(300,300)">
	<path class="st0" d="M-156.8-267.9c15,22.6,15.9,57.3,1.3,81.2c-14.6,23.9-44.7,36.8-70.6,34.4c-25.9-2.5-47.7-20.3-60.9-43.3
		c-13.2-23-17.9-51.3-7-71.5c10.9-20.1,37.3-32.1,65.1-32.9C-201-300.8-171.9-290.4-156.8-267.9z"/>
</g>
<path class="st1" d="M187.7,123.5H43.3c-3.5,0-6.3-2.8-6.3-6.3V30.8c0-3.5,2.8-6.3,6.3-6.3h144.4c3.5,0,6.3,2.8,6.3,6.3v86.4
	C194,120.7,191.2,123.5,187.7,123.5z"/>
<path class="st2" d="M187.6,25.5H49.2v74.3H193V30.9C193,30.7,192.9,25.5,187.6,25.5z"/>
<path class="st3" d="M43.4,122.5c-5.4,0-5.4-5.2-5.4-5.4V30.9c0-5.4,5.2-5.4,5.4-5.4h5.8v97H43.4z"/>
<path class="st4" d="M49.2,122.5h138.3c5.4,0,5.4-5.2,5.4-5.4V99.8H49.2V122.5z"/>
<g>
	<path class="st3" d="M77.3,108.3H76c-0.1,0-0.2,0.1-0.2,0.2v2.6h-2.5v-2.6c0-0.1-0.1-0.2-0.2-0.2h-1.3c-0.1,0-0.2,0.1-0.2,0.2v6.7
		c0,0.1,0.1,0.2,0.2,0.2h1.3c0.1,0,0.2-0.1,0.2-0.2v-2.5h2.5v2.5c0,0.1,0.1,0.2,0.2,0.2h1.3c0.1,0,0.2-0.1,0.2-0.2v-6.7
		C77.5,108.3,77.4,108.3,77.3,108.3"/>
	<path class="st3" d="M82.7,111.1L82.7,111.1c-0.9-0.4-1.3-0.5-1.3-0.9c0-0.3,0.3-0.6,1-0.6c0.6,0,1,0.1,1.3,0.3c0.1,0,0.1,0,0.2,0
		s0.1-0.1,0.1-0.1l0.3-1.1c0-0.1,0-0.1-0.1-0.2c-0.6-0.2-1.1-0.3-1.8-0.3c-1.6,0-2.7,0.9-2.7,2.2c0,1,0.7,1.7,2,2.1
		c0.8,0.3,1.1,0.5,1.1,0.9s-0.4,0.7-1,0.7s-1.2-0.2-1.6-0.4c-0.1,0-0.1,0-0.2,0s-0.1,0.1-0.1,0.1l-0.3,1.1c0,0.1,0,0.1,0.1,0.2
		c0.4,0.2,1.2,0.4,2,0.4c2.1,0,2.9-1.2,2.9-2.2C84.6,112.2,84,111.6,82.7,111.1"/>
	<path class="st3" d="M91,113.9h-2.5v-5.5c0-0.1-0.1-0.2-0.2-0.2H87c-0.1,0-0.2,0.1-0.2,0.2v6.7c0,0.1,0.1,0.2,0.2,0.2h3.8
		c0.1,0,0.1,0,0.1-0.1l0.3-1.1c0-0.1,0-0.1,0-0.2C91.1,113.9,91,113.9,91,113.9"/>
	<path class="st3" d="M97.4,111.3c0.1,1-0.1,1.8-0.6,2.2c-0.4,0.4-1,0.6-1.7,0.6l0,0c-0.2,0-0.3,0-0.5,0l0,0v-4.5l0,0
		c0.2,0,0.5-0.1,1,0C96.6,109.6,97.3,110.3,97.4,111.3 M98,109c-0.7-0.5-1.6-0.8-2.9-0.8c-0.7,0-1.4,0.1-2,0.1
		c-0.1,0-0.2,0.1-0.2,0.2v6.6c0,0.1,0.1,0.2,0.2,0.2c0.4,0,1,0.1,1.7,0.1c1.4,0,2.6-0.3,3.3-0.9l0,0c0.5-0.5,1.2-1.3,1.2-2.9
		C99.2,110.5,98.8,109.5,98,109"/>
	<path class="st3" d="M102.8,112.7l0.8-2.9l0,0l0.8,2.9H102.8z M106.8,115.1l-2.1-6.7c0-0.1-0.1-0.1-0.2-0.1h-1.9
		c-0.1,0-0.2,0.1-0.2,0.1l-2.1,6.7c0,0.1,0,0.1,0,0.2s0.1,0.1,0.2,0.1h1.3c0.1,0,0.2-0.1,0.2-0.1l0.3-1.1h2.3l0.3,1.1
		c0,0.1,0.1,0.1,0.2,0.1h1.4c0.1,0,0.1,0,0.2-0.1C106.9,115.2,106.9,115.2,106.8,115.1"/>
</g>
<g>
	<path class="st1" d="M67.3,110.8h-0.5c-0.2,0-0.4,0.2-0.4,0.4v6.3c0,0.1,0.1,0.2,0.2,0.3l0.8,0.3h0.1h0.1c0.1,0,0.1-0.1,0.1-0.2
		v-6.7C67.7,111,67.5,110.8,67.3,110.8"/>
	<path class="st1" d="M64.8,110.8h-0.5c-0.2,0-0.4,0.2-0.4,0.4v5.3c0,0.1,0.1,0.2,0.2,0.3l0.8,0.3H65h0.1c0.1,0,0.1-0.1,0.1-0.2
		v-5.7C65.1,111,65,110.8,64.8,110.8"/>
	<path class="st1" d="M68.2,108.3h-9.8c-0.4,0-0.7,0.3-0.7,0.6c0,0.2,0.1,0.4,0.2,0.5c0.1,0.1,0.3,0.2,0.4,0.2
		c0.1,0,0.3,0.1,0.3,0.3v6c0,0.1,0,0.1,0.1,0.2h0.1h0.1l1.4-0.6c0.2-0.1,0.3-0.1,0.5,0l1.4,0.6c0.1,0,0.2,0,0.2,0
		c0.1,0,0.1-0.1,0.1-0.2V110c0-0.2,0.2-0.4,0.4-0.4h5.3c0.2,0,0.4-0.2,0.4-0.4v-0.5C68.6,108.4,68.4,108.3,68.2,108.3"/>
	<path class="st1" d="M69,105.7H58.2c-1.5,0-2.9,1-3.2,2.4c0,0.2-0.1,0.5-0.1,0.7c0,1.4,0.9,2.6,2.1,3c0.2,0.1,0.3,0,0.4-0.2
		l0.2-0.7c0-0.1,0-0.2-0.1-0.3c-0.4-0.1-0.7-0.4-0.9-0.7c0,0,0-0.1-0.1-0.1l0,0c0,0,0-0.1-0.1-0.1l0,0c-0.2-0.4-0.2-0.8-0.1-1.3
		c0.2-0.8,1-1.4,1.9-1.4H69c0.2,0,0.4-0.2,0.4-0.4v-0.5C69.3,105.9,69.2,105.7,69,105.7"/>
</g>
<g>
	<path class="st3" d="M55.7,76.6l0.2-5.6h0.8c1.2,2.6,1.5,3.3,1.7,3.9c0.2-0.6,0.5-1.3,1.7-3.9h0.8l0.2,5.6h-0.6
		c-0.1-3.2-0.2-4-0.2-4.9c-0.2,0.6-0.5,1.3-1.7,4h-0.4c-1.3-2.9-1.5-3.4-1.8-4c0,1,0,1.8-0.1,4.9H55.7z"/>
	<path class="st3" d="M64.2,76.7c-1.3,0-1.9-0.9-1.9-2.1c0-1.5,0.9-2.2,1.9-2.2c1.4,0,1.7,0.9,1.7,1.9c0,0.1,0,0.3,0,0.4h-3
		c0,0.1,0,0.2,0,0.3c0.1,0.6,0.4,1.3,1.4,1.3c0.6,0,0.9-0.2,1.4-0.4l0.2,0.4C65.3,76.5,64.8,76.7,64.2,76.7z M65.4,74
		c0-0.9-0.4-1.2-1.1-1.2c-0.7,0-1.3,0.4-1.4,1.4h2.5C65.4,74.1,65.4,74.1,65.4,74z"/>
	<path class="st3" d="M67,76.6v-4.1l0.5-0.1V73c0.5-0.4,1.2-0.7,1.8-0.7c0.6,0,0.9,0.3,1,0.7c0.5-0.4,1.2-0.7,1.8-0.7
		c0.6,0,0.9,0.3,1,0.8c0,0.2,0,0.5,0,1v2.4h-0.6v-2.3c0-0.4,0-0.8-0.1-1c0-0.2-0.2-0.4-0.6-0.4c-0.6,0-1.1,0.3-1.5,0.6
		c0,0.2,0,0.4,0,0.7v2.4h-0.6v-2.3c0-0.4,0-0.8-0.1-1s-0.2-0.4-0.6-0.4c-0.7,0-1.1,0.3-1.6,0.6v3.1H67V76.6z"/>
	<path class="st3" d="M74.5,70.5l0.6-0.1V73c0.3-0.3,0.9-0.7,1.7-0.7c0.9,0,1.5,0.7,1.5,2.1c0,1.6-0.8,2.3-2,2.3
		c-0.6,0-1.2-0.1-1.7-0.3L74.5,70.5L74.5,70.5z M76.2,76.2c1,0,1.4-0.7,1.4-1.7c0-0.9-0.2-1.6-1.1-1.6c-0.6,0-1,0.2-1.5,0.6V76
		C75.3,76.1,75.8,76.2,76.2,76.2z"/>
	<path class="st3" d="M80.8,76.7c-1.3,0-1.9-0.9-1.9-2.1c0-1.5,0.9-2.2,1.9-2.2c1.4,0,1.7,0.9,1.7,1.9c0,0.1,0,0.3,0,0.4h-3
		c0,0.1,0,0.2,0,0.3c0.1,0.6,0.4,1.3,1.4,1.3c0.6,0,0.9-0.2,1.4-0.4l0.2,0.4C81.9,76.5,81.5,76.7,80.8,76.7z M82,74
		c0-0.9-0.4-1.2-1.1-1.2s-1.3,0.4-1.4,1.4H82C82,74.1,82,74.1,82,74z"/>
	<path class="st3" d="M83.6,76.6v-4.1l0.5-0.1v0.7c0.3-0.4,0.7-0.7,1.3-0.7c0.1,0,0.2,0,0.3,0v0.5c-0.1,0-0.2,0-0.3,0
		c-0.5,0-0.9,0.2-1.2,0.6v3.1H83.6z"/>
	<path class="st3" d="M86.3,75.9c0.3,0.2,0.8,0.3,1.3,0.3c0.7,0,1-0.4,1-0.7c0-0.3-0.1-0.5-0.8-0.7l-0.7-0.2
		c-0.6-0.2-0.9-0.6-0.9-1.1c0-0.6,0.4-1.2,1.6-1.2c0.4,0,0.9,0.1,1.2,0.2L88.9,73c-0.3-0.1-0.7-0.2-1.2-0.2c-0.7,0-0.9,0.4-0.9,0.7
		c0,0.3,0.1,0.5,0.7,0.7l0.6,0.2c0.7,0.2,0.9,0.5,0.9,1.1s-0.4,1.2-1.6,1.2c-0.6,0-1.1-0.1-1.5-0.3L86.3,75.9z"/>
	<path class="st3" d="M90.1,76.6v-6l0.6-0.1V73c0.5-0.4,1.2-0.7,1.8-0.7c0.6,0,0.9,0.3,1,0.8c0,0.2,0,0.5,0,1v2.4H93v-2.3
		c0-0.4,0-0.8-0.1-1s-0.3-0.4-0.6-0.4c-0.7,0-1.1,0.3-1.6,0.6v3.1L90.1,76.6L90.1,76.6z"/>
	<path class="st3" d="M95.2,71.6c-0.2,0-0.4-0.1-0.4-0.4s0.2-0.4,0.4-0.4c0.2,0,0.4,0.1,0.4,0.4C95.5,71.5,95.4,71.6,95.2,71.6z
		 M94.9,76.6v-4.1l0.6-0.1v4.2H94.9z"/>
	<path class="st3" d="M96.9,78.6v-6.1l0.5-0.1V73c0.3-0.3,0.9-0.7,1.7-0.7c0.9,0,1.5,0.7,1.5,2.1c0,1.6-0.8,2.3-2,2.3
		c-0.4,0-0.8-0.1-1.2-0.2v2.1C97.4,78.6,96.9,78.6,96.9,78.6z M98.6,76.2c1,0,1.4-0.7,1.4-1.7c0-0.9-0.2-1.6-1.1-1.6
		c-0.6,0-1,0.2-1.5,0.6V76C97.7,76.1,98.2,76.2,98.6,76.2z"/>
	<path class="st3" d="M105.7,76.7c-1.5,0-2.5-1-2.5-2.8c0-2,1-3.1,2.7-3.1c0.7,0,1.2,0.1,1.6,0.3l-0.2,0.5c-0.4-0.1-0.9-0.3-1.4-0.3
		c-1.1,0-2.1,0.6-2.1,2.5c0,1.6,0.8,2.3,2,2.3c0.7,0,1.2-0.2,1.7-0.6l0.3,0.4C107.3,76.4,106.6,76.7,105.7,76.7z"/>
	<path class="st3" d="M111,76.6v-0.5c-0.4,0.4-0.8,0.6-1.4,0.6c-0.9,0-1.3-0.7-1.3-1.3c0-0.6,0.3-0.9,0.8-1s1.2-0.2,1.9-0.2v-0.4
		c0-0.3-0.1-0.6-0.1-0.7c-0.1-0.2-0.4-0.3-0.7-0.3c-0.4,0-0.9,0.1-1.5,0.3l-0.1-0.4c0.6-0.2,1.2-0.4,1.7-0.4c0.6,0,1,0.1,1.2,0.6
		c0.1,0.2,0.1,0.5,0.1,1v2.7C111.6,76.6,111,76.6,111,76.6z M111,74.6c-0.8,0-1.3,0.1-1.6,0.2c-0.4,0.1-0.5,0.3-0.5,0.6
		c0,0.3,0.2,0.8,0.9,0.8c0.6,0,0.9-0.3,1.2-0.6V74.6z"/>
	<path class="st3" d="M112.9,76.6v-4.1l0.5-0.1v0.7c0.3-0.4,0.7-0.7,1.3-0.7c0.1,0,0.2,0,0.3,0v0.5c-0.1,0-0.2,0-0.3,0
		c-0.5,0-0.9,0.2-1.2,0.6v3.1H112.9z"/>
	<path class="st3" d="M118.7,76.6v-0.5c-0.3,0.3-0.8,0.6-1.4,0.6c-1.1,0-1.7-0.7-1.7-2.1c0-1.6,0.9-2.2,2.1-2.2
		c0.3,0,0.8,0.1,1.1,0.2v-2l0.6-0.1v6.1H118.7z M118.7,73c-0.3-0.1-0.7-0.2-1-0.2c-0.9,0-1.5,0.5-1.5,1.7c0,1.3,0.7,1.7,1.2,1.7
		c0.6,0,1-0.3,1.3-0.5V73z"/>
</g>
<g>
	<rect x="77.4" y="47.5" class="st1" width="0.3" height="13.5"/>
	<rect x="77.4" y="60.7" class="st1" width="12.9" height="0.3"/>
	<polygon class="st1" points="90.3,61 90,61 90,49.1 86.7,45.1 77.6,45.1 77.6,44.8 86.8,44.8 86.8,44.9 90.3,49 	"/>
	<polygon class="st1" points="90.2,49.2 86.6,49.2 86.6,45 86.9,45 86.9,48.9 90.2,48.9 	"/>
	<path class="st1" d="M81.2,49.2h-1.5l-0.3,0.9h-0.5l1.4-3.6h0.4l1.4,3.6h-0.5L81.2,49.2z M79.9,48.8h1.2l-0.6-1.6l0,0L79.9,48.8z"
		/>
	<polygon class="st1" points="80.5,54.2 79.8,53.5 79.9,53.3 80.5,53.9 81.8,52.6 82,52.8 	"/>
	<polygon class="st1" points="82.3,55.1 79,55.1 79,51.8 82.2,51.8 82.2,52.1 79.3,52.1 79.3,54.8 82.1,54.8 82.1,54.1 82.3,54.1 	
		"/>
	<polygon class="st1" points="80.5,58.6 79.8,57.8 79.9,57.6 80.5,58.2 81.8,56.9 82,57.1 	"/>
	<rect x="83.9" y="52.5" class="st1" width="4.4" height="0.3"/>
	<rect x="83.9" y="54" class="st1" width="4.3" height="0.3"/>
	<rect x="83.9" y="56.9" class="st1" width="4.4" height="0.3"/>
	<rect x="83.9" y="58.4" class="st1" width="4.3" height="0.3"/>
	<rect x="83.3" y="48.1" class="st1" width="0.6" height="0.3"/>
	<rect x="82.9" y="48.3" class="st1" width="0.3" height="1"/>
	<rect x="82.1" y="48.1" class="st1" width="1.9" height="0.3"/>
	<rect x="82.9" y="47.2" class="st1" width="0.3" height="1.4"/>
	<g>
		<path class="st1" d="M77.3,46.3c0,0.2,0.1,0.3,0.3,0.3c0.2,0,0.3-0.1,0.3-0.3S77.8,46,77.6,46S77.3,46.2,77.3,46.3"/>
	</g>
	<polygon class="st1" points="82.3,59.4 79,59.4 79,56.1 82.2,56.1 82.2,56.4 79.3,56.4 79.3,59.1 82.1,59.1 82.1,58.4 82.3,58.4 	
		"/>
	<g>
		<path class="st1" d="M66.9,59.2c2.5,0,5.1-1.1,6.9-2.9L73.5,56c-1.7,1.7-4.2,2.8-6.6,2.8c-5.1,0-9.2-4.1-9.2-9.1
			c0-2.3,1-4.6,2.6-6.3L60,43.1c-1.7,1.8-2.6,4.2-2.6,6.6C57.4,54.9,61.7,59.2,66.9,59.2"/>
		<path class="st1" d="M66.9,57.8c4.4,0,7.9-3.5,7.9-7.9c0-4.3-3.6-7.9-7.9-7.9c-4.4,0-7.9,3.5-7.9,7.9
			C58.9,54.3,62.5,57.8,66.9,57.8 M66.9,42.3c4.2,0,7.6,3.4,7.6,7.6s-3.4,7.6-7.6,7.6s-7.6-3.4-7.6-7.6
			C59.2,45.7,62.6,42.3,66.9,42.3"/>
		<path class="st1" d="M63.1,45.1c0.3-0.2,0.5-0.4,0.8-0.5l-0.1-0.2c-0.3,0.2-0.6,0.4-0.9,0.6L63.1,45.1z"/>
		<path class="st1" d="M70.4,45l0.2-0.2c-1.1-0.8-2.4-1.2-3.7-1.2c-0.8,0-1.6,0.2-2.4,0.5l0.1,0.3c0.7-0.3,1.5-0.4,2.3-0.4
			C68.1,43.8,69.4,44.2,70.4,45"/>
		<path class="st1" d="M68.4,56.2h0.3v-1.3c0-0.3,0.3-0.6,0.6-0.6h1.1c0.5,0,0.9-0.4,0.9-0.9s-0.4-0.9-0.9-0.9h-2.6
			c-0.5,0-0.9-0.5-0.9-1.1s0.4-1.1,0.9-1.1h2.9c0.4,0,0.8-0.4,0.8-0.9s-0.3-0.9-0.8-0.9h-0.8c-0.5,0-1-0.5-1-1.2s0.4-1.2,1-1.2h3
			v-0.3h-3c-0.7,0-1.3,0.7-1.3,1.5s0.6,1.5,1.3,1.5h0.8c0.3,0,0.5,0.3,0.5,0.6S71,50,70.7,50h-2.9c-0.7,0-1.2,0.6-1.2,1.4
			c0,0.8,0.5,1.4,1.2,1.4h2.6c0.3,0,0.6,0.3,0.6,0.6S70.7,54,70.4,54h-1.1c-0.5,0-0.9,0.4-0.9,0.9V56.2z"/>
		<path class="st1" d="M64.2,54.5h0.3v-0.8c0-0.7-0.6-1.3-1.3-1.3h-1.5c-0.4,0-0.7-0.3-0.7-0.7s0.3-0.7,0.7-0.7h1.4
			c0.9,0,1.7-0.9,1.8-1.8l0,0V49l0,0c-0.1-0.9-0.9-1.5-1.8-1.5h-2.2v0.3h2.2c0.8,0,1.4,0.6,1.5,1.4c-0.1,0.8-0.7,1.6-1.5,1.6h-1.4
			c-0.5,0-0.9,0.4-0.9,0.9s0.4,0.9,0.9,0.9h1.5c0.6,0,1,0.5,1,1C64.2,53.6,64.2,54.5,64.2,54.5z"/>
		<path class="st1" d="M61.3,44.5l0.3-0.3l-1.7-1.7c-0.1-0.1-0.2-0.1-0.3,0s-0.1,0.2,0,0.3L61.3,44.5z"/>
		<path class="st1" d="M74.5,57L74.5,57c0.1-0.1,0.1-0.2,0-0.3l-1.7-1.6l-0.3,0.3l1.7,1.6C74.3,57,74.4,57,74.5,57"/>
	</g>
	<rect x="68" y="59.8" class="st1" width="0.3" height="1.7"/>
	<rect x="65.3" y="59.8" class="st1" width="0.3" height="1.7"/>
	<g>
		<path class="st1" d="M70.4,63.3h-7.2c0.1-1,0.9-1.7,1.9-1.7h3.4C69.5,61.6,70.3,62.4,70.4,63.3 M62.9,63.6h7.7v-0.1
			c0-1.2-1-2.2-2.2-2.2H65c-1.2,0-2.2,1-2.2,2.2v0.1H62.9z"/>
		<path class="st1" d="M55.5,66.8h22.7c0.1,0,0.2-0.1,0.2-0.2v-3c0-0.1-0.1-0.2-0.2-0.2H55.5c-0.1,0-0.2,0.1-0.2,0.2v3
			C55.3,66.7,55.4,66.8,55.5,66.8 M78.1,66.4H55.6v-2.7h22.5V66.4z"/>
	</g>
	<rect x="75.6" y="63.5" class="st1" width="0.3" height="3.1"/>
	<rect x="58.8" y="63.5" class="st1" width="0.3" height="3.1"/>
	<rect x="74.2" y="63.5" class="st1" width="0.3" height="3.1"/>
	<rect x="57.5" y="63.5" class="st1" width="0.3" height="3.1"/>
	<path class="st1" d="M62.9,65.2h0.4v-0.3h-0.4V65.2z M63.8,65.2h0.4v-0.3h-0.4C63.8,64.9,63.8,65.2,63.8,65.2z M64.6,65.2H65v-0.3
		h-0.4V65.2z M65.4,65.2h0.4v-0.3h-0.4V65.2z M66.2,65.2h0.4v-0.3h-0.4V65.2z M67,65.2h0.4v-0.3H67V65.2z M67.8,65.2h0.4v-0.3h-0.4
		V65.2z M68.6,65.2H69v-0.3h-0.4V65.2z M69.4,65.2h0.4v-0.3h-0.4V65.2z"/>
	<g>
		<path class="st1" d="M99.8,65.8H91v-0.4h8.5v-2c-3.5-0.2-5.5,0.1-6.7,0.5s-1.7,0.9-1.7,0.9l-0.3-0.2c0.1-0.1,1.8-2,8.8-1.5h0.2
			V65.8z"/>
		<path class="st1" d="M81.5,65.8h8.8v-0.4h-8.5v-2c3.5-0.2,5.5,0.1,6.7,0.5s1.7,0.9,1.7,0.9l0.3-0.2c-0.1-0.1-1.8-2-8.8-1.5h-0.2
			V65.8z"/>
		<path class="st1" d="M89.8,66.3h0.4c0-0.3,0.2-0.6,0.5-0.6s0.5,0.3,0.5,0.6h0.4c0-0.5-0.4-1-0.9-1C90.2,65.3,89.8,65.7,89.8,66.3"
			/>
	</g>
	<polygon class="st1" points="80.4,66.6 101.1,66.6 101.1,65.3 100.2,65.3 100.2,65.6 100.7,65.6 100.7,66.3 80.7,66.3 80.7,65.8 
		81.2,65.8 81.2,65.4 80.4,65.4 	"/>
	<g>
		<path class="st1" d="M58,60.3L58,60.3L58,60.3z M56.5,60.8L56.5,60.8L56.5,60.8z M58.9,59.6l-1.1,0.5c-0.1,0-0.1,0.1-0.2,0.2
			l-0.2,1.1l-0.8-0.9c-0.1-0.1-0.2-0.1-0.2-0.1l-1.2,0.2l0.6-1c0-0.1,0-0.2,0-0.3l-0.5-1l1.1,0.2c0.1,0,0.2,0,0.2-0.1l0.8-0.8
			l0.1,1.2c0,0.1,0.1,0.2,0.1,0.2L58.9,59.6z M57.5,61.8C57.5,61.8,57.6,61.8,57.5,61.8c0.2,0,0.3-0.1,0.3-0.2l0.2-1.2l1.1-0.5
			c0.1,0,0.2-0.1,0.2-0.2c0-0.1-0.1-0.2-0.1-0.3l-1.1-0.6L58,57.6c0-0.1-0.1-0.2-0.2-0.2c-0.1,0-0.2,0-0.3,0.1l-0.9,0.8L55.4,58
			c-0.1,0-0.2,0-0.3,0.1s-0.1,0.2,0,0.3l0.5,1.1L55,60.6c-0.1,0.1,0,0.2,0,0.3c0.1,0.1,0.2,0.1,0.3,0.1l1.2-0.2l0.8,0.9
			C57.4,61.7,57.4,61.8,57.5,61.8"/>
		<path class="st1" d="M94.7,60L94.7,60L94.7,60z M96.6,58.1l-0.8,0.8c-0.1,0.1-0.1,0.2-0.1,0.2l0.2,1.1l-1-0.5c-0.1,0-0.2,0-0.3,0
			l-1,0.5l0.2-1.1c0-0.1,0-0.2-0.1-0.2l-0.8-0.8l1.2-0.2c0.1,0,0.2-0.1,0.2-0.2l0.5-1l0.5,1c0,0.1,0.1,0.1,0.2,0.2L96.6,58.1z
			 M95.9,60.6c0.1,0,0.1,0,0.2-0.1s0.1-0.2,0.1-0.3L96,59.1l0.9-0.8C97,58.2,97,58.1,97,58s-0.1-0.2-0.2-0.2l-1.2-0.2L95,56.5
			c0-0.1-0.1-0.2-0.2-0.2s-0.2,0.1-0.2,0.2l-0.5,1.1l-1.2,0.2c-0.1,0-0.2,0.1-0.2,0.2c0,0.1,0,0.2,0.1,0.3l0.9,0.8l-0.2,1.2
			c0,0.1,0,0.2,0.1,0.3s0.2,0.1,0.3,0L95,60l1.1,0.6C95.8,60.6,95.9,60.6,95.9,60.6"/>
		<path class="st1" d="M76,42.9l-1,0.5l0.2-1.1c0-0.1,0-0.2-0.1-0.2l-0.8-0.8l1.2-0.2c0.1,0,0.2-0.1,0.2-0.2l0.5-1l0.5,1
			c0,0.1,0.1,0.1,0.2,0.2l1.2,0.2l-0.8,0.8c-0.1,0.1-0.1,0.2-0.1,0.2l0.2,1.1l-1-0.5C76.1,42.9,76,42.9,76,42.9 M74.9,43.8
			L74.9,43.8l1.2-0.6l1.1,0.6c0.1,0,0.2,0,0.3,0c0.1-0.1,0.1-0.2,0.1-0.3l-0.2-1.2l0.9-0.8c0.1-0.1,0.1-0.2,0.1-0.3S78.3,41,78.2,41
			L77,40.8l-0.5-1.1c0-0.1-0.1-0.2-0.2-0.2s-0.2,0.1-0.2,0.2l-0.5,1.1L74.1,41c-0.1,0-0.2,0.1-0.2,0.2c0,0.1,0,0.2,0.1,0.3l0.9,0.8
			l-0.2,1.2C74.7,43.6,74.7,43.7,74.9,43.8C74.8,43.8,74.8,43.8,74.9,43.8"/>
	</g>
</g>
<g>
	<path class="st4" d="M45.6,93h-3.1v1.1h-0.8v-3.2h0.8V92h3.1V93z"/>
	<path class="st4" d="M45.6,89.5h-3.9v-2.7h0.8v1.7h0.6V87H44v1.5h0.7v-1.8h0.8L45.6,89.5L45.6,89.5z"/>
	<path class="st4" d="M45.6,85.7l-3.9-1.4v-1.1l3.9-1.4v1.1l-0.8,0.3v1.3l0.8,0.3V85.7z M43.9,83.3c-0.8,0.2-1,0.3-1.3,0.4
		c0.2,0.1,0.5,0.1,1.3,0.4V83.3z"/>
	<path class="st4" d="M45.7,78.9c0,1.2-0.7,1.8-1.9,1.8c-1.4,0-2.1-0.7-2.1-1.9c0-0.6,0.1-1,0.2-1.2l0.7,0.3
		c-0.1,0.3-0.2,0.6-0.2,0.8c0,0.6,0.2,1,1.3,1c1,0,1.2-0.4,1.2-1c0-0.4-0.1-0.7-0.3-1l0.7-0.3C45.5,77.8,45.7,78.3,45.7,78.9z"/>
	<path class="st4" d="M45.6,76.1h-3.9v-1h1.5v-1.4h-1.5v-1h3.9v1H44v1.4h1.6V76.1z"/>
	<path class="st4" d="M45.6,71.1h-3.9v-2.7h0.8v1.7h0.6v-1.5H44v1.5h0.7v-1.8h0.8L45.6,71.1L45.6,71.1z"/>
	<path class="st4" d="M44.1,65.3v0.2v0.3h1.4v1h-3.9v-1.4c0-0.3,0-0.7,0.1-0.9c0.1-0.4,0.5-0.7,1-0.7s0.9,0.1,1.1,0.7l1.6-0.9v1.1
		L44.1,65.3z M43.4,65.5c0-0.3,0-0.5-0.1-0.6s-0.2-0.2-0.4-0.2s-0.3,0.1-0.4,0.2c-0.1,0.1-0.1,0.3-0.1,0.5v0.4h0.9L43.4,65.5
		L43.4,65.5z"/>
	<path class="st4" d="M45.6,60h-3.9v-1h3.9V60z"/>
	<path class="st4" d="M41.7,57.4v-0.8c0-0.5,0-0.9,0.1-1.2c0.1-0.9,0.7-1.4,1.7-1.4c0.9,0,1.6,0.2,1.9,1c0.2,0.4,0.2,1,0.2,1.7v0.7
		H41.7z M44.7,56.2c0-0.2,0-0.5-0.1-0.7c-0.1-0.4-0.5-0.5-1.1-0.5c-0.4,0-0.7,0.1-0.9,0.3c-0.1,0.2-0.2,0.5-0.2,0.8v0.3h2.2
		L44.7,56.2L44.7,56.2z"/>
</g>
<g>
	<path d="M149,40.2c0-2.7,0-5.5,0-8.3c-0.4,0-0.8,0-1.2,0c0,2.7,0,5.4,0,8.1c0,0.1,0,0.1,0,0.2H149z"/>
	<path d="M150.2,40.2c0-2.8,0-5.5,0-8.3c-0.2,0-0.4,0-0.6,0c0,2.8,0,5.5,0,8.3H150.2z"/>
	<path d="M153.1,40.2c0-2.8,0-5.6,0-8.3c-0.6,0-1.2,0-1.8,0c0,2.7,0,5.5,0,8.3H153.1z"/>
	<path d="M155.5,40.2c0-2.7,0-5.5,0-8.3c-0.4,0-0.8,0-1.2,0c0,2.7,0,5.4,0,8.1c0,0.1,0,0.1,0,0.2H155.5z"/>
	<path d="M157.8,40.2c0-2.7,0-5.5,0-8.3c-0.4,0-0.8,0-1.2,0c0,2.7,0,5.4,0,8.1c0,0.1,0,0.1,0,0.2H157.8z"/>
	<path d="M159.6,40.2c0-2.7,0-5.5,0-8.3c-0.4,0-0.8,0-1.2,0c0,2.7,0,5.4,0,8.1c0,0.1,0,0.1,0,0.2H159.6z"/>
	<path d="M162.5,40.2c0-2.8,0-5.6,0-8.3c-0.6,0-1.2,0-1.8,0c0,2.7,0,5.5,0,8.3H162.5z"/>
	<path d="M164.3,40.2c0-2.7,0-5.5,0-8.3c-0.4,0-0.8,0-1.2,0c0,2.7,0,5.4,0,8.1c0,0.1,0,0.1,0,0.2H164.3z"/>
	<path d="M166.6,40.2c0-2.8,0-5.6,0-8.3c-0.6,0-1.2,0-1.8,0c0,2.7,0,5.5,0,8.3H166.6z"/>
	<path d="M167.8,40.2c0-2.8,0-5.5,0-8.3c-0.2,0-0.4,0-0.6,0c0,2.8,0,5.5,0,8.3H167.8z"/>
	<path d="M170.2,40.2c0-2.8,0-5.6,0-8.3c-0.6,0-1.2,0-1.8,0c0,2.7,0,5.5,0,8.3H170.2z"/>
	<path d="M171.9,40.2c0-2.7,0-5.5,0-8.3c-0.4,0-0.8,0-1.2,0c0,2.7,0,5.4,0,8.1c0,0.1,0,0.1,0,0.2H171.9z"/>
	<path d="M174.3,40.2c0-2.8,0-5.5,0-8.3c-0.2,0-0.4,0-0.6,0c0,2.8,0,5.5,0,8.3H174.3z"/>
	<path d="M176.1,40.2c0-2.8,0-5.5,0-8.3c-0.2,0-0.4,0-0.6,0c0,2.8,0,5.5,0,8.3H176.1z"/>
	<path d="M179,40.2c0-2.8,0-5.6,0-8.3c-0.8,0-1.6,0-2.4,0c0,2.8,0,5.5,0,8.3H179z"/>
	<path d="M181.4,40.2c0-2.7,0-5.5,0-8.3c-0.4,0-0.8,0-1.2,0c0,2.7,0,5.4,0,8.1c0,0.1,0,0.1,0,0.2H181.4z"/>
	<path d="M184.9,40.2c0-2.8,0-5.6,0-8.3c-0.6,0-1.2,0-1.8,0c0,2.7,0,5.5,0,8.3H184.9z"/>
	<path d="M186.1,40.2c0-2.8,0-5.5,0-8.3c-0.2,0-0.4,0-0.6,0c0,2.8,0,5.5,0,8.3H186.1z"/>
	<path d="M187.9,40.2c0-2.8,0-5.5,0-8.3c-0.4,0-0.8,0-1.2,0c0,2.7,0,5.5,0,8.3H187.9z"/>
</g>
<g>
	<path class="st5" d="M155.4,46.4l0.1-2.4h0.4c0.5,1,0.6,1.3,0.7,1.5c0.1-0.2,0.2-0.5,0.7-1.5h0.4l0.1,2.4h-0.3c0-1.3-0.1-1.6-0.1-2
		c-0.1,0.3-0.2,0.5-0.7,1.6h-0.2c-0.5-1.1-0.6-1.3-0.7-1.6c0,0.4,0,0.7-0.1,2H155.4z"/>
	<path class="st5" d="M158.6,46.4V44h1.5v0.3h-1.2V45h1.1v0.3h-1.1v0.8h1.2v0.3C160.1,46.4,158.6,46.4,158.6,46.4z"/>
	<path class="st5" d="M160.9,46.4L161,44h0.4c0.5,1,0.6,1.3,0.7,1.5c0.1-0.2,0.2-0.5,0.7-1.5h0.4l0.1,2.4H163c0-1.3-0.1-1.6-0.1-2
		c-0.1,0.3-0.2,0.5-0.7,1.6H162c-0.5-1.1-0.6-1.3-0.7-1.6c0,0.4,0,0.7-0.1,2H160.9z"/>
	<path class="st5" d="M164.2,44.1h0.5c0.1,0,0.4,0,0.5,0c0.4,0,0.6,0.2,0.6,0.5s-0.1,0.5-0.4,0.6c0.4,0,0.6,0.2,0.6,0.6
		c0,0.3-0.2,0.5-0.5,0.6c-0.2,0-0.4,0.1-0.6,0.1h-0.5v-2.4C164.4,44.1,164.2,44.1,164.2,44.1z M164.8,45.1c0.2,0,0.3,0,0.3-0.1
		c0.1-0.1,0.2-0.2,0.2-0.3c0-0.2-0.1-0.3-0.2-0.3c-0.1,0-0.2,0-0.3,0h-0.3v0.7C164.5,45.1,164.8,45.1,164.8,45.1z M164.5,46.2h0.3
		c0.2,0,0.3,0,0.4-0.1c0.1-0.1,0.2-0.2,0.2-0.4s-0.1-0.3-0.3-0.3c-0.1,0-0.2,0-0.4,0h-0.4v0.8H164.5z"/>
	<path class="st5" d="M166.6,46.4V44h1.5v0.3h-1.2V45h1.1v0.3h-1.1v0.8h1.2v0.3C168.1,46.4,166.6,46.4,166.6,46.4z"/>
	<path class="st5" d="M169.7,45.4h-0.1h-0.3v1H169V44h0.6c0.2,0,0.4,0,0.6,0.1c0.2,0.1,0.4,0.3,0.4,0.6s-0.2,0.6-0.5,0.7l0.6,1.1
		h-0.4L169.7,45.4z M169.6,45.2c0.2,0,0.3,0,0.4-0.1c0.1-0.1,0.2-0.2,0.2-0.4s-0.1-0.3-0.2-0.4c-0.1,0-0.2,0-0.4,0h-0.3v0.8h0.3
		V45.2z"/>
	<path class="st5" d="M172.4,46.4V44h0.4c0.9,1.4,1,1.5,1.2,1.8c0-0.3,0-0.6,0-1.8h0.3v2.4H174c-0.8-1.3-1-1.6-1.2-1.9
		c0,0.3,0,0.7,0,1.9H172.4z"/>
	<path class="st5" d="M176.9,45.5c0,0.3,0,0.5-0.1,0.7s-0.4,0.4-0.8,0.4c-0.4,0-0.7-0.1-0.8-0.4c-0.1-0.2-0.1-0.4-0.1-0.6v-1.4h0.3
		v1.4c0,0.2,0,0.4,0,0.5c0.1,0.2,0.2,0.3,0.6,0.3c0.3,0,0.5-0.1,0.5-0.3c0-0.1,0.1-0.3,0.1-0.5v-1.4h0.3V45.5z"/>
	<path class="st5" d="M177.8,46.4l0.1-2.4h0.4c0.5,1,0.6,1.3,0.7,1.5c0.1-0.2,0.2-0.5,0.7-1.5h0.4l0.1,2.4h-0.3c0-1.3-0.1-1.6-0.1-2
		c-0.1,0.3-0.2,0.5-0.7,1.6h-0.2c-0.5-1.1-0.6-1.3-0.7-1.6c0,0.4,0,0.7-0.1,2H177.8z"/>
	<path class="st5" d="M181,44.1h0.5c0.1,0,0.4,0,0.5,0c0.4,0,0.6,0.2,0.6,0.5s-0.1,0.5-0.4,0.6c0.4,0,0.6,0.2,0.6,0.6
		c0,0.3-0.2,0.5-0.5,0.6c-0.2,0-0.4,0.1-0.6,0.1H181V44.1z M181.7,45.1c0.2,0,0.3,0,0.3-0.1c0.1-0.1,0.2-0.2,0.2-0.3
		c0-0.2-0.1-0.3-0.2-0.3c-0.1,0-0.2,0-0.3,0h-0.3v0.7C181.4,45.1,181.7,45.1,181.7,45.1z M181.4,46.2h0.3c0.2,0,0.3,0,0.4-0.1
		c0.1-0.1,0.2-0.2,0.2-0.4s-0.1-0.3-0.3-0.3c-0.1,0-0.2,0-0.4,0h-0.4v0.8H181.4z"/>
	<path class="st5" d="M183.5,46.4V44h1.5v0.3h-1.2V45h1.1v0.3h-1.1v0.8h1.2v0.3C185,46.4,183.5,46.4,183.5,46.4z"/>
	<path class="st5" d="M186.6,45.4h-0.1h-0.3v1h-0.3V44h0.6c0.2,0,0.4,0,0.6,0.1c0.3,0.1,0.4,0.3,0.4,0.6s-0.2,0.6-0.5,0.7l0.6,1.1
		h-0.4L186.6,45.4z M186.4,45.2c0.2,0,0.3,0,0.4-0.1c0.1-0.1,0.2-0.2,0.2-0.4s-0.1-0.3-0.2-0.4c-0.1,0-0.2,0-0.4,0h-0.3v0.8h0.3
		V45.2z"/>
</g>
<path class="st5" d="M164.7,51.9v-3.4c-0.2,0.1-0.6,0.4-0.8,0.5l-0.3-0.5c0.4-0.3,0.8-0.6,1.1-0.8h0.6v4.2H164.7z M166.1,51.9v-0.5
	c0.6-0.5,1.2-0.9,1.7-1.4c0.3-0.3,0.5-0.7,0.5-1c0-0.4-0.2-0.7-0.7-0.7c-0.3,0-0.7,0.1-1.1,0.3l-0.2-0.5c0.5-0.3,1-0.4,1.4-0.4
	c0.9,0,1.4,0.5,1.4,1.2c0,0.6-0.3,1.1-0.8,1.5c-0.3,0.3-0.7,0.6-1.2,0.9c0.5,0,1.4,0,2.1,0v0.6C169.2,51.9,166.1,51.9,166.1,51.9z
	 M170.1,51.2c0.2,0.1,0.6,0.1,0.8,0.1c0.9,0,1.2-0.3,1.2-0.7c0-0.3-0.2-0.6-0.9-0.6c-0.1,0-0.3,0-0.5,0v-0.5c1,0,1.2-0.3,1.2-0.7
	s-0.2-0.5-0.7-0.5c-0.3,0-0.7,0.1-1.1,0.3l-0.2-0.5c0.4-0.2,0.9-0.4,1.4-0.4c0.9,0,1.3,0.4,1.3,1c0,0.4-0.3,0.8-0.8,1
	c0.6,0.1,1,0.4,1,0.9c0,1-0.7,1.4-1.8,1.4c-0.3,0-0.9-0.1-1-0.2L170.1,51.2z M175.6,51.9v-1.1h-2v-0.4l2-2.7h0.7v2.6h0.6v0.6h-0.6
	V52L175.6,51.9L175.6,51.9z M175.6,48.4c-0.3,0.4-0.6,0.9-1.3,1.9h1.3C175.6,49.2,175.6,48.9,175.6,48.4z M177.5,51.2
	c0.1,0.1,0.5,0.1,0.9,0.1c0.8,0,1.1-0.3,1.1-0.8s-0.3-0.7-0.9-0.7c-0.3,0-0.6,0.1-0.9,0.1l0.2-2.2h2.2v0.6h-1.7l-0.1,1
	c0.2,0,0.4-0.1,0.6-0.1c0.9,0,1.4,0.5,1.4,1.2c0,1-0.7,1.5-1.8,1.5c-0.3,0-0.8-0.1-1-0.1V51.2z M183.1,48.3c-0.9,0-1.2,0.5-1.3,1.4
	c0.2-0.3,0.7-0.5,1.1-0.5c0.8,0,1.2,0.4,1.2,1.3c0,0.8-0.5,1.5-1.5,1.5c-0.8,0-1.5-0.6-1.5-1.9c0-1.5,0.7-2.4,2.1-2.4
	c0.3,0,0.6,0,0.9,0.1l-0.2,0.6C183.6,48.3,183.3,48.3,183.1,48.3z M182.6,51.4c0.5,0,0.8-0.3,0.8-0.8s-0.2-0.8-0.7-0.8
	c-0.4,0-0.7,0.2-0.9,0.4C181.8,50.8,182,51.4,182.6,51.4z M185.1,51.9c0.5-1.4,1.1-2.6,1.6-3.5h-2.2v-0.6h2.9v0.5
	c-0.5,1.1-1,2.3-1.5,3.6H185.1z"/>
<g>
	<path class="st5" d="M158.3,58.8l-0.9-2.4h0.3c0.6,1.6,0.6,1.8,0.7,2c0.1-0.2,0.1-0.4,0.7-2h0.3l-0.9,2.4H158.3z"/>
	<path class="st5" d="M159.8,58.8l0.9-2.4h0.4l0.9,2.4h-0.3l-0.3-0.7h-1l-0.3,0.7H159.8z M161.3,57.8c-0.3-0.7-0.3-0.9-0.4-1.1
		c-0.1,0.2-0.1,0.4-0.4,1.1H161.3z"/>
	<path class="st5" d="M162.6,58.8v-2.4h0.3v2.1h1.2v0.3C164.1,58.8,162.6,58.8,162.6,58.8z"/>
	<path class="st5" d="M164.8,58.8v-2.4h0.3v2.4H164.8z"/>
	<path class="st5" d="M166,56.4h0.5c0.3,0,0.6,0,0.8,0.1c0.4,0.1,0.7,0.4,0.7,1s-0.2,1-0.7,1.2c-0.3,0.1-0.6,0.1-0.8,0.1H166V56.4z
		 M166.5,58.5c0.2,0,0.4,0,0.6-0.1c0.4-0.1,0.5-0.4,0.5-0.9c0-0.3-0.1-0.6-0.4-0.7c-0.1-0.1-0.4-0.1-0.7-0.1h-0.3v1.8H166.5z"/>
	<path class="st5" d="M170.3,58.8v-2.1h-0.8v-0.3h1.8v0.3h-0.8v2.1H170.3z"/>
	<path class="st5" d="M172.1,58.8v-2.4h0.3v1h1.2v-1h0.3v2.4h-0.3v-1.1h-1.2v1.1H172.1z"/>
	<path class="st5" d="M175.6,57.8h-0.1h-0.3v1h-0.3v-2.4h0.6c0.2,0,0.4,0,0.6,0.1c0.2,0.1,0.4,0.3,0.4,0.6s-0.2,0.6-0.5,0.7l0.6,1.1
		h-0.4L175.6,57.8z M175.5,57.5c0.2,0,0.3,0,0.4-0.1c0.1-0.1,0.2-0.2,0.2-0.4s-0.1-0.3-0.2-0.4c-0.1,0-0.2,0-0.4,0h-0.3v0.8h0.3
		V57.5z"/>
	<path class="st5" d="M178.1,58.8c-0.7,0-1.1-0.5-1.1-1.2c0-0.8,0.4-1.3,1.1-1.3c0.7,0,1.1,0.4,1.1,1.2
		C179.2,58.4,178.8,58.8,178.1,58.8z M178.1,56.6c-0.5,0-0.8,0.3-0.8,0.9c0,0.7,0.3,1,0.8,1s0.8-0.3,0.8-1
		C178.9,57,178.7,56.6,178.1,56.6z"/>
	<path class="st5" d="M181.8,57.8c0,0.3,0,0.5-0.1,0.7s-0.4,0.4-0.8,0.4c-0.4,0-0.7-0.1-0.8-0.4c-0.1-0.2-0.1-0.4-0.1-0.6v-1.4h0.3
		v1.4c0,0.2,0,0.4,0,0.5c0.1,0.2,0.2,0.3,0.6,0.3c0.3,0,0.5-0.1,0.5-0.3c0-0.1,0.1-0.3,0.1-0.5v-1.4h0.3V57.8z"/>
	<path class="st5" d="M183.6,58.8c-0.6,0-1.1-0.4-1.1-1.2c0-0.9,0.4-1.3,1.1-1.3c0.3,0,0.6,0.1,0.7,0.1l-0.1,0.3
		c-0.2-0.1-0.4-0.1-0.6-0.1c-0.5,0-0.8,0.2-0.8,1c0,0.7,0.3,0.9,0.8,0.9c0.2,0,0.4,0,0.6-0.1v-0.6h-0.5v-0.3h0.8v1.1
		C184.3,58.7,184,58.8,183.6,58.8z"/>
	<path class="st5" d="M185.4,58.8v-2.4h0.3v1h1.2v-1h0.3v2.4h-0.3v-1.1h-1.2v1.1H185.4z"/>
</g>
<path class="st5" d="M156,64.3c-1,0-1.6-0.8-1.6-2.1c0-1.4,0.6-2.2,1.7-2.2c1.1,0,1.5,0.7,1.5,2C157.6,63.5,157,64.3,156,64.3z
	 M156,60.6c-0.6,0-0.9,0.4-0.9,1.5c0,1.2,0.3,1.5,0.9,1.5c0.6,0,0.9-0.4,0.9-1.6C156.9,61.1,156.7,60.6,156,60.6z M158.7,64.2
	c0.5-1.4,1.1-2.6,1.6-3.5h-2.2v-0.6h2.9v0.5c-0.5,1.1-1,2.3-1.5,3.6H158.7z M161.1,64.8l2.1-5.2h0.5l-2.1,5.2H161.1z M165,64.2v-3.4
	c-0.2,0.1-0.6,0.4-0.8,0.5l-0.3-0.5c0.4-0.3,0.8-0.6,1.1-0.8h0.6v4.2H165z M168.8,64.3v-1.1h-2v-0.4l2-2.7h0.7v2.6h0.6v0.6h-0.6v1.1
	L168.8,64.3L168.8,64.3z M168.9,60.8c-0.3,0.4-0.6,0.9-1.3,1.9h1.3C168.8,61.6,168.8,61.2,168.9,60.8z M170.3,64.8l2.1-5.2h0.5
	l-2.1,5.2H170.3z M173.2,64.2v-0.5c0.6-0.5,1.2-0.9,1.7-1.4c0.3-0.3,0.5-0.7,0.5-1c0-0.4-0.2-0.7-0.7-0.7c-0.3,0-0.7,0.1-1.1,0.3
	l-0.2-0.5c0.5-0.3,1-0.4,1.4-0.4c0.9,0,1.4,0.5,1.4,1.2c0,0.6-0.3,1.1-0.8,1.5c-0.3,0.3-0.7,0.6-1.2,0.9c0.5,0,1.4,0,2.1,0v0.6
	H173.2z M184.2,64.2v-0.5c0.6-0.5,1.2-0.9,1.7-1.4c0.3-0.3,0.5-0.7,0.5-1c0-0.4-0.2-0.7-0.7-0.7c-0.3,0-0.7,0.1-1.1,0.3l-0.2-0.5
	c0.5-0.3,1-0.4,1.4-0.4c0.9,0,1.4,0.5,1.4,1.2c0,0.6-0.3,1.1-0.8,1.5c-0.3,0.3-0.7,0.6-1.2,0.9c0.5,0,1.4,0,2.1,0v0.6H184.2z
	 M178.4,64.3c-1,0-1.6-0.8-1.6-2.1c0-1.4,0.6-2.2,1.7-2.2c1.1,0,1.5,0.7,1.5,2C180,63.5,179.4,64.3,178.4,64.3z M178.4,60.6
	c-0.6,0-0.9,0.4-0.9,1.5c0,1.2,0.3,1.5,0.9,1.5c0.6,0,0.9-0.4,0.9-1.6C179.3,61.1,179.1,60.6,178.4,60.6z M180.5,64.2v-0.5
	c0.6-0.5,1.2-0.9,1.7-1.4c0.3-0.3,0.5-0.7,0.5-1c0-0.4-0.2-0.7-0.7-0.7c-0.3,0-0.7,0.1-1.1,0.3l-0.2-0.5c0.5-0.3,1-0.4,1.4-0.4
	c0.9,0,1.4,0.5,1.4,1.2c0,0.6-0.3,1.1-0.8,1.5c-0.3,0.3-0.7,0.6-1.2,0.9c0.5,0,1.4,0,2.1,0v0.6H180.5z"/>
<g>
	<path class="st5" d="M159.3,71.2c-0.6,0-1.1-0.4-1.1-1.2c0-0.9,0.4-1.3,1.1-1.3c0.3,0,0.6,0.1,0.7,0.1l-0.1,0.3
		c-0.2-0.1-0.4-0.1-0.6-0.1c-0.5,0-0.8,0.2-0.8,1c0,0.7,0.3,0.9,0.8,0.9c0.2,0,0.4,0,0.6-0.1v-0.6h-0.5v-0.3h0.8V71
		C160,71.1,159.7,71.2,159.3,71.2z"/>
	<path class="st5" d="M161.8,70.1h-0.1h-0.3v1H161v-2.4h0.6c0.2,0,0.4,0,0.6,0.1c0.3,0.1,0.4,0.3,0.4,0.6c0,0.3-0.2,0.6-0.5,0.7
		l0.6,1.1h-0.4L161.8,70.1z M161.7,69.9c0.2,0,0.3,0,0.4-0.1c0.1-0.1,0.2-0.2,0.2-0.4c0-0.2-0.1-0.3-0.2-0.4c-0.1,0-0.2,0-0.4,0
		h-0.3v0.8L161.7,69.9L161.7,69.9z"/>
	<path class="st5" d="M164.3,71.2c-0.7,0-1.1-0.5-1.1-1.2c0-0.8,0.4-1.3,1.1-1.3c0.7,0,1.1,0.4,1.1,1.2
		C165.4,70.7,165,71.2,164.3,71.2z M164.3,69c-0.5,0-0.8,0.3-0.8,0.9c0,0.7,0.3,1,0.8,1s0.8-0.3,0.8-1C165.1,69.4,164.9,69,164.3,69
		z"/>
	<path class="st5" d="M168,70.1c0,0.3,0,0.5-0.1,0.7s-0.4,0.4-0.8,0.4c-0.4,0-0.7-0.1-0.8-0.4c-0.1-0.2-0.1-0.4-0.1-0.6v-1.4h0.3
		v1.4c0,0.2,0,0.4,0,0.5c0.1,0.2,0.2,0.3,0.6,0.3c0.3,0,0.5-0.1,0.5-0.3c0-0.1,0.1-0.3,0.1-0.5v-1.4h0.3V70.1z"/>
	<path class="st5" d="M168.9,71.1v-2.4h0.5c0.2,0,0.4,0,0.6,0c0.3,0.1,0.5,0.3,0.5,0.6c0,0.4-0.2,0.6-0.5,0.7c-0.2,0-0.4,0-0.5,0
		h-0.2v0.9h-0.4L168.9,71.1L168.9,71.1z M169.5,69.9c0.1,0,0.3,0,0.5,0c0.2-0.1,0.3-0.2,0.3-0.4c0-0.2-0.1-0.3-0.3-0.4
		c-0.1,0-0.3,0-0.4,0h-0.3V70L169.5,69.9L169.5,69.9z"/>
	<path class="st5" d="M172.3,71.1v-2.4h0.4c0.9,1.4,1,1.5,1.2,1.8c0-0.3,0-0.6,0-1.8h0.3v2.4h-0.3c-0.8-1.3-1-1.6-1.2-1.9
		c0,0.3,0,0.7,0,1.9H172.3z"/>
	<path class="st5" d="M176.9,70.1c0,0.3,0,0.5-0.1,0.7s-0.4,0.4-0.8,0.4c-0.4,0-0.7-0.1-0.8-0.4c-0.1-0.2-0.1-0.4-0.1-0.6v-1.4h0.3
		v1.4c0,0.2,0,0.4,0,0.5c0.1,0.2,0.2,0.3,0.6,0.3c0.3,0,0.5-0.1,0.5-0.3c0-0.1,0.1-0.3,0.1-0.5v-1.4h0.3V70.1z"/>
	<path class="st5" d="M177.8,71.1l0.1-2.4h0.4c0.5,1,0.6,1.3,0.7,1.5c0.1-0.2,0.2-0.5,0.7-1.5h0.4l0.1,2.4h-0.3c0-1.3-0.1-1.6-0.1-2
		c-0.1,0.3-0.2,0.5-0.7,1.6h-0.2c-0.5-1.1-0.6-1.3-0.7-1.6c0,0.4,0,0.7-0.1,2H177.8z"/>
	<path class="st5" d="M181,68.8h0.5c0.1,0,0.4,0,0.5,0c0.4,0,0.6,0.2,0.6,0.5s-0.1,0.5-0.4,0.6c0.4,0,0.6,0.2,0.6,0.6
		c0,0.3-0.2,0.5-0.5,0.6c-0.2,0-0.4,0.1-0.6,0.1H181V68.8z M181.7,69.8c0.2,0,0.3,0,0.3-0.1c0.1-0.1,0.2-0.2,0.2-0.3
		c0-0.2-0.1-0.3-0.2-0.3c-0.1,0-0.2,0-0.3,0h-0.3v0.7C181.4,69.8,181.7,69.8,181.7,69.8z M181.4,70.9h0.3c0.2,0,0.3,0,0.4-0.1
		c0.1-0.1,0.2-0.2,0.2-0.4c0-0.2-0.1-0.3-0.3-0.3c-0.1,0-0.2,0-0.4,0h-0.4v0.8H181.4z"/>
	<path class="st5" d="M183.4,71.1v-2.4h1.5V69h-1.2v0.7h1.1V70h-1.1v0.8h1.2v0.3C184.9,71.1,183.4,71.1,183.4,71.1z"/>
	<path class="st5" d="M186.6,70.1h-0.1h-0.3v1h-0.3v-2.4h0.6c0.2,0,0.4,0,0.6,0.1c0.3,0.1,0.4,0.3,0.4,0.6c0,0.3-0.2,0.6-0.5,0.7
		l0.6,1.1h-0.4L186.6,70.1z M186.4,69.9c0.2,0,0.3,0,0.4-0.1c0.1-0.1,0.2-0.2,0.2-0.4c0-0.2-0.1-0.3-0.2-0.4c-0.1,0-0.2,0-0.4,0
		h-0.3v0.8L186.4,69.9L186.4,69.9z"/>
</g>
<path class="st5" d="M168.2,76.6c-1,0-1.6-0.8-1.6-2.1c0-1.4,0.6-2.2,1.7-2.2c1.1,0,1.5,0.7,1.5,2C169.9,75.9,169.2,76.6,168.2,76.6
	z M168.3,73c-0.6,0-0.9,0.4-0.9,1.5c0,1.2,0.3,1.5,0.9,1.5c0.6,0,0.9-0.4,0.9-1.6C169.2,73.5,169,73,168.3,73z M171.4,76.6v-3.4
	c-0.2,0.1-0.6,0.4-0.8,0.5l-0.3-0.5c0.4-0.3,0.8-0.6,1.1-0.8h0.6v4.2C172,76.6,171.4,76.6,171.4,76.6z M173.2,76.6v-0.5
	c0.6-0.5,1.2-0.9,1.7-1.4c0.3-0.3,0.5-0.7,0.5-1c0-0.4-0.2-0.7-0.7-0.7c-0.3,0-0.7,0.1-1.1,0.3l-0.2-0.5c0.5-0.3,1-0.4,1.4-0.4
	c0.9,0,1.4,0.5,1.4,1.2c0,0.6-0.3,1.1-0.8,1.5c-0.3,0.3-0.7,0.6-1.2,0.9c0.5,0,1.4,0,2.1,0v0.6H173.2z M177,75.9
	c0.2,0.1,0.6,0.1,0.8,0.1c0.9,0,1.2-0.3,1.2-0.7c0-0.3-0.2-0.6-0.9-0.6c-0.1,0-0.3,0-0.5,0v-0.5c1,0,1.2-0.3,1.2-0.7
	c0-0.4-0.2-0.5-0.7-0.5c-0.3,0-0.7,0.1-1.1,0.3l-0.2-0.5c0.4-0.2,0.9-0.4,1.4-0.4c0.9,0,1.3,0.4,1.3,1c0,0.4-0.3,0.8-0.8,1
	c0.6,0.1,1,0.4,1,0.9c0,1-0.7,1.4-1.8,1.4c-0.3,0-0.9-0.1-1-0.2L177,75.9z M182.4,76.6v-1.1h-2v-0.4l2-2.7h0.7V75h0.6v0.6h-0.6v1.1
	L182.4,76.6L182.4,76.6z M182.4,73.1c-0.3,0.4-0.6,0.9-1.3,1.9h1.3C182.4,73.9,182.4,73.6,182.4,73.1z M184.4,75.9
	c0.1,0.1,0.5,0.1,0.9,0.1c0.8,0,1.1-0.3,1.1-0.8s-0.3-0.7-0.9-0.7c-0.3,0-0.6,0.1-0.9,0.1l0.2-2.2h2.2V73h-1.7l-0.1,1
	c0.2,0,0.4-0.1,0.6-0.1c0.9,0,1.4,0.5,1.4,1.2c0,1-0.7,1.5-1.8,1.5c-0.3,0-0.8-0.1-1-0.1V75.9z"/>
<g>
	<path class="st3" d="M115.4,114.1c0-0.2,0.1-0.1,0.1-0.1c0,0.1,0.1,0.1,0.1,0.2c0,0.1,0,0.2,0.1,0.3c0.1,0,0.2,0,0.3-0.1
		c0-0.1,0.1-0.1,0.1-0.2c0-0.1,0.1-0.1,0.1-0.2c0-0.1,0.1-0.1,0.1-0.2c0-0.1,0.1-0.1,0.1-0.2c0-0.1,0.1-0.2,0.1-0.2
		c0-0.1,0.1-0.2,0.1-0.2c0-0.1,0.1-0.1,0.1-0.2c0-0.1,0-0.2,0.1-0.2c0-0.1,0.1-0.1,0.1-0.2c0-0.1,0.1-0.2,0.1-0.2
		c0-0.1,0.1-0.2,0.1-0.2c0-0.1,0.1-0.2,0.1-0.2c0-0.1,0,0,0,0c0-0.1,0.1-0.4,0.2-0.4c0-0.1,0.1-0.2,0.1-0.2c0-0.1,0.1-0.2,0.1-0.2
		c0-0.1,0.1-0.2,0.1-0.2c0-0.1,0-0.2,0.1-0.2c0-0.1,0.1-0.2,0.1-0.2c0-0.1,0.1-0.2,0.1-0.2c0-0.1,0.1-0.2,0.1-0.2
		c0-0.1,0.1-0.2,0.1-0.2c0-0.1,0.1-0.2,0.1-0.2c0-0.1,0.1-0.2,0.1-0.3c0-0.1,0.1-0.1,0.1-0.2c0-0.1,0.1-0.1,0.2-0.2
		c0.1,0,0.1,0,0.2,0c0.1,0.1,0.1,0.1,0.2,0.2c0,0.1,0,0.2,0,0.3c0,0.1,0,0.2,0,0.3s0,0.2,0,0.3c0,0.1,0,0.2,0,0.3c0,0.1,0,0.2,0,0.3
		s0,0.2,0,0.3c0,0.1,0,0.2,0,0.3c0,0.1,0,0.2,0,0.3c0,0.1,0,0.2,0,0.3c0,0.1,0,0.2,0,0.3c0,0.1,0,0.2,0,0.3s0,0.2,0,0.3
		c0,0.1,0,0.2,0,0.3c0,0.1,0,0.2,0,0.3c0,0.1,0,0.2,0,0.2c0,0.1,0,0.3,0,0.5c0.1-0.1,0.2-0.3,0.2-0.3c0-0.1,0.1-0.2,0.1-0.2
		c0-0.1,0.1-0.2,0.1-0.2c0-0.1,0.1-0.1,0.1-0.2c0-0.1,0.1-0.2,0.1-0.2s0.1-0.1,0.1-0.2c0-0.1,0.1-0.2,0.1-0.2c0-0.1,0.1-0.2,0.1-0.2
		c0-0.1,0.1-0.1,0.1-0.2c0-0.1,0.1-0.2,0.1-0.2c0-0.1,0.1-0.1,0.1-0.2c0.1-0.1,0.1-0.1,0.2-0.1c0.1,0,0.2,0,0.2,0
		c0,0,0.1,0.1,0.1,0.2c0,0.1,0,0.2,0,0.4c0,0.1,0,0.2,0,0.2c0,0.1,0,0.2,0,0.2c0,0.1,0,0.2,0,0.2c0,0.1,0,0.2,0,0.2
		c0,0.1,0,0.2,0,0.2c0,0.1,0,0.2,0,0.2c0,0.1,0,0.2,0,0.2c0,0.1,0,0.2,0,0.2c0,0.1,0,0.2,0,0.2c0,0.1,0,0.2,0,0.3c0,0.1,0,0,0,0.1
		c0,0.1,0,0.4,0,0.5c0,0.1,0,0.2,0.1,0.3c0,0.1,0,0.2,0.1,0.3c0,0.1,0.1,0.2,0.1,0.3c0,0.1,0.1,0.2,0.2,0.2c0.1,0.1,0.1,0.1,0.2,0.2
		c0.1,0,0.2,0.1,0.3,0.1c0,0,0,0,0,0c0,0,0,0.1,0.1,0.1c0,0-0.1,0.1-0.1,0.1c-0.1,0-0.2-0.1-0.3-0.1c-0.1,0-0.2,0-0.3-0.1
		c-0.1,0-0.1-0.1-0.2-0.2c-0.1-0.1-0.1-0.1-0.2-0.2c0-0.1-0.2-0.3-0.2-0.4c0-0.1,0,0,0-0.1c0-0.1-0.1-0.2-0.1-0.2
		c0-0.1,0-0.2-0.1-0.3c0-0.1,0-0.2,0-0.3c0-0.1-0.1-0.2-0.1-0.3c0-0.1,0-0.2,0-0.3c0-0.1,0-0.2,0-0.3c0-0.1,0-0.4,0-0.5
		c0-0.1,0,0,0-0.1c0-0.1,0-0.2,0-0.3c0-0.1,0-0.2,0-0.3c0-0.1,0-0.2,0.1-0.2c0-0.1,0-0.2,0-0.2c0-0.1,0-0.2,0-0.2
		c0,0.1-0.1,0.1-0.1,0.2c0,0.1-0.1,0.2-0.1,0.2c0,0.1-0.1,0.1-0.2,0.2c0,0.1-0.1,0.2-0.1,0.2c0,0.1-0.1,0.2-0.1,0.2
		c0,0.1-0.1,0.1-0.2,0.2s-0.1,0.2-0.1,0.2s-0.1,0.1-0.1,0.2s-0.1,0.1-0.1,0.2s-0.1,0.2-0.1,0.2c0,0.1-0.1,0.1-0.1,0.2
		c-0.1,0.1-0.1,0.2-0.2,0.2c-0.1,0.1-0.2,0.1-0.3,0c-0.1,0-0.1-0.1-0.1-0.2c0-0.1,0-0.1,0-0.1c0-0.1,0-0.1,0-0.2c0-0.1,0-0.2,0-0.3
		c0-0.1,0-0.2,0-0.3c0-0.1,0-0.2,0-0.3c0-0.1,0-0.2,0-0.3c0-0.1,0-0.2,0-0.3c0-0.1,0-0.2,0-0.3c0-0.1,0-0.2,0-0.3c0-0.1,0-0.2,0-0.3
		c0-0.1,0-0.2,0-0.3c0-0.1,0-0.2,0-0.3c0-0.1,0-0.2,0-0.3s0-0.2,0-0.3s0-0.2,0-0.3c0,0,0,0.1-0.1,0.1c0,0.1,0,0.2-0.1,0.3
		c0,0.1-0.1,0.2-0.1,0.2c0,0.1-0.1,0.2-0.1,0.2c0,0.1-0.1,0.2-0.1,0.3c0,0.1-0.1,0.2-0.1,0.2c0,0.1-0.1,0.2-0.1,0.2
		c0,0.1-0.1,0.2-0.1,0.2c0,0.1-0.1,0.2-0.1,0.2c0,0.1-0.1,0.2-0.1,0.3c0,0.1-0.1,0.2-0.1,0.2c0,0.1-0.1,0.2-0.1,0.2
		c0,0.1-0.1,0.2-0.1,0.2c0,0.1-0.1,0.2-0.1,0.2c0,0.1-0.1,0.2-0.1,0.2c0,0.1-0.1,0.2-0.1,0.2c0,0.1-0.1,0.1-0.1,0.2c0,0.1,0-0.1,0,0
		c0,0.1-0.2,0.3-0.2,0.4c0,0.1-0.1,0.1-0.1,0.2c0,0.1-0.1,0.1-0.1,0.2c0,0.1-0.1,0.1-0.1,0.2c-0.1,0.1-0.1,0.1-0.2,0.1
		c-0.1,0.1-0.2,0.1-0.3,0.1c-0.1,0-0.2,0-0.3-0.1c-0.1-0.1-0.1-0.1-0.1-0.3c0,0,0-0.1,0-0.1C115.4,114.2,115.4,114.1,115.4,114.1z"
		/>
	<path class="st3" d="M125.1,113.2c0,0-0.1,0.1-0.1,0.1c0,0-0.1,0.1-0.1,0.1c0,0-0.1,0.1-0.1,0.1l-0.1,0.1l-0.2,0.2
		c-0.1,0.1-0.2,0.1-0.3,0.2c-0.1,0-0.1,0-0.1,0c0,0-0.1,0-0.1,0c0,0-0.1,0-0.1,0c0,0-0.1,0-0.2,0c0,0-0.1,0-0.1,0c0,0,0,0-0.1-0.1
		c-0.1-0.1-0.1-0.1-0.2-0.2c-0.1-0.1,0-0.1-0.1-0.1c0,0,0,0,0,0c-0.1,0-0.1,0.1-0.1,0.1c0,0,0,0,0,0.1c-0.1,0.1-0.3,0.2-0.4,0.3
		c-0.2,0.1-0.3,0.1-0.5,0c0,0,0,0-0.1,0c0,0-0.1-0.1-0.2-0.1c-0.1-0.1-0.1-0.2-0.1-0.4c0-0.1,0-0.1,0.1-0.2c0,0,0,0,0,0
		c0-0.1,0-0.1,0.1-0.2l0.1-0.1c0,0,0.1-0.1,0.1-0.1c0.1-0.2,0.2-0.3,0.4-0.4c0.1-0.1,0.3-0.2,0.5-0.3c0.2,0,0.4,0.1,0.5,0.3
		c0,0.1,0,0.2-0.1,0.3c0.1,0,0.1-0.1,0.3-0.1c0.1,0,0.1,0.1,0.1,0.1c0,0,0,0.1,0,0.2c0,0,0,0,0,0c0,0.1,0,0.3,0,0.4
		c0,0,0,0.1,0.1,0.1c0,0,0,0,0.1,0c0,0,0.1,0,0.1,0c0.2-0.1,0.3-0.2,0.4-0.3c0.1-0.1,0.3-0.2,0.4-0.3c0.2-0.1,0.2-0.1,0.4-0.3
		c0.1-0.1,0.1-0.1,0.2-0.2l0,0l0,0.1C125.4,113,125.2,113.1,125.1,113.2z M123.2,113.1L123.2,113.1c-0.2,0-0.1-0.5-0.1-0.5
		c-0.3,0-0.6,0.5-0.7,0.7c-0.1,0.2-0.2,0.3-0.2,0.5c0.1,0,0.3,0,0.4,0c0.1,0,0.2-0.1,0.3-0.2C122.9,113.4,123,113.3,123.2,113.1
		C123.1,113.1,123.2,113.1,123.2,113.1z"/>
	<path class="st3" d="M127.7,108.7c0,0,0,0.1,0,0.2l0,0.1c0,0,0,0,0,0c0,0,0,0.2-0.1,0.3c-0.2,0.4-0.4,0.9-0.7,1.3l-0.1,0.1v0
		c0,0.1-0.1,0.1-0.1,0.2c0,0,0,0,0,0.1c0,0-0.1,0.1-0.1,0.1l-0.1,0.1c0,0,0,0,0,0c0,0,0,0,0,0c-0.1,0.1-0.1,0.1-0.2,0.2
		c-0.1,0.1-0.2,0.2-0.2,0.3c-0.1,0.1-0.2,0.2-0.3,0.3c0,0,0,0-0.1,0c0,0.1-0.1,0.1-0.1,0.2c0,0-0.1,0.5-0.1,0.6l0,0.1c0,0,0,0,0,0
		c0,0,0.1-0.1,0.2-0.2c0.1-0.1,0.2-0.2,0.4-0.3c0.1-0.1,0.2-0.1,0.4-0.1c0.1,0,0.1,0,0.2,0c0,0,0,0,0.3,0.2c0,0,0,0.1,0,0.1
		c0,0.1,0,0.2,0,0.2c0,0.1,0,0.2-0.1,0.3c-0.1,0.1-0.1,0.1-0.2,0.2c-0.1,0.1-0.2,0.2-0.3,0.2l-0.2,0.1c0,0.2,0.1,0.4,0.1,0.5
		c0,0,0,0,0,0c0.2,0,0.2,0,0.4-0.1c0.2-0.1,0.5-0.3,0.6-0.4c0.2-0.1,0.2-0.2,0.3-0.3l0.1,0.1c0,0.1,0,0.1-0.1,0.1
		c0,0.1-0.1,0.2-0.2,0.3c-0.1,0.1-0.2,0.3-0.4,0.4c-0.1,0-0.1,0.1-0.2,0.1c-0.1,0-0.1,0.1-0.2,0.1c-0.1,0-0.2,0-0.3,0c0,0,0,0-0.1,0
		c-0.1,0-0.2,0-0.2-0.1c-0.1,0-0.1-0.1-0.2-0.1c0-0.1-0.1-0.1-0.1-0.2c-0.1-0.2-0.1-0.4-0.1-0.6l0.3-0.1c0.2-0.1,0.4-0.2,0.5-0.4
		c0.1-0.1,0.1-0.2,0-0.3c-0.1,0-0.2,0-0.3,0.1c-0.1,0.1-0.2,0.1-0.4,0.3c-0.1,0.1-0.1,0.1-0.2,0.2l-0.1,0.1l-0.1,0.1
		c0,0,0,0.3-0.1,0.3c0,0.1,0,0.1,0,0.2c0,0,0,0.1,0,0.1l0,0.1l0,0l0,0.1c0,0.1,0,0.1,0,0.2c0,0.1-0.1,0.1-0.1,0c0,0,0,0-0.1,0l0-0.1
		l-0.1-0.1c0,0,0,0,0-0.1l0-0.2c0-0.1,0-0.1,0-0.2l0-0.2c0-0.1,0-0.2,0.1-0.3c0-0.1,0-0.2,0-0.3l0.1-0.5v0c-0.1,0-0.3,0.2-0.3,0.2
		c0,0-0.1,0-0.1,0c0,0,0-0.3,0-0.3c0.2-0.1,0.4-0.3,0.5-0.4c0-0.2,0.1-0.4,0.1-0.6c0.1-0.2,0.1-0.4,0.2-0.6c0.1-0.2,0.1-0.5,0.2-0.7
		c0.1-0.2,0.2-0.4,0.3-0.6c0-0.1,0.1-0.1,0.1-0.2c0-0.1,0.1-0.1,0.1-0.2c0.1-0.1,0.1-0.2,0.2-0.4c0,0,0.1-0.1,0.1-0.1
		c0-0.1,0.1-0.1,0.1-0.2c0,0,0,0,0-0.1c0,0,0,0,0,0c0-0.1,0.1-0.1,0.2-0.2c0.1,0,0.1-0.1,0.2-0.1c0.1,0,0.1,0,0.2,0
		c0.1,0,0.2,0.2,0.3,0.2c0,0.1,0,0.2,0,0.3c0,0,0,0.1,0,0.1C127.8,108.6,127.8,108.7,127.7,108.7z M127.3,108.3c0,0-0.1,0-0.1,0.1
		c-0.1,0.1-0.1,0.1-0.2,0.2c-0.1,0.1-0.2,0.2-0.3,0.4c-0.1,0.1-0.1,0.3-0.2,0.4c0,0.1-0.1,0.2-0.2,0.4l0,0c0,0.1-0.1,0.1-0.1,0.2
		c-0.1,0.1-0.1,0.2-0.1,0.4c-0.1,0.3-0.2,0.4-0.2,0.7c-0.1,0.3-0.1,0.4-0.2,0.6l0-0.1c0.1-0.1,0.2-0.2,0.3-0.4
		c0.1-0.1,0.2-0.2,0.3-0.3c0,0,0.1-0.1,0.1-0.2c0.1-0.2,0.2-0.3,0.3-0.4v0c0.1-0.2,0.2-0.3,0.2-0.4c0.1-0.1,0.1-0.3,0.2-0.4
		c0-0.1,0.1-0.3,0.2-0.5c0-0.1,0-0.1,0.1-0.2C127.4,108.4,127.4,108.4,127.3,108.3z"/>
	<path class="st3" d="M129.7,113.1c0,0-0.2,0.4-0.3,0.4c0,0-0.1,0.1-0.2,0.3l-0.1,0.2c0,0,0,0,0,0.1l0,0c-0.1,0-0.1,0.1-0.2,0.2
		c0,0-0.1,0.1-0.1,0.1c0,0-0.1,0-0.2,0.1c-0.1,0-0.1,0.1-0.2,0.1c-0.1,0-0.1,0-0.2,0c-0.1,0-0.1-0.1-0.2-0.2c0,0,0,0,0-0.1
		c0,0,0-0.1,0-0.1c0,0,0-0.1,0-0.1c0-0.2,0-0.4,0.1-0.5c0-0.1,0.1-0.3,0.1-0.4c0-0.2,0.1-0.3,0.1-0.5v-0.1c0,0,0-0.1,0-0.1
		c0,0,0.1,0,0.1,0c0,0,0.1,0.1,0.1,0.1c0,0,0.1,0.1,0.1,0.1c0,0,0,0.1,0,0.1c0,0.1,0,0.1,0,0.2c0,0.1-0.1,0.2-0.1,0.4
		c0,0,0,0.1,0,0.1c0,0,0,0,0,0c0,0.1,0,0.2,0,0.3c0,0.1,0,0.2,0,0.3c0.1,0,0.2-0.1,0.3-0.1c0.2-0.1,0.3-0.3,0.5-0.4
		c0.2-0.1,0.3-0.3,0.4-0.4c0.1-0.1,0.2-0.2,0.4-0.3C129.8,112.9,129.8,113,129.7,113.1L129.7,113.1z M128.3,111.9
		c-0.1-0.1-0.1-0.1-0.1-0.2c0-0.1,0.2-0.2,0.3-0.3c0,0,0,0,0,0c0.1,0,0.2,0,0.2,0.1c0,0.1,0.1,0.2,0,0.3c0,0.1-0.1,0.2-0.2,0.2
		c0,0-0.1,0-0.2,0C128.4,112,128.3,112,128.3,111.9z"/>
	<path class="st3" d="M129.5,114.4c0-0.2,0-0.3,0.1-0.5c0-0.2,0.1-0.3,0.1-0.5c0-0.1,0-0.2,0.1-0.3c0,0,0,0,0,0c0,0,0-0.1,0-0.1
		c0-0.1,0-0.1,0.1-0.1c0.1,0,0.2,0.1,0.3,0.2c0,0,0,0,0,0c0,0.1,0,0.1,0,0.2c0,0.1,0,0.1,0,0.2c0,0.1,0,0.1-0.1,0.2c0,0,0,0,0,0
		c0,0,0,0,0,0c0.1-0.1,0.2-0.3,0.3-0.4c0.1-0.1,0.1-0.1,0.2-0.2c0,0,0.1,0,0.2,0c0.1,0,0.1,0,0.1,0c0,0,0,0,0.2,0.1c0,0,0,0.1,0,0.1
		c0,0,0,0,0,0.1c0,0.1,0,0.2,0.1,0.3c0,0.1,0,0.2,0,0.2c0,0,0,0,0,0.1c0,0.1,0,0.1,0,0.2l0,0.1c0,0,0,0,0,0.1h0c0,0,0,0,0.2-0.1
		c0.1,0,0.1,0,0.2-0.1l0.9-0.9c0.1,0,0.1,0,0,0.1l-0.1,0.1c0,0,0,0.1,0,0.1c0,0-0.1,0.1-0.1,0.1l-0.2,0.2c0,0,0,0-0.1,0.1
		c0,0,0,0,0,0c0,0,0,0,0,0c0,0.1-0.1,0.1-0.2,0.2c-0.1,0.1-0.1,0.1-0.2,0.2c-0.1,0.1-0.3,0.1-0.4,0.1h0c-0.1,0-0.1,0-0.1-0.1
		c-0.1-0.1-0.2-0.2-0.2-0.3c0-0.2-0.1-0.4-0.1-0.6c0,0,0-0.1,0-0.2c0,0,0,0,0-0.1c0,0.1-0.1,0.1-0.1,0.1c0,0.1-0.1,0.1-0.1,0.2
		c0,0.1-0.1,0.1-0.1,0.1c0,0-0.1,0.1,0,0.1l0,0.1c0,0-0.2,0.4-0.2,0.5c0,0-0.1,0.1-0.1,0.1l0,0.1c0,0,0,0,0,0c0,0.1-0.1,0.1-0.2,0.1
		C129.6,114.6,129.5,114.5,129.5,114.4z"/>
	<path class="st3" d="M134.7,115.1l-0.8,0.2c0,0,0,0,0,0c-0.1,0-0.1,0-0.1,0.1c0,0,0,0,0,0c0,0,0,0.1,0,0.1l-0.1,0
		c0,0,0.1,0.1,0,0.1c0,0.1,0,0.1,0,0.1c0,0.1,0,0.1-0.1,0.1c0,0,0,0,0,0c0,0.1,0,0.1,0,0.1c0,0,0,0.1,0,0.1l0,0.1c0,0.1,0,0.1,0,0.1
		l0,0.1c0,0,0,0,0.1,0c0,0.1,0,0.2-0.1,0.2c0,0,0,0.1,0,0.2c0,0.1,0,0,0,0.1c0,0,0,0.1,0,0.1c0,0,0,0,0,0.1c0,0,0,0,0,0
		c0,0,0,0.1,0,0.1l-0.2,0.4c0,0,0,0,0,0l-0.1,0c0,0,0,0.1,0,0.1l0,0c0,0,0,0,0,0c0,0-0.1,0.2-0.1,0.2c0,0.1-0.1,0.1-0.1,0.1
		c0,0,0,0.1-0.1,0.1c0,0,0,0,0,0.1c0,0.1-0.1,0-0.1,0c0,0,0,0,0.1,0c0,0-0.1,0-0.1,0c0,0.1-0.1,0.1-0.1,0.2l0.1,0
		c0,0-0.1,0.1-0.1,0.1c0,0,0,0,0,0c0,0-0.1,0.1-0.1,0.1c0,0,0,0,0,0h0c0,0,0,0,0,0c-0.1,0.1-0.2,0.2-0.3,0.3c0,0.1,0,0.1-0.1,0.1
		c-0.1,0.1-0.1,0.1-0.2,0.2c0,0,0,0,0,0c-0.1,0-0.2,0.1-0.3,0.1c0,0,0,0.1-0.1,0.1c0,0-0.1,0.1-0.2,0.1c-0.1,0-0.2,0-0.4,0
		c0,0-0.1,0-0.1,0c-0.2,0-0.3-0.1-0.4-0.2c-0.1,0-0.2-0.1-0.3-0.3c0,0-0.1,0-0.1-0.1c0-0.1-0.1-0.2-0.1-0.3c0,0,0-0.1,0-0.1
		c0-0.1,0-0.1,0-0.2c0-0.2,0-0.3,0.1-0.5c0-0.1,0-0.3,0.1-0.4c0,0,0,0,0,0l0.1-0.2l0.1-0.1c0.1-0.2,0.2-0.3,0.3-0.5
		c0.1-0.1,0.2-0.3,0.3-0.5l0.2-0.2c0,0,0.1-0.1,0.2-0.2c0,0,0.1-0.1,0.2-0.2c0.2-0.1,0.3-0.2,0.5-0.3c0.1-0.1,0.3-0.2,0.4-0.3
		l0.4-0.2c0.1-0.1,0.3-0.1,0.4-0.2l0,0c0.1,0,0.2-0.1,0.1-0.2c0,0,0,0,0,0c0,0,0-0.1,0-0.1c0-0.2,0-0.3,0-0.4l0,0
		c0-0.2,0.1-0.4,0.1-0.6c0,0,0,0,0,0l-0.1,0c0,0,0,0,0,0.1c0,0,0,0.1-0.1,0.1c0,0-0.1,0.1-0.3,0.3v0c-0.2,0-0.2,0.1-0.3,0.1
		c0,0-0.1,0-0.2,0c-0.1,0-0.1,0-0.2,0l-0.2-0.1c0,0,0-0.1-0.1-0.1c0,0,0-0.1-0.1-0.1c-0.1-0.1-0.1-0.2-0.1-0.3c-0.1-0.2,0-0.3,0-0.5
		c0-0.1,0.1-0.1,0.1-0.2c0,0,0-0.1,0.1-0.2c0,0,0,0,0,0c0.1-0.1,0.1-0.3,0.3-0.4c0.1,0,0.2-0.2,0.3-0.2c0.1,0,0.2-0.1,0.3,0
		c0,0,0.1,0,0.2,0c0.1,0,0.2,0.1,0.2,0.1c0.1,0.1,0.2,0.1,0.2,0.2l0.1,0.1c0.1,0,0.1-0.2,0.2-0.2l0.1,0c0.1,0,0.1,0,0.2,0l0,0.2
		c0,0.1,0,0.2-0.1,0.2c0,0.1,0,0.1,0,0.2c-0.1,0.3-0.1,0.6-0.2,0.9c0,0.1,0,0.3-0.1,0.4c0,0.1,0,0.2,0,0.3c0,0,0,0,0,0
		c0.1,0,0.2,0,0.4,0c0.1,0,0.2,0,0.3,0C134.6,114.9,134.7,115,134.7,115.1z M133.3,115.5c-0.1,0-0.1,0.1-0.2,0.1
		c-0.2,0.1-0.5,0.2-0.7,0.3c-0.1,0.1-0.3,0.2-0.4,0.3c-0.1,0.1-0.2,0.1-0.4,0.2c0,0.1-0.1,0.1-0.2,0.2c-0.1,0-0.1,0.1-0.1,0.1
		c-0.1,0.1-0.1,0.1-0.2,0.2c-0.1,0-0.1,0.1-0.2,0.2c0,0-0.2,0.3-0.2,0.4l-0.2,0.3c0,0-0.1,0.2-0.1,0.2c0,0,0,0.1-0.1,0.1
		c0,0.1,0,0.2-0.1,0.2c0,0.1-0.1,0.3-0.1,0.4c0,0.2,0,0.4,0,0.5c0,0.2,0.1,0.3,0.3,0.4l0,0c0,0,0,0,0,0c0.1,0,0.3,0.1,0.4,0
		c0.1,0,0.1-0.1,0.2-0.1c0.2,0,0.3-0.2,0.4-0.3c0.1-0.1,0.2-0.2,0.3-0.4c0.2-0.2,0.3-0.4,0.4-0.6c0.1-0.2,0.2-0.4,0.3-0.6
		c0.1-0.2,0.1-0.3,0.2-0.5c0.1-0.2,0.2-0.5,0.2-0.7c0-0.2,0.1-0.4,0.1-0.5c0-0.1,0.1-0.2,0.1-0.3v0
		C133.2,115.8,133.3,115.6,133.3,115.5z M133.5,113.2C133.4,113.2,133.4,113.1,133.5,113.2c-0.1-0.1-0.1-0.2-0.1-0.2
		c0-0.1,0-0.2-0.1-0.3c0,0-0.1,0-0.1,0c-0.1,0-0.3,0-0.4,0.2c-0.1,0.1-0.2,0.1-0.2,0.2c0,0,0,0-0.1,0.1l0,0c0,0.1-0.1,0.1-0.2,0.2
		c-0.1,0.1-0.1,0.2-0.1,0.3c0,0.1-0.1,0.2,0,0.3c0,0,0.1,0,0.1,0c0.1,0,0.3-0.1,0.4-0.1l0.3-0.2h0c0-0.1,0.1-0.1,0.2-0.1
		c0,0,0,0,0.1,0c0-0.1,0.1-0.1,0.2-0.2C133.4,113.3,133.4,113.3,133.5,113.2C133.5,113.3,133.5,113.2,133.5,113.2z"/>
	<path class="st3" d="M138,114.1c-0.1-0.1-0.1-0.2-0.1-0.4c0-0.2,0-0.4,0.1-0.6c0-0.2,0.1-0.3,0.1-0.4c0-0.2-0.1-0.1-0.2,0
		c-0.2,0.1-0.2,0.1-0.3,0.2c-0.1,0.1-0.2,0.1-0.2,0.2c0,0.1,0,0.1-0.1,0.2c0,0.1-0.1,0.4-0.1,0.5c0,0.1,0,0.1-0.1,0.1
		c-0.1,0-0.2,0-0.3-0.1c0-0.1,0-0.4,0.1-0.5c0.1-0.3,0.3-1.5,0.3-1.5c0,0,0-0.1,0-0.1l0,0c-0.1,0-0.3,0.2-0.4,0.2c0,0-0.1,0-0.1,0
		c0,0,0-0.3,0-0.3c0.2-0.1,0.4-0.3,0.6-0.4c0-0.1,0,0,0-0.1v0c0.1-0.3,0.2-0.5,0.2-0.8c0.1-0.3,0.2-0.5,0.3-0.8
		c0-0.1,0.1-0.2,0.1-0.3c0,0,0-0.1,0.1-0.1c-0.1,0-0.1,0,0-0.1c0-0.1,0.1-0.2,0.2-0.3c0.1-0.1,0.1-0.3,0.2-0.4
		c0-0.1,0.1-0.1,0.1-0.2c0,0,0-0.1,0-0.1c0,0,0.1,0,0.1,0c0.1-0.1,0.1-0.2,0.2-0.3c0,0,0,0-0.1,0c0.1,0,0.1,0,0.1-0.1h0l0.1-0.2
		c0,0,0.1-0.1,0.2-0.1c0.1-0.2,0.3-0.3,0.5-0.4c0.2-0.1,0.3,0,0.4,0c0.1,0,0.2,0.2,0.1,0.3c0,0,0,0.1,0,0.1c0,0,0,0,0,0
		c0,0.1-0.1,0.2-0.1,0.3c0,0,0,0,0,0.1v0c-0.1,0.1-0.1,0.2-0.1,0.3c0,0.1,0,0.2-0.1,0.2c-0.1,0.1-0.1,0.2-0.2,0.3
		c-0.1,0.1-0.2,0.3-0.3,0.4c-0.1,0.1-0.2,0.3-0.3,0.4c-0.1,0.2-0.2,0.3-0.3,0.4c-0.1,0.2-0.3,0.4-0.4,0.6c-0.1,0.1-0.1,0.2-0.2,0.2
		c-0.1,0.1-0.1,0.1-0.2,0.2c-0.1,0.2-0.3,0.3-0.4,0.5c0,0-0.1,0.1-0.1,0.1c0,0.1,0,0.1,0,0.2c0,0-0.1,0.3-0.1,0.4
		c-0.1,0.3-0.1,0.3-0.1,0.5c0.1-0.1,0.1-0.1,0.2-0.2c0.1-0.1,0.2-0.1,0.3-0.2c0.1,0,0.2,0,0.2,0c0.1,0,0.2,0,0.3,0.1
		c0,0,0.1,0.1,0.1,0.2c0,0.1,0,0.2,0,0.3c0,0.2-0.1,0.3-0.1,0.5c0,0.1-0.1,0.3-0.1,0.4c0,0.1,0,0.2,0.1,0.2c0.1,0,0.3,0,0.4-0.1
		c0.1-0.1,0.4-0.3,0.5-0.4c0.3-0.2,0.4-0.4,0.6-0.6l0.1-0.1c0,0,0,0,0,0l-0.1,0.2c0,0,0,0,0,0c0,0.1-0.1,0.1-0.1,0.2l0,0
		c-0.1,0.1-0.1,0.2-0.2,0.3c-0.1,0.1-0.1,0.1-0.2,0.2c-0.1,0.1-0.2,0.2-0.5,0.4l-0.2,0.1C138.5,114.4,138.1,114.4,138,114.1z
		 M138.5,110.3c0.2-0.2,0.3-0.4,0.5-0.7c0.1-0.2,0.2-0.3,0.4-0.5c0-0.1,0.2-0.2,0.2-0.3c0,0,0-0.1,0-0.1c0,0,0.1-0.1,0.1-0.1
		c0.1,0,0,0,0.1-0.1c0,0,0-0.1,0-0.1c0,0,0.1-0.1,0.1-0.1c0,0,0,0,0,0c0,0,0,0,0,0c0,0,0.1-0.1,0.1-0.2c0.2-0.2,0.3-0.6,0.2-0.8
		c0,0,0,0,0,0c-0.2,0.1-0.4,0.3-0.6,0.5l-0.2,0.2c0,0-0.1,0-0.1,0.1c-0.1,0.1-0.1,0.1-0.1,0.2c-0.1,0.1-0.2,0.2-0.2,0.3
		c-0.1,0.1-0.1,0.2-0.2,0.3c0,0-0.1,0-0.1,0.1c0,0.1-0.1,0.2-0.1,0.3c0,0-0.1,0.1-0.1,0.2c0,0.1-0.1,0.1-0.1,0.2c0,0-0.1,0.1,0,0.1
		c0,0.1-0.1,0.1-0.1,0.2c0,0,0,0,0,0c0,0,0,0.1,0,0.1c-0.1,0,0,0.2-0.1,0.2c0,0.1-0.1,0.2-0.1,0.3c0,0.1-0.1,0.2-0.1,0.2
		c0,0,0,0.1,0,0.1c0,0,0,0,0,0C138.1,110.7,138.3,110.5,138.5,110.3z"/>
	<path class="st3" d="M142.5,112.8L142.5,112.8c-0.1,0.2-0.2,0.3-0.3,0.3c0,0,0,0.1-0.1,0.1h-0.1c0,0,0,0,0,0c0,0.1-0.1,0.1-0.1,0.1
		l-0.1,0.1c-0.1,0-0.2,0.1-0.3,0.1c0,0,0,0-0.1,0c0,0-0.1,0-0.1,0.1c0,0,0,0.1,0,0.1l0,0v0c0,0,0,0.1-0.1,0.1c0,0,0,0,0,0.1
		c-0.1,0.1-0.1,0.2-0.2,0.3l0,0c0,0-0.1,0.1-0.1,0.1c0,0-0.1,0-0.1,0c-0.1,0-0.1,0.1-0.2,0.1c0,0-0.1,0-0.1,0c-0.1,0-0.2,0-0.3,0
		c-0.1,0-0.2-0.1-0.3-0.2c-0.1-0.1-0.1-0.3-0.1-0.5c0-0.2,0.1-0.4,0.1-0.6c0-0.1,0-0.2,0-0.2c0.1-0.1,0.1-0.2,0.2-0.3
		c0.1-0.1,0.2-0.2,0.3-0.2c0.1,0,0.2,0,0.3,0c0,0,0.1,0,0.1,0.1c0,0,0,0,0,0c0.1,0,0.2,0,0.4,0.1c0,0,0,0,0.1,0
		c0.1,0,0.1,0.1,0.1,0.2l0.1,0.2c0,0,0,0,0,0c0.2-0.1,0.4-0.1,0.5-0.2C142.1,112.9,142.2,112.9,142.5,112.8L142.5,112.8z M141,113.4
		c0,0-0.1,0-0.2,0c-0.1,0-0.2-0.1-0.3-0.1c-0.1,0-0.1-0.1-0.1-0.1c0,0,0-0.1,0-0.1c0,0.1-0.1,0.2-0.1,0.3c0,0,0,0.1-0.1,0.1
		c0,0.1,0,0.1,0,0.2c0,0.1,0,0.2,0,0.3c0,0.1,0,0.1,0,0.2c0,0.1,0.1,0.1,0.3,0.1c0.1,0,0.3-0.1,0.4-0.2c0.1-0.1,0.1-0.1,0.2-0.2
		C140.9,113.7,140.9,113.6,141,113.4C141,113.5,141,113.5,141,113.4z M141.1,113.1c0-0.1,0-0.2-0.1-0.3c0,0,0,0-0.1,0
		c-0.1,0-0.1,0-0.1,0c-0.1,0-0.1,0.1-0.1,0.2c0,0,0,0.1,0,0.2c0,0,0,0.1,0.1,0.1h0.3C141.1,113.2,141.1,113.1,141.1,113.1z"/>
	<path class="st3" d="M144.8,114.6c-0.1,0-0.2-0.2-0.2-0.3c0-0.1-0.1-0.2-0.1-0.4c0-0.1,0-0.3,0-0.4l0-0.2c0,0-0.1,0-0.1,0
		c0,0,0,0,0,0c-0.1,0.1-0.3,0.2-0.4,0.4c-0.1,0.1-0.2,0.1-0.2,0.2l-0.1,0.1c0,0-0.1,0-0.1,0l-0.1,0c0,0-0.1,0-0.1,0c0,0,0,0,0,0
		c0,0,0,0,0-0.1l-0.1-0.2c0-0.1,0.1-0.4,0.1-0.6c0,0,0,0,0-0.1c-0.1,0.1-0.2,0.3-0.3,0.3l-0.1,0.2l-0.1,0.1
		c-0.1,0.1-0.2,0.3-0.3,0.4c0,0-0.1,0.1-0.1,0.1c0,0,0,0,0,0.1l-0.1,0.1l-0.1-0.1c-0.1-0.1-0.1-0.2-0.1-0.3c0-0.3,0.1-0.7,0.2-1
		c0-0.2,0.1-0.4,0.1-0.6c0,0,0-0.1,0-0.1c0,0,0-0.1,0-0.1c0.1,0,0.1,0,0.2,0c0.1,0,0.1,0,0.1,0.1c0,0.1,0,0.2,0,0.3
		c0,0.1,0,0.3-0.1,0.4c0,0.1-0.1,0.4-0.1,0.5c0,0,0,0,0.1,0c0-0.1,0.1-0.1,0.2-0.3c0.1-0.1,0.2-0.3,0.3-0.4c0.1-0.1,0.1-0.1,0.2-0.2
		c0,0,0.1,0,0.1,0c0.1,0.1,0.1,0.1,0.2,0.1c0,0,0.1,0,0.1,0c0,0.1,0,0.1,0,0.2c0,0,0,0.1,0,0.1c0,0.1,0,0.2,0,0.3
		c0,0.1,0,0.3-0.1,0.4c0.1-0.1,0.3-0.3,0.4-0.4c0.1,0,0.1-0.1,0.2-0.1c0,0,0.1,0,0.2-0.1c0,0,0.1,0,0.1,0c0.1,0,0.1,0.1,0.2,0.1
		l0.1,0.1c0.1,0,0.1,0.1,0.1,0.2c0,0,0,0.1,0,0.1v0c0,0.1,0,0.1,0,0.2c0,0.1,0,0.2,0,0.3c0,0.1,0,0.1,0.1,0.3
		c0.1,0.1,0.1,0.2,0.3,0.1c0,0,0.1,0,0,0.1c0,0,0,0,0,0c0,0,0,0-0.1,0.1C145.1,114.7,144.9,114.7,144.8,114.6z"/>
	<path class="st3" d="M147.7,113.3C147.7,113.4,147.7,113.4,147.7,113.3l-0.1,0.1c0,0-0.1,0,0,0.1c0,0-0.1,0-0.1,0.1v0
		c0,0,0,0.1-0.1,0.1c0,0-0.1,0.1-0.1,0.1l-0.2,0.1c-0.1,0-0.1,0.1-0.2,0.1c-0.1,0-0.2,0.1-0.3,0.2c-0.1,0-0.1,0-0.2,0
		c0,0-0.1,0-0.1,0c0,0-0.1,0-0.1,0c-0.1,0-0.1,0-0.2,0c-0.1,0-0.2,0-0.3-0.1s-0.1,0-0.2-0.1c0,0,0,0,0,0c-0.1,0-0.1-0.1-0.2-0.2
		c0,0,0,0,0-0.1c0-0.1,0-0.2,0-0.3c0-0.2,0.1-0.4,0.2-0.6c0-0.1,0.1-0.1,0.1-0.2c0.1-0.1,0.2-0.2,0.3-0.3c0.1-0.1,0.2-0.1,0.3-0.2
		c0,0,0.1,0,0.1,0c0.1,0,0.2,0,0.3,0.1c0.1,0,0.2,0.1,0.2,0.2c0.1,0,0.1,0.2,0.1,0.3c0,0,0,0.1-0.1,0.1c-0.1,0.1-0.2,0.2-0.3,0.3
		c0,0-0.1,0-0.1,0.1c0,0.1-0.1,0.1-0.1,0.1l-0.1,0.1c0,0,0,0,0,0c-0.1,0-0.1,0.1-0.2,0.1c0,0,0,0-0.1,0.1c-0.1,0-0.1,0-0.2,0.1
		c0,0.1,0.1,0.1,0.1,0.2c0.1,0,0.3,0,0.4,0c0.1,0,0.2,0,0.3-0.1c0.1,0,0.1-0.1,0.2-0.1c0,0,0.1,0,0.1,0l0.3-0.2l0,0
		c0.1-0.1,0.3-0.2,0.4-0.2c0,0,0.1,0,0.1-0.1l0.3-0.2l0,0.1c0,0,0,0,0,0c0,0,0,0-0.1,0.1L147.7,113.3z M145.6,113.5
		c0.1,0,0.1-0.1,0.2-0.1l0.3-0.2l0.3-0.2c0.1,0,0.1-0.1,0.1-0.2c0,0,0-0.1-0.1-0.1c-0.1,0-0.2,0-0.3,0.1c-0.1,0.1-0.2,0.1-0.2,0.2
		c-0.1,0.1-0.1,0.2-0.2,0.3C145.7,113.3,145.6,113.4,145.6,113.5z"/>
	<path class="st3" d="M149,112.6L149,112.6L149,112.6L149,112.6L149,112.6l-0.1,0c0,0-0.1-0.1-0.2-0.1h-0.1c-0.1,0-0.1,0-0.1,0
		c0,0,0,0-0.1,0.1c0,0-0.1,0-0.1,0.1c0,0.1,0,0.1,0,0.2c0,0.1,0,0.2,0,0.2c0,0,0,0.1,0,0.1s0,0,0,0v0.1l0,0.1l0,0l0,0.1l0,0
		c0,0,0,0,0,0c0,0,0,0.1,0,0.1c0,0.1,0,0.1,0.1,0.2l0,0.1c0,0,0,0.1,0,0.1c0,0,0,0,0,0.1c0,0,0,0,0,0c0,0.1,0,0.2,0,0.4
		c0,0,0,0,0,0.1c0,0,0,0.1,0,0.2c0,0,0,0.1-0.1,0.2c-0.1,0.1-0.2,0.2-0.2,0.2c0,0-0.1,0-0.1,0c0,0,0,0,0,0l-0.1,0
		c-0.1,0-0.1,0-0.2,0c-0.1,0-0.2,0-0.2,0c0,0-0.1,0-0.1-0.1c-0.1-0.1-0.2-0.1-0.2-0.2c-0.1-0.1-0.1-0.1-0.1-0.2
		c0-0.1-0.1-0.2-0.1-0.3v0c0,0,0,0,0,0l0-0.2c0.1-0.1,0.2-0.2,0.3-0.2c0.1-0.1,0.1,0,0.2-0.1v0l0,0l0,0.1l-0.1,0.1l-0.1,0.1
		c0,0.2,0,0.3,0,0.3c0,0,0,0,0,0.1c0,0.1,0.1,0.1,0.1,0.2c0,0,0.1,0,0.2,0c0.2,0,0.2-0.1,0.3-0.2c0-0.1,0.1-0.1,0.1-0.2
		c0-0.1,0-0.2,0-0.3c0-0.1,0-0.2-0.1-0.3l-0.1-0.4l0,0l-0.1-0.1l0-0.1l0,0l0,0c0-0.1,0-0.2-0.1-0.3c0,0,0-0.1,0-0.1l0-0.1
		c0,0,0-0.2,0-0.2c0-0.1,0-0.2,0-0.2c0,0,0.1-0.1,0.1-0.2c0,0,0,0,0.1-0.1l0.1,0c0.1,0,0.1,0,0.3,0c0.2,0,0.2,0,0.3,0.1
		C149.1,112.4,149,112.5,149,112.6z"/>
	<path class="st3" d="M151.9,113c0,0.1,0,0.1-0.1,0.1c0,0,0,0,0,0c0,0,0,0.1,0,0.1c0,0,0,0,0,0c0,0,0,0,0,0c0,0,0,0,0,0
		c0,0-0.2,0.2-0.2,0.2c0,0,0,0,0,0c0,0-0.1,0.1-0.1,0.1l-0.1,0.1c-0.2,0.2-0.4,0.3-0.4,0.4c0,0,0,0,0,0c0,0-0.1,0.1-0.2,0.1
		c0,0-0.1,0-0.1,0c0,0-0.1,0-0.1,0c-0.1,0-0.2,0.1-0.3,0.1c0,0-0.1,0.1-0.1,0.1l-0.2,0c0,0-0.1,0-0.1,0c-0.1,0-0.1,0-0.2-0.1
		c0,0-0.1-0.1-0.1-0.1c0,0,0-0.1-0.1-0.1c0-0.1,0-0.1,0-0.2c0,0,0-0.1,0-0.2c0-0.4,0.3-0.8,0.4-1.1c0,0,0,0,0,0c0,0,0,0,0-0.1
		c0,0,0.1-0.1,0.1-0.2c0.1-0.1,0.2-0.1,0.3-0.1c0,0,0.1,0,0.1,0c0,0,0.1,0.1,0.1,0.1c0.1,0,0.1,0,0.2,0.1c0.1,0,0.1,0.1,0.1,0.1
		c0,0,0,0.1,0,0.1c0,0,0,0.1-0.1,0.1c0,0-0.1,0-0.1,0c0,0-0.1,0-0.1-0.1c0,0-0.1-0.1-0.1-0.1c0,0,0,0-0.1,0c-0.1,0-0.2,0.1-0.2,0.2
		c0,0.1-0.1,0.1-0.2,0.2c0,0.1-0.1,0.2-0.2,0.2c-0.1,0.1-0.2,0.3-0.2,0.5c0,0.1,0,0.2,0,0.3c0,0,0,0,0.1,0c0.1,0,0.2,0,0.4-0.1
		c0.1,0,0.2,0,0.2-0.1c0.1,0,0.1,0,0.2-0.1c0,0,0.1,0,0.1,0l0.3-0.2c0.1-0.1,0.2-0.2,0.3-0.3c0.1,0,0.3-0.3,0.4-0.3c0,0,0,0,0.1-0.1
		c0,0,0,0,0,0c0,0,0,0,0,0C151.8,113,151.8,113,151.9,113C151.9,113,151.9,112.9,151.9,113C151.9,113,152,113,151.9,113z"/>
	<path class="st3" d="M152.8,114.1c-0.1-0.1-0.1-0.2-0.1-0.4c0-0.2,0-0.4,0.1-0.6c0-0.2,0.1-0.3,0.1-0.4c0-0.2-0.1-0.1-0.2,0
		c-0.2,0.1-0.2,0.1-0.3,0.2c-0.1,0.1-0.2,0.1-0.2,0.2c0,0.1,0,0.1-0.1,0.2c0,0.1-0.1,0.4-0.1,0.5c0,0.1,0,0.1-0.1,0.1
		c-0.1,0-0.2,0-0.3-0.1c0-0.1,0-0.4,0.1-0.5c0.1-0.3,0.3-1.5,0.3-1.5c0,0,0-0.1,0-0.1l0,0c-0.1,0-0.3,0.2-0.4,0.2c0,0-0.1,0-0.1,0
		c0,0,0-0.3,0-0.3c0.2-0.1,0.4-0.3,0.6-0.4c0-0.1,0,0,0-0.1v0c0.1-0.3,0.2-0.5,0.2-0.8c0.1-0.3,0.2-0.5,0.3-0.8
		c0-0.1,0.1-0.2,0.1-0.3c0,0,0-0.1,0.1-0.1c-0.1,0-0.1,0,0-0.1c0-0.1,0.1-0.2,0.2-0.3c0.1-0.1,0.1-0.3,0.2-0.4
		c0-0.1,0.1-0.1,0.1-0.2c0,0,0-0.1,0-0.1c0,0,0.1,0,0.1,0c0.1-0.1,0.1-0.2,0.2-0.3c0,0,0,0-0.1,0c0.1,0,0.1,0,0.1-0.1h0l0.1-0.2
		c0,0,0.1-0.1,0.2-0.1c0.1-0.2,0.3-0.3,0.5-0.4c0.2-0.1,0.3,0,0.4,0c0.1,0,0.2,0.2,0.1,0.3c0,0,0,0.1,0,0.1c0,0,0,0,0,0
		c0,0.1-0.1,0.2-0.1,0.3c0,0,0,0,0,0.1v0c-0.1,0.1-0.1,0.2-0.1,0.3c0,0.1,0,0.2-0.1,0.2c-0.1,0.1-0.1,0.2-0.2,0.3
		c-0.1,0.1-0.2,0.3-0.3,0.4c-0.1,0.1-0.2,0.3-0.3,0.4c-0.1,0.2-0.2,0.3-0.3,0.4c-0.1,0.2-0.3,0.4-0.4,0.6c-0.1,0.1-0.1,0.2-0.2,0.2
		c-0.1,0.1-0.1,0.1-0.2,0.2c-0.1,0.2-0.3,0.3-0.4,0.5c0,0-0.1,0.1-0.1,0.1c0,0.1,0,0.1,0,0.2c0,0-0.1,0.3-0.1,0.4
		c-0.1,0.3-0.1,0.3-0.1,0.5c0.1-0.1,0.1-0.1,0.2-0.2c0.1-0.1,0.2-0.1,0.3-0.2c0.1,0,0.2,0,0.2,0c0.1,0,0.2,0,0.3,0.1
		c0,0,0.1,0.1,0.1,0.2c0,0.1,0,0.2,0,0.3c0,0.2-0.1,0.3-0.1,0.5c0,0.1-0.1,0.3-0.1,0.4c0,0.1,0,0.2,0.1,0.2c0.1,0,0.3,0,0.4-0.1
		c0.1-0.1,0.4-0.3,0.5-0.4c0.3-0.2,0.4-0.4,0.6-0.6l0.1-0.1c0,0,0,0,0,0l-0.1,0.2c0,0,0,0,0,0c0,0.1-0.1,0.1-0.1,0.2l0,0
		c-0.1,0.1-0.1,0.2-0.2,0.3c-0.1,0.1-0.1,0.1-0.2,0.2c-0.1,0.1-0.2,0.2-0.5,0.4l-0.2,0.1C153.3,114.4,152.9,114.4,152.8,114.1z
		 M153.3,110.3c0.2-0.2,0.3-0.4,0.5-0.7c0.1-0.2,0.2-0.3,0.4-0.5c0-0.1,0.2-0.2,0.2-0.3c0,0,0-0.1,0-0.1c0,0,0.1-0.1,0.1-0.1
		c0.1,0,0,0,0.1-0.1c0,0,0-0.1,0-0.1c0,0,0.1-0.1,0.1-0.1c0,0,0,0,0,0c0,0,0,0,0,0c0,0,0.1-0.1,0.1-0.2c0.2-0.2,0.3-0.6,0.2-0.8
		c0,0,0,0,0,0c-0.2,0.1-0.4,0.3-0.6,0.5l-0.2,0.2c0,0-0.1,0-0.1,0.1c-0.1,0.1-0.1,0.1-0.1,0.2c-0.1,0.1-0.2,0.2-0.2,0.3
		c-0.1,0.1-0.1,0.2-0.2,0.3c0,0-0.1,0-0.1,0.1c0,0.1-0.1,0.2-0.1,0.3c0,0-0.1,0.1-0.1,0.2c0,0.1-0.1,0.1-0.1,0.2c0,0-0.1,0.1,0,0.1
		c0,0.1-0.1,0.1-0.1,0.2c0,0,0,0,0,0c0,0,0,0.1,0,0.1c-0.1,0,0,0.2-0.1,0.2c0,0.1-0.1,0.2-0.1,0.3c0,0.1-0.1,0.2-0.1,0.2
		c0,0,0,0.1,0,0.1c0,0,0,0,0,0C152.9,110.7,153.1,110.5,153.3,110.3z"/>
	<path class="st3" d="M157.3,112.8L157.3,112.8c-0.1,0.2-0.2,0.3-0.3,0.3c0,0,0,0.1-0.1,0.1h-0.1c0,0,0,0,0,0c0,0.1-0.1,0.1-0.1,0.1
		l-0.1,0.1c-0.1,0-0.2,0.1-0.3,0.1c0,0,0,0-0.1,0c0,0-0.1,0-0.1,0.1c0,0,0,0.1,0,0.1l0,0v0c0,0,0,0.1-0.1,0.1c0,0,0,0,0,0.1
		c-0.1,0.1-0.1,0.2-0.2,0.3l0,0c0,0-0.1,0.1-0.1,0.1c0,0-0.1,0-0.1,0c-0.1,0-0.1,0.1-0.2,0.1c0,0-0.1,0-0.1,0c-0.1,0-0.2,0-0.3,0
		c-0.1,0-0.2-0.1-0.3-0.2c-0.1-0.1-0.1-0.3-0.1-0.5c0-0.2,0.1-0.4,0.1-0.6c0-0.1,0-0.2,0-0.2c0.1-0.1,0.1-0.2,0.2-0.3
		c0.1-0.1,0.2-0.2,0.3-0.2c0.1,0,0.2,0,0.3,0c0,0,0.1,0,0.1,0.1c0,0,0,0,0,0c0.1,0,0.2,0,0.4,0.1c0,0,0,0,0.1,0
		c0.1,0,0.1,0.1,0.1,0.2l0.1,0.2c0,0,0,0,0,0c0.2-0.1,0.4-0.1,0.5-0.2C156.9,112.9,157,112.9,157.3,112.8L157.3,112.8z M155.8,113.4
		c0,0-0.1,0-0.2,0c-0.1,0-0.2-0.1-0.3-0.1c-0.1,0-0.1-0.1-0.1-0.1c0,0,0-0.1,0-0.1c0,0.1-0.1,0.2-0.1,0.3c0,0,0,0.1-0.1,0.1
		c0,0.1,0,0.1,0,0.2c0,0.1,0,0.2,0,0.3c0,0.1,0,0.1,0,0.2c0,0.1,0.1,0.1,0.3,0.1c0.1,0,0.3-0.1,0.4-0.2c0.1-0.1,0.1-0.1,0.2-0.2
		C155.7,113.7,155.7,113.6,155.8,113.4C155.8,113.5,155.8,113.5,155.8,113.4z M155.9,113.1c0-0.1,0-0.2-0.1-0.3c0,0,0,0-0.1,0
		c-0.1,0-0.1,0-0.1,0c-0.1,0-0.1,0.1-0.1,0.2c0,0,0,0.1,0,0.2c0,0,0,0.1,0.1,0.1h0.3C155.9,113.2,155.9,113.1,155.9,113.1z"/>
	<path class="st3" d="M159.5,112.8L159.5,112.8c-0.1,0.2-0.2,0.3-0.3,0.3c0,0,0,0.1-0.1,0.1h-0.1c0,0,0,0,0,0c0,0.1-0.1,0.1-0.1,0.1
		l-0.1,0.1c-0.1,0-0.2,0.1-0.3,0.1c0,0,0,0-0.1,0c0,0-0.1,0-0.1,0.1c0,0,0,0.1,0,0.1l0,0v0c0,0,0,0.1-0.1,0.1c0,0,0,0,0,0.1
		c-0.1,0.1-0.1,0.2-0.2,0.3l0,0c0,0-0.1,0.1-0.1,0.1c0,0-0.1,0-0.1,0c-0.1,0-0.1,0.1-0.2,0.1c0,0-0.1,0-0.1,0c-0.1,0-0.2,0-0.3,0
		c-0.1,0-0.2-0.1-0.3-0.2c-0.1-0.1-0.1-0.3-0.1-0.5c0-0.2,0.1-0.4,0.1-0.6c0-0.1,0-0.2,0-0.2c0.1-0.1,0.1-0.2,0.2-0.3
		c0.1-0.1,0.2-0.2,0.3-0.2c0.1,0,0.2,0,0.3,0c0,0,0.1,0,0.1,0.1c0,0,0,0,0,0c0.1,0,0.2,0,0.4,0.1c0,0,0,0,0.1,0
		c0.1,0,0.1,0.1,0.1,0.2l0.1,0.2c0,0,0,0,0,0c0.2-0.1,0.4-0.1,0.5-0.2C159.1,112.9,159.2,112.9,159.5,112.8L159.5,112.8z M158,113.4
		c0,0-0.1,0-0.2,0c-0.1,0-0.2-0.1-0.3-0.1c-0.1,0-0.1-0.1-0.1-0.1c0,0,0-0.1,0-0.1c0,0.1-0.1,0.2-0.1,0.3c0,0,0,0.1-0.1,0.1
		c0,0.1,0,0.1,0,0.2c0,0.1,0,0.2,0,0.3c0,0.1,0,0.1,0,0.2c0,0.1,0.1,0.1,0.3,0.1c0.1,0,0.3-0.1,0.4-0.2c0.1-0.1,0.1-0.1,0.2-0.2
		C157.9,113.7,157.9,113.6,158,113.4C158,113.5,158,113.5,158,113.4z M158.1,113.1c0-0.1,0-0.2-0.1-0.3c0,0,0,0-0.1,0
		c-0.1,0-0.1,0-0.1,0c-0.1,0-0.1,0.1-0.1,0.2c0,0,0,0.1,0,0.2c0,0,0,0.1,0.1,0.1h0.3C158.1,113.2,158.1,113.1,158.1,113.1z"/>
	<path class="st3" d="M162.1,108.6c0,0.1-0.1,0.1,0,0.1l-0.1,0.5c0,0.1,0,0.1,0,0.1l0,0l-0.1,0.1l0,0.2c0,0,0,0.1-0.1,0.1
		c0,0,0,0.1,0,0.1c0,0.1,0,0.1,0,0.2c0,0-0.6,1.1-0.7,1.2l-0.5,0.7c0,0,0,0,0,0c0,0,0,0.1-0.1,0.1l-0.2,0.2
		c-0.1,0.1-0.3,0.3-0.4,0.4c0,0.1-0.1,0.3-0.1,0.4c0,0.2-0.1,0.4,0,0.6c0,0.3,0,0.5,0.1,0.7c0,0.1,0.1,0.2,0.2,0.3
		c0.2,0.1,0.2,0,0.4-0.1c0.2-0.1,0,0.3-0.2,0.4c-0.1,0-0.2,0-0.4,0c0,0-0.1-0.1-0.1-0.1c0-0.1-0.1-0.1-0.1-0.2
		c0-0.1-0.1-0.1-0.1-0.2c0-0.1,0-0.2-0.1-0.3c0-0.2,0-0.4,0-0.7c0-0.1,0-0.2,0.1-0.6l0.1-0.3c0,0,0-0.1,0-0.1c0-0.1,0-0.2,0.1-0.3
		c0-0.1,0-0.2,0.1-0.4c0-0.1,0.1-0.3,0.1-0.4c0-0.1,0.1-0.2,0.1-0.2c0-0.1,0-0.1,0.1-0.2c0,0,0.2-0.6,0.2-0.6c0,0,0.1-0.1,0.1-0.2
		l0.1-0.2l0.1-0.2c0,0,0,0,0,0l0.4-0.7c0.1-0.1,0.2-0.3,0.2-0.3c0.1-0.1,0.2-0.2,0.3-0.2c0.1-0.1,0.2-0.1,0.4,0c0,0,0.1,0,0.1,0.1
		c0,0,0.1,0.1,0.1,0.1l0.1,0c0,0,0,0,0,0c0,0.1,0,0.1,0,0.2L162.1,108.6z M161.8,108.4C161.8,108.4,161.8,108.4,161.8,108.4l-0.1,0
		c0,0,0,0,0,0.1c-0.1,0.1-0.2,0.2-0.2,0.3c-0.1,0.1-0.2,0.2-0.2,0.3c0,0.1-0.1,0.2-0.2,0.3c0,0.1-0.1,0.2-0.2,0.3
		c0,0.1-0.1,0.2-0.1,0.3c0,0,0,0.1-0.1,0.1c0,0.1-0.1,0.2-0.1,0.2c0,0.1-0.1,0.1-0.1,0.2c0,0.1,0,0.1,0,0.1c0,0.1-0.1,0.2-0.1,0.3
		c0,0.1-0.1,0.3-0.2,0.4c0,0,0,0.1-0.1,0.1l-0.1,0.3c0.1-0.1,0.2-0.3,0.3-0.4c0.1-0.1,0.3-0.3,0.4-0.5c0.1-0.1,0.1-0.2,0.2-0.3
		c0.1-0.1,0.1-0.2,0.2-0.4c0.1-0.2,0.2-0.4,0.3-0.6c0.1-0.1,0.1-0.3,0.2-0.5c0.1-0.2,0.1-0.3,0.1-0.5
		C161.7,108.7,161.7,108.5,161.8,108.4z"/>
	<path class="st3" d="M162.9,113.1c0,0-0.2,0.4-0.3,0.4c0,0-0.1,0.1-0.2,0.3l-0.1,0.2c0,0,0,0,0,0.1l0,0c-0.1,0-0.1,0.1-0.2,0.2
		c0,0-0.1,0.1-0.1,0.1c0,0-0.1,0-0.2,0.1c-0.1,0-0.1,0.1-0.2,0.1c-0.1,0-0.1,0-0.2,0c-0.1,0-0.1-0.1-0.2-0.2c0,0,0,0,0-0.1
		c0,0,0-0.1,0-0.1c0,0,0-0.1,0-0.1c0-0.2,0-0.4,0.1-0.5c0-0.1,0.1-0.3,0.1-0.4c0-0.2,0.1-0.3,0.1-0.5v-0.1c0,0,0-0.1,0-0.1
		c0,0,0.1,0,0.1,0c0,0,0.1,0.1,0.1,0.1c0,0,0.1,0.1,0.1,0.1c0,0,0,0.1,0,0.1c0,0.1,0,0.1,0,0.2c0,0.1-0.1,0.2-0.1,0.4
		c0,0,0,0.1,0,0.1c0,0,0,0,0,0c0,0.1,0,0.2,0,0.3c0,0.1,0,0.2,0,0.3c0.1,0,0.2-0.1,0.3-0.1c0.2-0.1,0.3-0.3,0.5-0.4
		c0.2-0.1,0.3-0.3,0.4-0.4c0.1-0.1,0.2-0.2,0.4-0.3C163,112.9,163,113,162.9,113.1L162.9,113.1z M161.5,111.9
		c-0.1-0.1-0.1-0.1-0.1-0.2c0-0.1,0.2-0.2,0.3-0.3c0,0,0,0,0,0c0.1,0,0.2,0,0.2,0.1c0,0.1,0.1,0.2,0,0.3c0,0.1-0.1,0.2-0.2,0.2
		c0,0-0.1,0-0.2,0C161.6,112,161.5,112,161.5,111.9z"/>
	<path class="st3" d="M162.7,114.4c0-0.2,0-0.3,0.1-0.5c0-0.2,0.1-0.3,0.1-0.5c0-0.1,0-0.2,0.1-0.3c0,0,0,0,0,0c0,0,0-0.1,0-0.1
		c0-0.1,0-0.1,0.1-0.1c0.1,0,0.2,0.1,0.3,0.2c0,0,0,0,0,0c0,0.1,0,0.1,0,0.2c0,0.1,0,0.1,0,0.2c0,0.1,0,0.1-0.1,0.2c0,0,0,0,0,0
		c0,0,0,0,0,0c0.1-0.1,0.2-0.3,0.3-0.4c0.1-0.1,0.1-0.1,0.2-0.2c0,0,0.1,0,0.2,0c0.1,0,0.1,0,0.1,0c0,0,0,0,0.2,0.1c0,0,0,0.1,0,0.1
		c0,0,0,0,0,0.1c0,0.1,0,0.2,0.1,0.3c0,0.1,0,0.2,0,0.2c0,0,0,0,0,0.1c0,0.1,0,0.1,0,0.2l0,0.1c0,0,0,0,0,0.1h0c0,0,0,0,0.2-0.1
		c0.1,0,0.1,0,0.2-0.1l0.9-0.9c0.1,0,0.1,0,0,0.1l-0.1,0.1c0,0,0,0.1,0,0.1c0,0-0.1,0.1-0.1,0.1l-0.2,0.2c0,0,0,0-0.1,0.1
		c0,0,0,0,0,0c0,0,0,0,0,0c0,0.1-0.1,0.1-0.2,0.2c-0.1,0.1-0.1,0.1-0.2,0.2c-0.1,0.1-0.3,0.1-0.4,0.1h0c-0.1,0-0.1,0-0.1-0.1
		c-0.1-0.1-0.2-0.2-0.2-0.3c0-0.2-0.1-0.4-0.1-0.6c0,0,0-0.1,0-0.2c0,0,0,0,0-0.1c0,0.1-0.1,0.1-0.1,0.1c0,0.1-0.1,0.1-0.1,0.2
		c0,0.1-0.1,0.1-0.1,0.1c0,0-0.1,0.1,0,0.1l0,0.1c0,0-0.2,0.4-0.2,0.5c0,0-0.1,0.1-0.1,0.1l0,0.1c0,0,0,0,0,0c0,0.1-0.1,0.1-0.2,0.1
		C162.8,114.6,162.7,114.5,162.7,114.4z"/>
	<path class="st3" d="M167.9,115.1l-0.8,0.2c0,0,0,0,0,0c-0.1,0-0.1,0-0.1,0.1c0,0,0,0,0,0c0,0,0,0.1,0,0.1l-0.1,0
		c0,0,0.1,0.1,0,0.1c0,0.1,0,0.1,0,0.1c0,0.1,0,0.1-0.1,0.1c0,0,0,0,0,0c0,0.1,0,0.1,0,0.1c0,0,0,0.1,0,0.1l0,0.1c0,0.1,0,0.1,0,0.1
		l0,0.1c0,0,0,0,0.1,0c0,0.1,0,0.2-0.1,0.2c0,0,0,0.1,0,0.2c0,0.1,0,0,0,0.1c0,0,0,0.1,0,0.1c0,0,0,0,0,0.1c0,0,0,0,0,0
		c0,0,0,0.1,0,0.1l-0.2,0.4c0,0,0,0,0,0l-0.1,0c0,0,0,0.1,0,0.1l0,0c0,0,0,0,0,0c0,0-0.1,0.2-0.1,0.2c0,0.1-0.1,0.1-0.1,0.1
		c0,0,0,0.1-0.1,0.1c0,0,0,0,0,0.1c0,0.1-0.1,0-0.1,0c0,0,0,0,0.1,0c0,0-0.1,0-0.1,0c0,0.1-0.1,0.1-0.1,0.2l0.1,0
		c0,0-0.1,0.1-0.1,0.1c0,0,0,0,0,0c0,0-0.1,0.1-0.1,0.1c0,0,0,0,0,0h0c0,0,0,0,0,0c-0.1,0.1-0.2,0.2-0.3,0.3c0,0.1,0,0.1-0.1,0.1
		c-0.1,0.1-0.1,0.1-0.2,0.2c0,0,0,0,0,0c-0.1,0-0.2,0.1-0.3,0.1c0,0,0,0.1-0.1,0.1c0,0-0.1,0.1-0.2,0.1c-0.1,0-0.2,0-0.4,0
		c0,0-0.1,0-0.1,0c-0.2,0-0.3-0.1-0.4-0.2c-0.1,0-0.2-0.1-0.3-0.3c0,0-0.1,0-0.1-0.1c0-0.1-0.1-0.2-0.1-0.3c0,0,0-0.1,0-0.1
		c0-0.1,0-0.1,0-0.2c0-0.2,0-0.3,0.1-0.5c0-0.1,0-0.3,0.1-0.4c0,0,0,0,0,0l0.1-0.2l0.1-0.1c0.1-0.2,0.2-0.3,0.3-0.5
		c0.1-0.1,0.2-0.3,0.3-0.5l0.2-0.2c0,0,0.1-0.1,0.2-0.2c0,0,0.1-0.1,0.2-0.2c0.2-0.1,0.3-0.2,0.5-0.3c0.1-0.1,0.3-0.2,0.4-0.3
		l0.4-0.2c0.1-0.1,0.3-0.1,0.4-0.2l0,0c0.1,0,0.2-0.1,0.1-0.2c0,0,0,0,0,0c0,0,0-0.1,0-0.1c0-0.2,0-0.3,0-0.4l0,0
		c0-0.2,0.1-0.4,0.1-0.6c0,0,0,0,0,0l-0.1,0c0,0,0,0,0,0.1c0,0,0,0.1-0.1,0.1c0,0-0.1,0.1-0.3,0.3v0c-0.2,0-0.2,0.1-0.3,0.1
		c0,0-0.1,0-0.2,0c-0.1,0-0.1,0-0.2,0l-0.2-0.1c0,0,0-0.1-0.1-0.1c0,0,0-0.1-0.1-0.1c-0.1-0.1-0.1-0.2-0.1-0.3c-0.1-0.2,0-0.3,0-0.5
		c0-0.1,0.1-0.1,0.1-0.2c0,0,0-0.1,0.1-0.2c0,0,0,0,0,0c0.1-0.1,0.1-0.3,0.3-0.4c0.1,0,0.2-0.2,0.3-0.2c0.1,0,0.2-0.1,0.3,0
		c0,0,0.1,0,0.2,0c0.1,0,0.2,0.1,0.2,0.1c0.1,0.1,0.2,0.1,0.2,0.2l0.1,0.1c0.1,0,0.1-0.2,0.2-0.2l0.1,0c0.1,0,0.1,0,0.2,0l0,0.2
		c0,0.1,0,0.2-0.1,0.2c0,0.1,0,0.1,0,0.2c-0.1,0.3-0.1,0.6-0.2,0.9c0,0.1,0,0.3-0.1,0.4c0,0.1,0,0.2,0,0.3c0,0,0,0,0,0
		c0.1,0,0.2,0,0.4,0c0.1,0,0.2,0,0.3,0C167.8,114.9,167.9,115,167.9,115.1z M166.5,115.5c-0.1,0-0.1,0.1-0.2,0.1
		c-0.2,0.1-0.5,0.2-0.7,0.3c-0.1,0.1-0.3,0.2-0.4,0.3c-0.1,0.1-0.2,0.1-0.4,0.2c0,0.1-0.1,0.1-0.2,0.2c-0.1,0-0.1,0.1-0.1,0.1
		c-0.1,0.1-0.1,0.1-0.2,0.2c-0.1,0-0.1,0.1-0.2,0.2c0,0-0.2,0.3-0.2,0.4l-0.2,0.3c0,0-0.1,0.2-0.1,0.2c0,0,0,0.1-0.1,0.1
		c0,0.1,0,0.2-0.1,0.2c0,0.1-0.1,0.3-0.1,0.4c0,0.2,0,0.4,0,0.5c0,0.2,0.1,0.3,0.3,0.4l0,0c0,0,0,0,0,0c0.1,0,0.3,0.1,0.4,0
		c0.1,0,0.1-0.1,0.2-0.1c0.2,0,0.3-0.2,0.4-0.3c0.1-0.1,0.2-0.2,0.3-0.4c0.2-0.2,0.3-0.4,0.4-0.6c0.1-0.2,0.2-0.4,0.3-0.6
		c0.1-0.2,0.1-0.3,0.2-0.5c0.1-0.2,0.2-0.5,0.2-0.7c0-0.2,0.1-0.4,0.1-0.5c0-0.1,0.1-0.2,0.1-0.3v0
		C166.5,115.8,166.5,115.6,166.5,115.5z M166.7,113.2C166.7,113.2,166.6,113.1,166.7,113.2c-0.1-0.1-0.1-0.2-0.1-0.2
		c0-0.1,0-0.2-0.1-0.3c0,0-0.1,0-0.1,0c-0.1,0-0.3,0-0.4,0.2c-0.1,0.1-0.2,0.1-0.2,0.2c0,0,0,0-0.1,0.1l0,0c0,0.1-0.1,0.1-0.2,0.2
		c-0.1,0.1-0.1,0.2-0.1,0.3c0,0.1-0.1,0.2,0,0.3c0,0,0.1,0,0.1,0c0.1,0,0.3-0.1,0.4-0.1l0.3-0.2h0c0-0.1,0.1-0.1,0.2-0.1
		c0,0,0,0,0.1,0c0-0.1,0.1-0.1,0.2-0.2C166.6,113.3,166.6,113.3,166.7,113.2C166.7,113.3,166.7,113.2,166.7,113.2z"/>
	<path class="st3" d="M169.2,118.2L169.2,118.2l-0.2-0.1c0.1-0.5,0.2-1,0.3-1.5c0,0,0,0,0,0c0-0.1,0-0.2,0-0.2c0,0,0,0-0.1,0
		c0,0,0-0.1,0-0.1c0,0,0-0.1,0-0.1c0,0,0-0.1,0-0.1c0.1-0.2,0.2-0.7,0.2-0.8c0,0,0-0.1,0-0.1c0.1-0.2,0.1-0.4,0.2-0.6
		c0-0.1,0.1-0.3,0.1-0.4c0-0.1,0.1-0.2,0.1-0.3c0-0.2,0.1-0.3,0.1-0.5c0-0.1,0-0.2,0.1-0.3c0-0.1,0.1-0.3,0.1-0.4
		c0-0.1,0-0.2,0.1-0.2c0-0.1,0-0.1,0.1-0.1h0c0.1,0,0.1,0,0.2,0.1l0,0.1c0,0,0,0.1,0,0.1c0,0,0,0.1,0,0.1c0,0,0,0,0,0.1c0,0,0,0,0,0
		c0,0.1,0,0.2-0.1,0.3h0c0,0.1,0,0.1-0.1,0.4v0c0,0,0,0.1,0,0.2c0,0,0,0,0.1-0.2c0,0,0.1-0.2,0.3-0.5c0,0,0,0,0,0c0,0,0,0,0-0.1
		l0.2-0.1l0.2-0.1c0.1-0.1,0.2-0.1,0.3-0.1c0.1,0,0.2,0,0.2,0c0,0,0.1,0,0.1,0c0,0,0.3,0.2,0.3,0.3c0,0,0,0,0,0c0,0,0,0.1,0,0.1
		c0,0.1,0,0.2,0,0.3c0,0.1-0.1,0.2-0.1,0.3c-0.1,0.1-0.1,0.2-0.2,0.3l-0.2,0.2c-0.1,0-0.1,0.1-0.2,0.1c0,0,0,0-0.1,0
		c0,0-0.1,0-0.2-0.1c0,0-0.1,0-0.1-0.1l0,0c-0.1,0-0.1-0.1-0.1-0.2c0,0,0-0.1,0-0.1c0.1,0,0.1,0,0.1,0.1c0,0.1,0.1,0.1,0.1,0.1
		c0.1,0,0.2-0.1,0.2-0.1c0.1-0.1,0.2-0.1,0.2-0.2c0.1-0.1,0.1-0.1,0.2-0.2v0c0,0,0-0.1,0-0.1c0-0.1,0.1-0.2,0-0.2c0-0.1,0-0.1,0-0.2
		c0,0-0.2,0-0.2,0c-0.1,0-0.1,0.1-0.2,0.1h0c0,0-0.1,0.1-0.1,0.1c0,0.1-0.1,0.1-0.2,0.1c-0.1,0.1-0.2,0.1-0.2,0.2
		c-0.1,0.1-0.2,0.2-0.3,0.3c0,0-0.2,0.3-0.2,0.4h-0.1c0,0,0,0,0,0c0,0-0.1,0.2-0.1,0.2c0,0.1,0,0.2-0.1,0.2h0c0,0,0,0,0,0
		c0,0.1,0,0.1,0,0.2c0,0,0,0,0,0c0,0,0,0.1,0,0.1c0,0,0,0.1,0,0.1c0,0.1,0,0.3-0.1,0.3c0,0,0,0,0,0c0,0,0,0,0,0c0,0,0,0,0,0
		c0,0.1,0,0.1,0,0.2c0,0.1,0,0.2-0.1,0.3c0,0.1,0,0.1,0,0.2c0,0,0,0,0,0l0,0.1v0.2c-0.1,0.2-0.1,0.3-0.1,0.5c0,0,0,0,0,0
		c0,0.1,0,0.1,0,0.2c0,0,0,0,0,0.1c0,0,0,0.2-0.1,0.2l0,0c0,0.1,0,0.1-0.1,0.2c0,0,0,0,0,0c0,0.1,0,0.2-0.1,0.3c0,0.1,0,0.1,0,0.2
		c0,0,0,0.1,0,0.1c0,0,0,0.1,0,0.2c0,0,0,0,0,0c0,0,0,0,0,0c0,0,0,0.1,0,0.1c0,0-0.1,0-0.1,0C169.2,118.3,169.2,118.3,169.2,118.2z"
		/>
	<path class="st3" d="M175.3,112.6L175.3,112.6c-0.1,0.2-0.2,0.3-0.3,0.3c0,0,0,0.1-0.1,0.1h-0.1c0,0,0,0,0,0c0,0.1-0.1,0.1-0.1,0.1
		l-0.1,0.1c-0.1,0-0.2,0.1-0.3,0.1c0,0,0,0-0.1,0c0,0-0.1,0-0.1,0.1c0,0,0,0.1,0,0.1l0,0v0c0,0,0,0.1-0.1,0.1c0,0,0,0,0,0.1
		c-0.1,0.1-0.1,0.2-0.2,0.3l0,0c0,0-0.1,0.1-0.1,0.1c0,0-0.1,0-0.1,0c-0.1,0-0.1,0.1-0.2,0.1c0,0-0.1,0-0.1,0c-0.1,0-0.2,0-0.3,0
		c-0.1,0-0.2-0.1-0.3-0.2c-0.1-0.1-0.1-0.3-0.1-0.5c0-0.2,0.1-0.4,0.1-0.6c0-0.1,0-0.2,0-0.2c0.1-0.1,0.1-0.2,0.2-0.3
		c0.1-0.1,0.2-0.2,0.3-0.2c0.1,0,0.2,0,0.3,0c0,0,0.1,0,0.1,0.1c0,0,0,0,0,0c0.1,0,0.2,0,0.4,0.1c0,0,0,0,0.1,0
		c0.1,0,0.1,0.1,0.1,0.2l0.1,0.2c0,0,0,0,0,0c0.2-0.1,0.4-0.1,0.5-0.2C175,112.7,175.1,112.7,175.3,112.6L175.3,112.6z M173.8,113.2
		c0,0-0.1,0-0.2,0c-0.1,0-0.2-0.1-0.3-0.1c-0.1,0-0.1-0.1-0.1-0.1c0,0,0-0.1,0-0.1c0,0.1-0.1,0.2-0.1,0.3c0,0,0,0.1-0.1,0.1
		c0,0.1,0,0.1,0,0.2c0,0.1,0,0.2,0,0.3c0,0.1,0,0.1,0,0.2c0,0.1,0.1,0.1,0.3,0.1c0.1,0,0.3-0.1,0.4-0.2c0.1-0.1,0.1-0.1,0.2-0.2
		C173.8,113.4,173.8,113.3,173.8,113.2C173.9,113.2,173.9,113.2,173.8,113.2z M173.9,112.8c0-0.1,0-0.2-0.1-0.3c0,0,0,0-0.1,0
		c-0.1,0-0.1,0-0.1,0c-0.1,0-0.1,0.1-0.1,0.2c0,0,0,0.1,0,0.2c0,0,0,0.1,0.1,0.1h0.3C173.9,112.9,173.9,112.9,173.9,112.8z"/>
	<path class="st3" d="M177,112.9C176.9,112.9,176.9,112.9,177,112.9c-0.1,0.1-0.1,0.1-0.2,0.1c0,0,0,0-0.1,0c0,0-0.1,0.1-0.2,0.1
		c-0.1,0-0.1,0.1-0.2,0.1c-0.2,0.1-0.3,0.2-0.4,0.2c-0.1,0.1-0.2,0.2-0.3,0.2c0,0,0,0,0,0c0,0,0,0,0,0.1c0,0,0,0.1,0,0.1
		c0,0.1,0,0.2,0,0.3c0,0,0,0.1,0,0.1c0,0.1,0,0.1,0,0.1c0,0,0,0.1,0,0.1c0,0,0,0,0,0.1c0,0.2-0.1,0.3-0.1,0.5c0,0,0,0.1,0,0.1
		c0,0.1,0,0.1,0,0.2c0,0,0,0,0,0.1c-0.1,0.1-0.1,0.2-0.2,0.3c0,0,0,0-0.1,0c0,0,0,0,0,0l-0.1,0c-0.1,0-0.2,0-0.2,0
		c-0.1,0-0.1-0.1-0.2-0.1c0,0-0.1-0.1-0.1-0.1c0,0,0,0,0,0c-0.1,0-0.1-0.1-0.1-0.2c0-0.1,0-0.2-0.1-0.2c0-0.1,0-0.2,0-0.4l0,0
		c0,0,0,0,0,0c0-0.1,0.1-0.1,0.1-0.2c0-0.1,0.1-0.3,0.2-0.4c0.1-0.1,0.2-0.2,0.3-0.3l0.2-0.2c0,0,0.1,0,0.1-0.1
		c0.1,0,0.1-0.1,0.1-0.1c0-0.2,0-0.3,0-0.4c0-0.1,0-0.1,0-0.2v-0.1c0-0.1,0-0.1,0.1-0.2c0-0.1,0.1-0.3,0.1-0.4
		c0-0.1,0.1-0.1,0.1-0.2c0,0,0.2-0.1,0.2-0.1c0.3-0.1,0.5,0.2,0.5,0.2c0,0.1-0.1,0.1-0.1,0.1c-0.1,0-0.2-0.1-0.2,0
		c0,0-0.1,0-0.2,0.1c0,0-0.1,0.1-0.1,0.2c-0.1,0.3-0.1,0.6-0.1,0.7c0,0,0,0.1,0,0.1c0,0,0,0,0,0.1c0.1,0,0.2-0.1,0.3-0.1
		c0.3-0.2,0.6-0.3,0.9-0.5c0.1-0.1,0.2-0.1,0.4-0.2c0,0,0,0,0,0c0,0,0,0,0,0.1C177.2,112.7,177,112.9,177,112.9L177,112.9z
		 M175.2,114c0,0-0.1,0.1-0.1,0.1c-0.1,0-0.1,0.1-0.2,0.1c0,0-0.1,0.1-0.1,0.1c-0.1,0.1-0.2,0.3-0.2,0.4c0,0.1-0.1,0.2-0.1,0.4
		c0,0,0,0.1,0,0.1c0,0.1,0.1,0.2,0.1,0.3c0,0,0.1,0,0.1,0c0.1,0,0.2-0.2,0.2-0.2c0-0.1,0.1-0.1,0.1-0.2c0-0.1,0.1-0.2,0.1-0.3
		c0-0.1,0.1-0.2,0-0.4C175.2,114.2,175.2,114.1,175.2,114z"/>
	<path class="st3" d="M178,112.5L178,112.5L178,112.5L178,112.5L178,112.5l-0.1,0c0,0-0.1-0.1-0.3-0.1l-0.1,0c-0.1,0-0.1,0-0.1,0.1
		c0,0,0,0-0.1,0.1c0,0-0.1,0.1-0.1,0.1c0,0.1,0,0.1,0,0.2c0,0.1,0,0.2,0.1,0.2c0,0,0,0.1,0,0.1c0,0,0,0,0,0l0,0.1l0,0.1l0,0l0,0.1
		l0.1,0c0,0,0,0,0,0c0,0,0.1,0.1,0.1,0.1c0,0.1,0,0.1,0.1,0.2l0,0.1c0,0,0,0.1,0,0.1c0,0,0,0,0,0.1c0,0,0,0,0,0c0,0.1,0,0.2,0,0.4
		c0,0,0,0,0,0.1c0,0,0,0.1,0,0.2c0,0,0,0.1-0.1,0.2c-0.1,0.1-0.1,0.2-0.2,0.2c0,0-0.1,0-0.1,0c0,0,0,0,0,0l-0.2,0c-0.1,0,0,0-0.1,0
		c-0.1,0-0.2,0-0.2,0c0,0-0.1,0-0.1-0.1c-0.1,0-0.2-0.1-0.2-0.2c-0.1-0.1-0.1-0.1-0.2-0.2c-0.1-0.1-0.1-0.2-0.1-0.3l0,0c0,0,0,0,0,0
		l0-0.2c0.1-0.1,0.1-0.2,0.2-0.3c0.1-0.1,0.1-0.1,0.2-0.1l0,0l0,0l0,0.1l-0.1,0.1l0,0.1c0,0.2,0,0.3,0.1,0.3c0,0,0.1,0,0,0.1
		c0,0.1,0.1,0.1,0.2,0.2c0.1,0,0.1,0,0.2,0c0.2-0.1,0.2-0.1,0.3-0.2c0-0.1,0.1-0.1,0.1-0.2c0-0.1,0-0.2,0-0.3c0-0.1,0-0.2-0.1-0.3
		l-0.2-0.3l0,0l-0.1-0.1l0-0.1l0,0l0,0c-0.1-0.1-0.1-0.2-0.1-0.3c0,0,0-0.1,0-0.1l0-0.1c0,0,0-0.2,0-0.2c0-0.1,0-0.2,0-0.2
		c0-0.1,0.1-0.1,0.1-0.2c0,0,0,0,0.1-0.1l0.1-0.1c0.1,0,0.1-0.1,0.2-0.1c0.2,0,0.2,0,0.3,0C178,112.3,178,112.4,178,112.5z"/>
	<path class="st3" d="M180.4,113.1c0,0-0.2,0.4-0.3,0.4c0,0-0.1,0.1-0.2,0.3l-0.1,0.2c0,0,0,0,0,0.1l0,0c-0.1,0-0.1,0.1-0.2,0.2
		c0,0-0.1,0.1-0.1,0.1c0,0-0.1,0-0.2,0.1c-0.1,0-0.1,0.1-0.2,0.1c-0.1,0-0.1,0-0.2,0c-0.1,0-0.1-0.1-0.2-0.2c0,0,0,0,0-0.1
		c0,0,0-0.1,0-0.1c0,0,0-0.1,0-0.1c0-0.2,0-0.4,0.1-0.5c0-0.1,0.1-0.3,0.1-0.4c0-0.2,0.1-0.3,0.1-0.5v-0.1c0,0,0-0.1,0-0.1
		c0,0,0.1,0,0.1,0c0,0,0.1,0.1,0.1,0.1c0,0,0.1,0.1,0.1,0.1c0,0,0,0.1,0,0.1c0,0.1,0,0.1,0,0.2c0,0.1-0.1,0.2-0.1,0.4
		c0,0,0,0.1,0,0.1c0,0,0,0,0,0c0,0.1,0,0.2,0,0.3c0,0.1,0,0.2,0,0.3c0.1,0,0.2-0.1,0.3-0.1c0.2-0.1,0.3-0.3,0.5-0.4
		c0.2-0.1,0.3-0.3,0.4-0.4c0.1-0.1,0.2-0.2,0.4-0.3C180.4,112.9,180.4,113,180.4,113.1L180.4,113.1z M178.9,111.9
		c-0.1-0.1-0.1-0.1-0.1-0.2c0-0.1,0.2-0.2,0.3-0.3c0,0,0,0,0,0c0.1,0,0.2,0,0.2,0.1c0,0.1,0.1,0.2,0,0.3c0,0.1-0.1,0.2-0.2,0.2
		c0,0-0.1,0-0.2,0C179,112,179,112,178.9,111.9z"/>
	<path class="st3" d="M180.7,114.2c0-0.1,0-0.2-0.1-0.3c0-0.1,0-0.2,0-0.3c0-0.1,0-0.1,0-0.1c0-0.1,0-0.2,0-0.4c0-0.2,0-0.2,0.1-0.4
		c0,0,0-0.1,0-0.1c0,0,0-0.1,0-0.1c0-0.1,0-0.4,0-0.4c0,0-0.1,0.1-0.2,0.1c-0.1,0-0.2,0.1-0.2,0.1c-0.1,0-0.1-0.2-0.1-0.3
		c0-0.1,0.1-0.1,0.1-0.1c0.1-0.1,0.2-0.1,0.2-0.2c0.1,0,0.1-0.1,0.1-0.1c0,0,0-0.1,0-0.1c0,0,0,0,0.1-0.2c0-0.1,0.1-0.4,0.1-0.5
		c0.1-0.1,0.1-0.3,0.2-0.4c0.1-0.2,0.2-0.3,0.2-0.5c0.1-0.2,0.2-0.4,0.3-0.6c0.1-0.2,0.2-0.3,0.3-0.5c0-0.1,0.1-0.2,0.2-0.3
		c0.1-0.1,0.2-0.3,0.3-0.4c0.2-0.2,0.4-0.4,0.6-0.6c0.2-0.1,0.4-0.3,0.6-0.2c0.1,0,0.3,0.1,0.4,0.1c0.1,0,0.1,0,0.1,0.1
		c0.1,0.1,0.1,0.2,0.1,0.3c0,0.1,0,0.3-0.1,0.5c0,0.2-0.1,0.3-0.2,0.5c0,0.1-0.1,0.3-0.2,0.4c-0.1,0.2-0.2,0.3-0.3,0.5
		c-0.1,0.1-0.2,0.2-0.2,0.3c-0.1,0.1-0.2,0.2-0.3,0.4c-0.1,0.1-0.2,0.2-0.2,0.3c-0.1,0.1-0.3,0.3-0.4,0.4c-0.1,0.1-0.3,0.2-0.4,0.3
		c-0.1,0.1-0.2,0.2-0.3,0.2c-0.1,0.1-0.2,0.1-0.3,0.1c0,0-0.1,0.3-0.1,0.3c0,0.2-0.1,0.5-0.1,0.7c0,0,0,0,0,0
		c0.1-0.1,0.1-0.1,0.2-0.2c0,0,0.1,0,0.1,0c0.1,0,0.2,0,0.4,0c0.2,0,0.3,0.1,0.5,0.1c0.2,0.1,0.2,0.2,0.2,0.4c0,0.3-0.2,0.6-0.4,0.8
		c-0.1,0.1-0.2,0.2-0.3,0.3c-0.2,0.1-0.3,0.3-0.5,0.4c-0.1,0-0.1,0.1-0.2,0.1C180.8,114.5,180.7,114.4,180.7,114.2z M181.4,113.8
		c0.1-0.1,0.2-0.3,0.4-0.4c0.1-0.1,0.2-0.3,0.2-0.5c0-0.1,0-0.2-0.1-0.2c0,0-0.1,0-0.2,0h0c-0.2,0-0.3,0.1-0.4,0.2
		c0,0-0.2,0.1-0.2,0.2c0,0-0.1,0.1-0.1,0.2l0,0.3v0c0,0.1,0,0.3,0,0.5c0,0,0.1,0.1,0.1,0C181.2,114,181.3,113.9,181.4,113.8z
		 M181.3,111.1C181.4,111.1,181.4,111.1,181.3,111.1c0.3-0.2,0.5-0.4,0.7-0.6c0.1-0.1,0.3-0.3,0.4-0.4c0.2-0.2,0.4-0.5,0.6-0.7
		c0.2-0.4,0.5-0.7,0.6-1.2c0.1-0.2,0.1-0.4,0.1-0.6c0,0,0-0.1,0-0.1c0,0-0.1-0.1-0.2-0.1c-0.1,0-0.1,0-0.2,0.1
		c-0.2,0.1-0.2,0.2-0.4,0.3l-0.1,0.2c-0.1,0.1-0.1,0.2-0.2,0.3c0,0.1-0.1,0.2-0.2,0.3c0,0.1-0.1,0.2-0.1,0.3
		c-0.1,0.1-0.1,0.3-0.2,0.4c-0.1,0.2-0.2,0.4-0.3,0.7c0,0,0,0.1-0.1,0.1c-0.1,0.2-0.1,0.4-0.2,0.5
		C181.4,110.9,181.4,111,181.3,111.1L181.3,111.1z"/>
	<path class="st3" d="M185.9,108.6c0,0.1-0.1,0.1,0,0.1l-0.1,0.5c0,0.1,0,0.1,0,0.1l0,0l-0.1,0.1l0,0.2c0,0,0,0.1-0.1,0.1
		c0,0,0,0.1,0,0.1c0,0.1,0,0.1,0,0.2c0,0-0.6,1.1-0.7,1.2l-0.5,0.7c0,0,0,0,0,0c0,0,0,0.1-0.1,0.1l-0.2,0.2
		c-0.1,0.1-0.3,0.3-0.4,0.4c0,0.1-0.1,0.3-0.1,0.4c0,0.2-0.1,0.4,0,0.6c0,0.3,0,0.5,0.1,0.7c0,0.1,0.1,0.2,0.2,0.3
		c0.2,0.1,0.2,0,0.4-0.1c0.2-0.1,0,0.3-0.2,0.4c-0.1,0-0.2,0-0.4,0c0,0-0.1-0.1-0.1-0.1c0-0.1-0.1-0.1-0.1-0.2
		c0-0.1-0.1-0.1-0.1-0.2c0-0.1,0-0.2-0.1-0.3c0-0.2,0-0.4,0-0.7c0-0.1,0-0.2,0.1-0.6l0.1-0.3c0,0,0-0.1,0-0.1c0-0.1,0-0.2,0.1-0.3
		c0-0.1,0-0.2,0.1-0.4c0-0.1,0.1-0.3,0.1-0.4c0-0.1,0.1-0.2,0.1-0.2c0-0.1,0-0.1,0.1-0.2c0,0,0.2-0.6,0.2-0.6c0,0,0.1-0.1,0.1-0.2
		l0.1-0.2l0.1-0.2c0,0,0,0,0,0l0.4-0.7c0.1-0.1,0.2-0.3,0.2-0.3c0.1-0.1,0.2-0.2,0.3-0.2c0.1-0.1,0.2-0.1,0.4,0c0,0,0.1,0,0.1,0.1
		c0,0,0.1,0.1,0.1,0.1l0.1,0c0,0,0,0,0,0c0,0.1,0,0.1,0,0.2L185.9,108.6z M185.5,108.4C185.5,108.4,185.5,108.4,185.5,108.4l-0.1,0
		c0,0,0,0,0,0.1c-0.1,0.1-0.2,0.2-0.2,0.3c-0.1,0.1-0.2,0.2-0.2,0.3c0,0.1-0.1,0.2-0.2,0.3c0,0.1-0.1,0.2-0.2,0.3
		c0,0.1-0.1,0.2-0.1,0.3c0,0,0,0.1-0.1,0.1c0,0.1-0.1,0.2-0.1,0.2c0,0.1-0.1,0.1-0.1,0.2c0,0.1,0,0.1,0,0.1c0,0.1-0.1,0.2-0.1,0.3
		c0,0.1-0.1,0.3-0.2,0.4c0,0,0,0.1-0.1,0.1l-0.1,0.3c0.1-0.1,0.2-0.3,0.3-0.4c0.1-0.1,0.3-0.3,0.4-0.5c0.1-0.1,0.1-0.2,0.2-0.3
		c0.1-0.1,0.1-0.2,0.2-0.4c0.1-0.2,0.2-0.4,0.3-0.6c0.1-0.1,0.1-0.3,0.2-0.5c0.1-0.2,0.1-0.3,0.1-0.5
		C185.5,108.7,185.5,108.5,185.5,108.4z"/>
	<path class="st3" d="M187.2,113.3C187.2,113.4,187.2,113.4,187.2,113.3l-0.1,0.1c0,0-0.1,0,0,0.1c0,0-0.1,0-0.1,0.1v0
		c0,0,0,0.1-0.1,0.1c0,0-0.1,0.1-0.1,0.1l-0.2,0.1c-0.1,0-0.1,0.1-0.2,0.1c-0.1,0-0.2,0.1-0.3,0.2c-0.1,0-0.1,0-0.2,0
		c0,0-0.1,0-0.1,0c0,0-0.1,0-0.1,0c-0.1,0-0.1,0-0.2,0c-0.1,0-0.2,0-0.3-0.1s-0.1,0-0.2-0.1c0,0,0,0,0,0c-0.1,0-0.1-0.1-0.2-0.2
		c0,0,0,0,0-0.1c0-0.1,0-0.2,0-0.3c0-0.2,0.1-0.4,0.2-0.6c0-0.1,0.1-0.1,0.1-0.2c0.1-0.1,0.2-0.2,0.3-0.3c0.1-0.1,0.2-0.1,0.3-0.2
		c0,0,0.1,0,0.1,0c0.1,0,0.2,0,0.3,0.1c0.1,0,0.2,0.1,0.2,0.2c0.1,0,0.1,0.2,0.1,0.3c0,0,0,0.1-0.1,0.1c-0.1,0.1-0.2,0.2-0.3,0.3
		c0,0-0.1,0-0.1,0.1c0,0.1-0.1,0.1-0.1,0.1l-0.1,0.1c0,0,0,0,0,0c-0.1,0-0.1,0.1-0.2,0.1c0,0,0,0-0.1,0.1c-0.1,0-0.1,0-0.2,0.1
		c0,0.1,0.1,0.1,0.1,0.2c0.1,0,0.3,0,0.4,0c0.1,0,0.2,0,0.3-0.1c0.1,0,0.1-0.1,0.2-0.1c0,0,0.1,0,0.1,0l0.3-0.2l0,0
		c0.1-0.1,0.3-0.2,0.4-0.2c0,0,0.1,0,0.1-0.1l0.3-0.2l0,0.1c0,0,0,0,0,0c0,0,0,0-0.1,0.1L187.2,113.3z M185,113.5
		c0.1,0,0.1-0.1,0.2-0.1l0.3-0.2l0.3-0.2c0.1,0,0.1-0.1,0.1-0.2c0,0,0-0.1-0.1-0.1c-0.1,0-0.2,0-0.3,0.1c-0.1,0.1-0.2,0.1-0.2,0.2
		c-0.1,0.1-0.1,0.2-0.2,0.3C185.1,113.3,185.1,113.4,185,113.5z"/>
</g>
<g>
	<path d="M57.6,88c-1.2,0-1.9-0.8-1.9-2.1c0-1.5,0.7-2.3,2-2.3c0.6,0,1,0.1,1.3,0.2l-0.2,0.7c-0.3-0.1-0.6-0.2-1-0.2
		c-0.7,0-1.2,0.3-1.2,1.5c0,1.1,0.5,1.4,1.2,1.4c0.4,0,0.8-0.1,1.2-0.3l0.3,0.6C58.7,87.8,58.3,88,57.6,88z"/>
	<path d="M59.7,87.9v-4.5l0.8-0.1v1.9c0.3-0.3,0.8-0.5,1.2-0.5c0.5,0,0.7,0.2,0.8,0.6c0,0.2,0,0.4,0,0.8v1.8h-0.8v-1.6
		c0-0.3,0-0.5,0-0.6c0-0.1-0.2-0.2-0.4-0.2c-0.3,0-0.5,0.1-0.8,0.2v2.3H59.7z"/>
	<path d="M65.1,87.9l0-0.3c-0.3,0.3-0.6,0.4-0.9,0.4c-0.7,0-1-0.5-1-1c0-0.4,0.2-0.7,0.6-0.8c0.3-0.1,0.8-0.1,1.3-0.2v-0.2
		c0-0.1,0-0.3-0.1-0.4c-0.1-0.1-0.2-0.1-0.4-0.1c-0.3,0-0.6,0.1-1,0.2L63.4,85c0.5-0.2,1-0.3,1.4-0.3c0.5,0,0.8,0.1,1,0.5
		c0.1,0.2,0.1,0.4,0.1,0.8v2H65.1z M65.1,86.6c-0.3,0-0.6,0-0.8,0.1c-0.2,0-0.3,0.1-0.3,0.3c0,0.2,0.1,0.4,0.5,0.4
		c0.3,0,0.5-0.1,0.6-0.3V86.6z"/>
	<path d="M66.7,87.9v-3.1l0.8-0.1l0,0.5c0.2-0.3,0.5-0.5,0.9-0.5c0.1,0,0.2,0,0.3,0l-0.1,0.7c-0.1,0-0.2,0-0.3,0
		c-0.3,0-0.5,0.1-0.8,0.2v2.2H66.7z"/>
	<path d="M69.2,87.9v-4.5l0.8-0.1v4.6H69.2z"/>
	<path d="M72.2,88c-1,0-1.5-0.5-1.5-1.6c0-1.1,0.6-1.7,1.7-1.7c1,0,1.5,0.6,1.5,1.6C73.8,87.4,73.2,88,72.2,88z M72.3,85.3
		c-0.5,0-0.7,0.3-0.7,1c0,0.9,0.3,1.1,0.7,1.1c0.4,0,0.7-0.2,0.7-1C72.9,85.7,72.8,85.3,72.3,85.3z"/>
	<path d="M75.5,88c-0.3,0-0.6-0.1-0.7-0.3c-0.1-0.2-0.2-0.4-0.2-0.9v-1.4h-0.5v-0.6l0.5-0.1l0-0.8l0.8-0.1v0.9h0.7v0.7h-0.7v1.2
		c0,0.3,0,0.4,0.1,0.5c0.1,0.1,0.2,0.1,0.3,0.1c0.2,0,0.3,0,0.4,0l0.1,0.6C76.1,87.9,75.9,88,75.5,88z"/>
	<path d="M77.7,88c-0.3,0-0.6-0.1-0.7-0.3c-0.1-0.2-0.2-0.4-0.2-0.9v-1.4h-0.5v-0.6l0.5-0.1l0-0.8l0.8-0.1v0.9h0.7v0.7h-0.7v1.2
		c0,0.3,0,0.4,0.1,0.5c0.1,0.1,0.2,0.1,0.3,0.1c0.2,0,0.3,0,0.4,0l0.1,0.6C78.3,87.9,78.1,88,77.7,88z"/>
	<path d="M80.2,88c-1,0-1.5-0.6-1.5-1.6c0-1.2,0.7-1.7,1.6-1.7c1.2,0,1.4,0.8,1.4,1.6c0,0.1,0,0.2,0,0.3h-2.1c0,0,0,0.1,0,0.1
		c0,0.3,0.3,0.6,0.8,0.6c0.4,0,0.7-0.1,1-0.2l0.2,0.5C81.2,87.9,80.8,88,80.2,88z M80.9,85.9c0-0.4-0.2-0.6-0.6-0.6
		c-0.4,0-0.7,0.2-0.7,0.7h1.3C80.9,86,80.9,85.9,80.9,85.9z"/>
	<path d="M83.7,87.9l0.1-4.2H85c0.6,1.4,0.8,1.9,0.9,2.3c0.1-0.4,0.3-0.9,0.9-2.3H88l0.1,4.2h-0.9c-0.1-2-0.1-2.5-0.1-3.1
		c-0.2,0.5-0.3,0.9-0.9,2.4h-0.6c-0.6-1.5-0.8-1.9-0.9-2.4c0,0.6,0,1.2-0.1,3.1H83.7z"/>
	<path d="M90.7,87.9l0-0.3c-0.3,0.3-0.6,0.4-0.9,0.4c-0.7,0-1-0.5-1-1c0-0.4,0.2-0.7,0.6-0.8c0.3-0.1,0.8-0.1,1.3-0.2v-0.2
		c0-0.1,0-0.3-0.1-0.4c-0.1-0.1-0.2-0.1-0.4-0.1c-0.3,0-0.6,0.1-1,0.2L89,85c0.5-0.2,1-0.3,1.4-0.3c0.5,0,0.8,0.1,1,0.5
		c0.1,0.2,0.1,0.4,0.1,0.8v2H90.7z M90.7,86.6c-0.3,0-0.6,0-0.8,0.1c-0.2,0-0.3,0.1-0.3,0.3c0,0.2,0.1,0.4,0.5,0.4
		c0.3,0,0.5-0.1,0.6-0.3V86.6z"/>
	<path d="M92.2,87.2c0.3,0.1,0.6,0.2,1,0.2c0.3,0,0.5-0.2,0.5-0.3c0-0.2-0.1-0.2-0.3-0.3l-0.5-0.1c-0.5-0.1-0.8-0.4-0.8-0.9
		c0-0.5,0.4-1,1.4-1c0.3,0,0.7,0.1,1,0.2l-0.2,0.6c-0.3-0.1-0.6-0.1-0.9-0.1c-0.3,0-0.4,0.2-0.4,0.3c0,0.2,0.1,0.2,0.3,0.3l0.5,0.1
		c0.6,0.2,0.8,0.5,0.8,0.9c0,0.5-0.3,1-1.4,1c-0.4,0-0.9-0.1-1.2-0.2L92.2,87.2z"/>
	<path d="M96.5,88c-1,0-1.5-0.5-1.5-1.6c0-1.1,0.6-1.7,1.7-1.7c1,0,1.5,0.6,1.5,1.6C98.1,87.4,97.6,88,96.5,88z M96.6,85.3
		c-0.5,0-0.7,0.3-0.7,1c0,0.9,0.3,1.1,0.7,1.1c0.4,0,0.7-0.2,0.7-1C97.3,85.7,97.1,85.3,96.6,85.3z"/>
	<path d="M98.8,87.9v-3.1l0.8-0.1l0,0.4c0.3-0.3,0.8-0.5,1.2-0.5c0.5,0,0.7,0.2,0.8,0.6c0,0.2,0,0.4,0,0.8v1.8h-0.8v-1.6
		c0-0.3,0-0.5,0-0.6c0-0.1-0.2-0.2-0.4-0.2c-0.3,0-0.5,0.1-0.8,0.2v2.3H98.8z"/>
</g>
</svg>
