<svg width="73" height="14" viewBox="0 0 73 14" fill="none" xmlns="http://www.w3.org/2000/svg">
<path d="M0.5 7.7C0.5 7.5 0.6 7.6 0.5 7.7C0.6 7.7 0.699997 7.7 0.699997 7.8C0.699997 7.9 0.700003 8 0.800003 8.1C0.900003 8.1 0.999998 8.1 1.1 8C1.1 7.9 1.2 7.9 1.2 7.8C1.2 7.7 1.3 7.7 1.3 7.6C1.3 7.5 1.4 7.5 1.4 7.4C1.4 7.3 1.5 7.3 1.5 7.2C1.5 7.1 1.6 7 1.6 7C1.6 6.9 1.7 6.8 1.7 6.8C1.7 6.7 1.8 6.7 1.8 6.6C1.8 6.5 1.8 6.4 1.9 6.4C1.9 6.3 2 6.3 2 6.2C2 6.1 2.1 6 2.1 6C2.1 5.9 2.2 5.8 2.2 5.8C2.2 5.7 2.3 5.6 2.3 5.6C2.3 5.5 2.3 5.6 2.3 5.6C2.3 5.5 2.4 5.2 2.5 5.2C2.5 5.1 2.6 5 2.6 5C2.6 4.9 2.7 4.8 2.7 4.8C2.7 4.7 2.8 4.6 2.8 4.6C2.8 4.5 2.8 4.4 2.9 4.4C2.9 4.3 3 4.3 3 4.2C3 4.1 3.1 4 3.1 4C3.1 3.9 3.2 3.8 3.2 3.8C3.2 3.7 3.3 3.6 3.3 3.6C3.3 3.5 3.4 3.4 3.4 3.4C3.4 3.3 3.5 3.2 3.5 3.1C3.5 3 3.6 3 3.6 2.9C3.6 2.8 3.7 2.8 3.8 2.7C3.9 2.7 3.9 2.7 4 2.7C4.1 2.8 4.1 2.8 4.2 2.9C4.2 3 4.2 3.1 4.2 3.2C4.2 3.3 4.2 3.4 4.2 3.5C4.2 3.6 4.2 3.7 4.2 3.8C4.2 3.9 4.2 4 4.2 4.1C4.2 4.2 4.2 4.3 4.2 4.4C4.2 4.5 4.2 4.6 4.2 4.7C4.2 4.8 4.2 4.9 4.2 5C4.2 5.1 4.2 5.2 4.2 5.3C4.2 5.4 4.2 5.5 4.2 5.6C4.2 5.7 4.2 5.8 4.2 5.9C4.2 6 4.2 6.1 4.2 6.2C4.2 6.3 4.2 6.4 4.2 6.5C4.2 6.6 4.2 6.7 4.2 6.8C4.2 6.9 4.2 7 4.2 7.1C4.2 7.2 4.2 7.3 4.2 7.3C4.2 7.4 4.2 7.6 4.2 7.7C4.3 7.6 4.4 7.4 4.4 7.4C4.4 7.3 4.5 7.2 4.5 7.2C4.5 7.1 4.6 7 4.6 7C4.6 6.9 4.7 6.9 4.7 6.8C4.7 6.7 4.8 6.6 4.8 6.6C4.8 6.5 4.9 6.5 4.9 6.4C4.9 6.3 5 6.2 5 6.2C5 6.1 5.1 6 5.1 6C5.1 5.9 5.2 5.9 5.2 5.8C5.2 5.7 5.3 5.6 5.3 5.6C5.3 5.5 5.4 5.5 5.4 5.4C5.5 5.3 5.5 5.3 5.6 5.3C5.7 5.3 5.8 5.3 5.8 5.3C5.8 5.3 5.9 5.4 5.9 5.5C5.9 5.6 5.9 5.7 5.9 5.9C5.9 6 5.9 6.1 5.9 6.1C5.9 6.2 5.9 6.3 5.9 6.3C5.9 6.4 5.9 6.5 5.9 6.5C5.9 6.6 5.9 6.7 5.9 6.7C5.9 6.8 5.9 6.9 5.9 6.9C5.9 7 5.9 7.1 5.9 7.1C5.9 7.2 5.9 7.3 5.9 7.3C5.9 7.4 5.9 7.5 5.9 7.5C5.9 7.6 5.9 7.7 5.9 7.7C5.9 7.8 5.9 7.9 5.9 8C5.9 8.1 5.9 8 5.9 8C5.9 8.1 5.9 8.4 5.9 8.5C5.9 8.6 5.9 8.7 6 8.8C6 8.9 6 9 6.1 9.1C6.1 9.2 6.2 9.3 6.2 9.4C6.2 9.5 6.3 9.6 6.4 9.6C6.5 9.7 6.5 9.7 6.6 9.8C6.7 9.8 6.8 9.9 6.9 9.9C6.9 9.9 6.9 10 7 10L6.9 10.1C6.8 10.1 6.7 10 6.6 10C6.5 10 6.4 10 6.3 9.9C6.2 9.9 6.2 9.8 6.1 9.7C6 9.6 6 9.6 5.9 9.5C5.9 9.4 5.7 9.2 5.7 9.1C5.7 9 5.7 9.1 5.7 9C5.7 8.9 5.6 8.8 5.6 8.8C5.6 8.7 5.6 8.6 5.5 8.5C5.5 8.4 5.5 8.3 5.5 8.2C5.5 8.1 5.4 8 5.4 7.9C5.4 7.8 5.4 7.7 5.4 7.6C5.4 7.5 5.4 7.4 5.4 7.3C5.4 7.2 5.4 6.9 5.4 6.8C5.4 6.7 5.4 6.8 5.4 6.7C5.4 6.6 5.4 6.5 5.4 6.4C5.4 6.3 5.4 6.2 5.4 6.1C5.4 6 5.4 6 5.5 5.9C5.5 5.8 5.5 5.7 5.5 5.7C5.5 5.6 5.5 5.5 5.5 5.5C5.5 5.6 5.4 5.6 5.4 5.7C5.4 5.8 5.3 5.9 5.3 5.9C5.3 6 5.2 6 5.1 6.1C5.1 6.2 5 6.3 5 6.3C5 6.4 4.9 6.5 4.9 6.5C4.9 6.6 4.8 6.6 4.7 6.7C4.7 6.8 4.6 6.9 4.6 6.9C4.6 7 4.5 7 4.5 7.1C4.5 7.2 4.4 7.2 4.4 7.3C4.4 7.4 4.3 7.5 4.3 7.5C4.3 7.6 4.2 7.6 4.2 7.7C4.1 7.8 4.1 7.9 4 7.9C3.9 8 3.8 8 3.7 7.9C3.6 7.9 3.6 7.8 3.6 7.7C3.6 7.6 3.6 7.6 3.6 7.6C3.6 7.5 3.6 7.5 3.6 7.4C3.6 7.3 3.6 7.2 3.6 7.1C3.6 7 3.6 6.9 3.6 6.8C3.6 6.7 3.6 6.6 3.6 6.5C3.6 6.4 3.6 6.3 3.6 6.2C3.6 6.1 3.6 6 3.6 5.9C3.6 5.8 3.6 5.7 3.6 5.6C3.6 5.5 3.6 5.4 3.6 5.3C3.6 5.2 3.6 5.1 3.6 5C3.6 4.9 3.6 4.8 3.6 4.7C3.6 4.6 3.6 4.5 3.6 4.4C3.6 4.3 3.6 4.2 3.6 4.1C3.6 4 3.6 3.9 3.6 3.8C3.6 3.7 3.6 3.6 3.6 3.5C3.6 3.5 3.6 3.6 3.5 3.6C3.5 3.7 3.5 3.8 3.4 3.9C3.4 4 3.3 4.1 3.3 4.1C3.3 4.2 3.2 4.3 3.2 4.3C3.2 4.4 3.1 4.5 3.1 4.6C3.1 4.7 3 4.8 3 4.8C3 4.9 2.9 5 2.9 5C2.9 5.1 2.8 5.2 2.8 5.2C2.8 5.3 2.7 5.4 2.7 5.4C2.7 5.5 2.6 5.6 2.6 5.6C2.6 5.7 2.5 5.8 2.5 5.8C2.5 5.9 2.4 6 2.4 6C2.4 6.1 2.3 6.2 2.3 6.2C2.3 6.3 2.2 6.4 2.2 6.4C2.2 6.5 2.1 6.6 2.1 6.6C2.1 6.7 2 6.8 2 6.8C2 6.9 1.9 6.9 1.9 7C1.9 7.1 1.9 6.9 1.9 7C1.9 7.1 1.7 7.3 1.7 7.4C1.7 7.5 1.6 7.5 1.6 7.6C1.6 7.7 1.5 7.7 1.5 7.8C1.5 7.9 1.4 7.9 1.4 8C1.3 8.1 1.3 8.1 1.2 8.1C1.1 8.2 1 8.2 0.900002 8.2C0.800002 8.2 0.699998 8.2 0.599998 8.1C0.499998 8 0.5 8 0.5 7.7C0.5 7.8 0.5 7.7 0.5 7.7Z" fill="#00587C"/>
<path d="M8.30039 6.7C8.10039 6.7 8.20039 6.2 8.20039 6.2C7.90039 6.2 7.60039 6.7 7.50039 6.9C7.40039 7.1 7.30039 7.2 7.30039 7.4C7.40039 7.4 7.60039 7.4 7.70039 7.4C7.80039 7.4 7.90039 7.3 8.00039 7.2C8.00039 7 8.10039 6.9 8.30039 6.7C8.20039 6.7 8.30039 6.7 8.30039 6.7ZM10.2004 6.8L10.0004 7L9.90039 7.1L9.80039 7.2L9.60039 7.4C9.50039 7.5 9.40039 7.5 9.30039 7.6C9.20039 7.6 9.20039 7.6 9.20039 7.6H9.10039H9.00039C9.00039 7.6 8.90039 7.6 8.80039 7.6H8.70039C8.70039 7.6 8.70039 7.6 8.60039 7.5C8.50039 7.4 8.50039 7.4 8.40039 7.3C8.30039 7.2 8.40039 7.2 8.30039 7.2C8.20039 7.2 8.20039 7.3 8.20039 7.3C8.20039 7.3 8.20039 7.3 8.20039 7.4C8.10039 7.5 7.90039 7.6 7.80039 7.7C7.60039 7.8 7.50039 7.8 7.30039 7.7C7.30039 7.7 7.30039 7.7 7.20039 7.7C7.20039 7.7 7.10039 7.6 7.00039 7.6C6.90039 7.5 6.90039 7.4 6.90039 7.2C6.90039 7.1 6.90039 7.1 7.00039 7C7.00039 6.9 7.00039 6.9 7.10039 6.8L7.20039 6.7L7.30039 6.6C7.40039 6.4 7.50039 6.3 7.70039 6.2C7.80039 6.1 8.00039 6 8.20039 5.9C8.40039 5.9 8.60039 6 8.70039 6.2C8.70039 6.3 8.70039 6.4 8.60039 6.5C8.70039 6.5 8.70039 6.4 8.90039 6.4C9.00039 6.4 9.00039 6.5 9.00039 6.5C9.00039 6.5 9.00039 6.6 9.00039 6.7C9.00039 6.8 9.00039 7 9.00039 7.1C9.00039 7.1 9.00039 7.2 9.10039 7.2C9.10039 7.2 9.10039 7.2 9.20039 7.2H9.30039C9.50039 7.1 9.60039 7 9.70039 6.9C9.80039 6.8 10.0004 6.7 10.1004 6.6C10.3004 6.5 10.3004 6.5 10.5004 6.3C10.6004 6.2 10.6004 6.2 10.7004 6.1V6.2C10.5004 6.6 10.3004 6.7 10.2004 6.8Z" fill="#00587C"/>
<path d="M12.3998 1.9C12.3998 1.9 12.2998 1.9 12.3998 1.9C12.1998 2.1 12.1998 2.1 12.0998 2.2C11.9998 2.3 11.8998 2.4 11.7998 2.6C11.6998 2.7 11.6998 2.9 11.5998 3C11.5998 3.1 11.4998 3.2 11.3998 3.4C11.3998 3.5 11.2998 3.5 11.2998 3.6C11.1998 3.7 11.1998 3.8 11.1998 4C11.0998 4.3 10.9998 4.4 10.9998 4.7C10.8998 5 10.8998 5.1 10.7998 5.3V5.2C10.8998 5.1 10.9998 5 11.0998 4.8C11.1998 4.7 11.2998 4.6 11.3998 4.5C11.3998 4.5 11.4998 4.4 11.4998 4.3C11.5998 4.1 11.6998 4 11.7998 3.9C11.8998 3.7 11.9998 3.6 11.9998 3.5C12.0998 3.4 12.0998 3.2 12.1998 3.1C12.1998 3 12.2998 2.8 12.3998 2.6C12.3998 2.5 12.3998 2.5 12.4998 2.4C12.4998 2 12.4998 2 12.3998 1.9ZM12.7998 2.4C12.7998 2.4 12.7998 2.5 12.7998 2.6V2.7C12.7998 2.7 12.7998 2.9 12.6998 3C12.4998 3.4 12.2998 3.9 11.9998 4.3L11.8998 4.4C11.8998 4.5 11.7998 4.5 11.7998 4.6C11.7998 4.6 11.7998 4.6 11.7998 4.7L11.6998 4.8L11.5998 4.9C11.4998 5 11.4998 5 11.3998 5.1C11.2998 5.2 11.1998 5.3 11.1998 5.4C11.0998 5.5 10.9998 5.6 10.8998 5.7C10.8998 5.7 10.8998 5.7 10.7998 5.7C10.7998 5.8 10.6998 5.8 10.6998 5.9C10.6998 5.9 10.5998 6.4 10.5998 6.5V6.6C10.5998 6.6 10.6998 6.5 10.7998 6.4C10.8998 6.3 10.9998 6.2 11.1998 6.1C11.2998 6 11.3998 6 11.5998 6C11.6998 6 11.6998 6 11.7998 6C11.7998 6 11.7998 6 12.0998 6.2V6.3C12.0998 6.4 12.0998 6.5 12.0998 6.5C12.0998 6.6 12.0998 6.7 11.9998 6.8C11.8998 6.9 11.8998 6.9 11.7998 7C11.6998 7.1 11.5998 7.2 11.4998 7.2L11.2998 7.3C11.2998 7.5 11.3998 7.7 11.3998 7.8C11.5998 7.8 11.5998 7.8 11.7998 7.7C11.9998 7.6 12.2998 7.4 12.3998 7.3C12.5998 7.2 12.5998 7.1 12.6998 7L12.7998 7.1C12.7998 7.2 12.7998 7.2 12.6998 7.2C12.6998 7.3 12.5998 7.4 12.4998 7.5C12.3998 7.6 12.2998 7.8 12.0998 7.9C11.9998 7.9 11.9998 8 11.8998 8C11.7998 8 11.7998 8.1 11.6998 8.1C11.5998 8.1 11.4998 8.1 11.3998 8.1C11.3998 8.1 11.3998 8.1 11.2998 8.1C11.1998 8.1 11.0998 8.1 11.0998 8C10.9998 8 10.9998 7.9 10.8998 7.9C10.8998 7.8 10.7998 7.8 10.7998 7.7C10.6998 7.5 10.6998 7.3 10.6998 7.1L10.9998 7C11.1998 6.9 11.3998 6.8 11.4998 6.6C11.5998 6.5 11.5998 6.4 11.4998 6.3C11.3998 6.3 11.2998 6.3 11.1998 6.4C11.0998 6.5 10.9998 6.5 10.7998 6.7C10.6998 6.8 10.6998 6.8 10.5998 6.9L10.4998 7L10.3998 7.1C10.3998 7.1 10.3998 7.4 10.2998 7.4C10.2998 7.5 10.2998 7.5 10.2998 7.6V7.7V7.8V7.9C10.2998 8 10.2998 8 10.2998 8.1C10.2998 8.2 10.1998 8.2 10.1998 8.1C10.1998 8.1 10.1998 8.1 10.0998 8.1V8L9.9998 7.9C9.9998 7.9 9.9998 7.9 9.9998 7.8V7.6C9.9998 7.5 9.9998 7.5 9.9998 7.4V7.2C9.9998 7.1 9.9998 7 10.0998 6.9C10.0998 6.8 10.0998 6.7 10.0998 6.6L10.1998 6.1C10.0998 6.1 9.8998 6.3 9.8998 6.3H9.7998V6C9.9998 5.9 10.1998 5.7 10.2998 5.6C10.2998 5.4 10.3998 5.2 10.3998 5C10.4998 4.8 10.4998 4.6 10.5998 4.4C10.6998 4.2 10.6998 3.9 10.7998 3.7C10.8998 3.5 10.9998 3.3 11.0998 3.1C11.0998 3 11.1998 3 11.1998 2.9C11.1998 2.8 11.2998 2.8 11.2998 2.7C11.3998 2.6 11.3998 2.5 11.4998 2.3L11.5998 2.2C11.5998 2.1 11.6998 2.1 11.6998 2C11.6998 2 11.6998 2 11.6998 1.9C11.6998 1.8 11.7998 1.8 11.8998 1.7C11.9998 1.7 11.9998 1.6 12.0998 1.6C12.1998 1.6 12.1998 1.6 12.2998 1.6C12.3998 1.6 12.4998 1.8 12.5998 1.8C12.5998 1.9 12.5998 2 12.5998 2.1V2.2C12.8998 2.3 12.8998 2.3 12.7998 2.4Z" fill="#00587C"/>
<path d="M13.3996 5.5C13.2996 5.4 13.2996 5.4 13.2996 5.3C13.2996 5.2 13.4996 5.1 13.5996 5C13.6996 5 13.7996 5 13.7996 5.1C13.7996 5.2 13.8996 5.3 13.7996 5.4C13.7996 5.5 13.6996 5.6 13.5996 5.6C13.5996 5.6 13.4996 5.6 13.3996 5.5C13.4996 5.6 13.3996 5.6 13.3996 5.5ZM14.7996 6.7C14.7996 6.7 14.5996 7.1 14.4996 7.1C14.4996 7.1 14.3996 7.2 14.2996 7.4L14.1996 7.6C14.1996 7.6 14.1996 7.6 14.1996 7.7C14.0996 7.7 14.0996 7.8 13.9996 7.9L13.8996 8C13.8996 8 13.7996 8 13.6996 8.1C13.5996 8.1 13.5996 8.2 13.4996 8.2C13.3996 8.2 13.3996 8.2 13.2996 8.2C13.1996 8.2 13.1996 8.1 13.0996 8C13.0996 8 13.0996 8 13.0996 7.9V7.8V7.7C13.0996 7.5 13.0996 7.3 13.1996 7.2C13.1996 7.1 13.2996 6.9 13.2996 6.8C13.2996 6.6 13.3996 6.5 13.3996 6.3V6.2V6.1H13.4996L13.5996 6.2L13.6996 6.3V6.4C13.6996 6.5 13.6996 6.5 13.6996 6.6C13.6996 6.7 13.5996 6.8 13.5996 7V7.1C13.5996 7.2 13.5996 7.3 13.5996 7.4C13.5996 7.5 13.5996 7.6 13.5996 7.7C13.6996 7.7 13.7996 7.6 13.8996 7.6C14.0996 7.5 14.1996 7.3 14.3996 7.2C14.5996 7.1 14.6996 6.9 14.7996 6.7C14.8996 6.7 14.9996 6.6 15.1996 6.5C14.8996 6.5 14.8996 6.6 14.7996 6.7Z" fill="#00587C"/>
<path d="M14.5996 8C14.5996 7.8 14.5996 7.7 14.6996 7.5C14.6996 7.3 14.7996 7.2 14.7996 7C14.7996 6.9 14.7996 6.8 14.8996 6.7V6.6C14.8996 6.5 14.8996 6.5 14.9996 6.5C15.0996 6.5 15.1996 6.6 15.2996 6.7C15.2996 6.8 15.2996 6.8 15.2996 6.9C15.2996 7 15.2996 7 15.2996 7.1C15.2996 7.2 15.2996 7.2 15.1996 7.3C15.2996 7.2 15.3996 7 15.4996 6.9C15.5996 6.8 15.5996 6.8 15.6996 6.7C15.6996 6.7 15.7996 6.7 15.8996 6.7C15.9996 6.7 15.9996 6.7 15.9996 6.7C15.9996 6.7 15.9996 6.7 16.1996 6.8V6.9C16.1996 6.9 16.1996 6.9 16.1996 7C16.1996 7.1 16.1996 7.2 16.2996 7.3C16.2996 7.4 16.2996 7.5 16.2996 7.5C16.2996 7.5 16.2996 7.5 16.2996 7.6C16.2996 7.7 16.2996 7.7 16.2996 7.8V7.9C16.2996 7.9 16.2996 7.9 16.2996 8C16.2996 8 16.2996 8 16.4996 7.9C16.5996 7.9 16.5996 7.9 16.6996 7.8L17.5996 6.9C17.6996 6.9 17.6996 6.9 17.5996 7L17.4996 7.1V7.2L17.3996 7.3L17.1996 7.5C17.1996 7.5 17.1996 7.5 17.0996 7.6C17.0996 7.7 16.9996 7.7 16.8996 7.8C16.7996 7.9 16.7996 7.9 16.6996 8C16.5996 8.1 16.3996 8.1 16.2996 8.1C16.1996 8.1 16.1996 8.1 16.1996 8C16.0996 7.9 15.9996 7.8 15.9996 7.7C15.9996 7.5 15.8996 7.3 15.8996 7.1C15.8996 7.1 15.8996 7 15.8996 6.9C15.8996 6.9 15.8996 6.9 15.8996 6.8C15.8996 6.9 15.7996 6.9 15.7996 6.9C15.7996 7 15.6996 7 15.6996 7.1C15.6996 7.2 15.5996 7.2 15.5996 7.2C15.5996 7.2 15.4996 7.3 15.5996 7.3V7.4C15.5996 7.4 15.3996 7.8 15.3996 7.9L15.2996 8V8.1C15.2996 8.2 15.1996 8.2 15.0996 8.2C14.6996 8.2 14.5996 8.1 14.5996 8Z" fill="#00587C"/>
<path d="M18.6002 6.80001C18.6002 6.80001 18.5002 6.80001 18.6002 6.80001C18.5002 6.70001 18.5002 6.6 18.5002 6.6C18.5002 6.5 18.5002 6.40001 18.4002 6.30001H18.3002C18.2002 6.30001 18.0002 6.3 17.9002 6.5C17.8002 6.6 17.7002 6.6 17.7002 6.7C17.7002 6.7 17.7002 6.70001 17.6002 6.80001C17.6002 6.90001 17.5002 6.9 17.4002 7C17.3002 7.1 17.3002 7.20001 17.3002 7.30001C17.3002 7.40001 17.2002 7.5 17.3002 7.6H17.4002C17.5002 7.6 17.7002 7.5 17.8002 7.5L18.1002 7.30001C18.1002 7.20001 18.2002 7.2 18.3002 7.2C18.3002 7.2 18.3002 7.2 18.4002 7.2C18.4002 7.1 18.5002 7.1 18.6002 7C18.5002 6.9 18.5002 6.90001 18.6002 6.80001C18.6002 6.90001 18.6002 6.80001 18.6002 6.80001ZM18.4002 9.1C18.3002 9.1 18.3002 9.2 18.2002 9.2C18.0002 9.3 17.7002 9.4 17.5002 9.5C17.4002 9.6 17.2002 9.70001 17.1002 9.80001C17.0002 9.90001 16.9002 9.9 16.7002 10C16.7002 10.1 16.6002 10.1 16.5002 10.2C16.4002 10.2 16.4002 10.3 16.4002 10.3C16.3002 10.4 16.3002 10.4 16.2002 10.5C16.1002 10.5 16.1002 10.6 16.0002 10.7C16.0002 10.7 15.8002 11 15.8002 11.1L15.6002 11.4L15.5002 11.6C15.5002 11.6 15.5002 11.7 15.4002 11.7C15.4002 11.8 15.4002 11.9 15.3002 11.9C15.3002 12 15.2002 12.2 15.2002 12.3C15.2002 12.5 15.2002 12.7 15.2002 12.8C15.2002 13 15.3002 13.1 15.5002 13.2C15.6002 13.2 15.8002 13.3 15.9002 13.2C16.0002 13.2 16.0002 13.1 16.1002 13.1C16.3002 13.1 16.4002 12.9 16.5002 12.8C16.6002 12.7 16.7002 12.6 16.8002 12.4C17.0002 12.2 17.1002 12 17.2002 11.8C17.3002 11.6 17.4002 11.4 17.5002 11.2C17.6002 11 17.6002 10.9 17.7002 10.7C17.8002 10.5 17.9002 10.2 17.9002 10C17.9002 9.8 18.0002 9.6 18.0002 9.5C18.0002 9.4 18.1002 9.3 18.1002 9.2C18.4002 9.4 18.4002 9.2 18.4002 9.1ZM19.8002 8.7L19.0002 8.9C18.9002 8.9 18.9002 8.9 18.9002 9V9.1H18.8002C18.8002 9.1 18.9002 9.2 18.8002 9.2C18.8002 9.3 18.8002 9.30001 18.8002 9.30001C18.8002 9.40001 18.8002 9.4 18.7002 9.4C18.7002 9.5 18.7002 9.5 18.7002 9.5V9.6V9.7C18.7002 9.8 18.7002 9.80001 18.7002 9.80001V9.9C18.7002 9.9 18.7002 9.9 18.8002 9.9C18.8002 10 18.8002 10.1 18.7002 10.1C18.7002 10.1 18.7002 10.2 18.7002 10.3C18.7002 10.4 18.7002 10.3 18.7002 10.4V10.5C18.7002 10.5 18.7002 10.5 18.7002 10.6V10.7L18.5002 11.1H18.4002V11.2L18.3002 11.4C18.3002 11.5 18.2002 11.5 18.2002 11.5C18.2002 11.5 18.2002 11.6 18.1002 11.6C18.1002 11.6 18.1002 11.6 18.1002 11.7C18.1002 11.8 18.0002 11.7 18.0002 11.7C18.0002 11.7 18.0002 11.7 18.1002 11.7H18.0002C18.0002 11.8 17.9002 11.8 17.9002 11.9H18.0002L17.9002 12L17.8002 12.1C17.7002 12.2 17.6002 12.3 17.5002 12.4C17.5002 12.5 17.5002 12.5 17.4002 12.5C17.3002 12.6 17.3002 12.6 17.2002 12.7C17.1002 12.7 17.0002 12.8 16.9002 12.8C16.9002 12.8 16.9002 12.9 16.8002 12.9C16.8002 12.9 16.7002 13 16.6002 13C16.5002 13 16.4002 13 16.2002 13H16.1002C15.9002 13 15.8002 12.9 15.7002 12.8C15.6002 12.8 15.5002 12.7 15.4002 12.5C15.4002 12.5 15.3002 12.5 15.3002 12.4C15.3002 12.3 15.2002 12.2 15.2002 12.1V12C15.2002 11.9 15.2002 11.9 15.2002 11.8C15.2002 11.6 15.2002 11.5 15.3002 11.3C15.3002 11.2 15.3002 11 15.4002 10.9L15.5002 10.7L15.6002 10.6C15.7002 10.4 15.8002 10.3 15.9002 10.1C16.0002 10 16.1002 9.8 16.2002 9.6L16.4002 9.4C16.4002 9.4 16.5002 9.3 16.6002 9.2C16.6002 9.2 16.7002 9.1 16.8002 9C17.0002 8.9 17.1002 8.8 17.3002 8.7C17.4002 8.6 17.6002 8.5 17.7002 8.4L18.1002 8.2C18.2002 8.1 18.4002 8.1 18.5002 8C18.6002 8 18.7002 7.90001 18.6002 7.80001V7.7C18.6002 7.5 18.6002 7.40001 18.6002 7.30001C18.6002 7.10001 18.7002 6.9 18.7002 6.7H18.6002C18.6002 6.7 18.6002 6.70001 18.6002 6.80001C18.6002 6.80001 18.6002 6.9 18.5002 6.9C18.5002 6.9 18.4002 7 18.2002 7.2C18.0002 7.2 18.0002 7.30001 17.9002 7.30001C17.9002 7.30001 17.8002 7.30001 17.7002 7.30001C17.6002 7.30001 17.6002 7.30001 17.5002 7.30001L17.3002 7.2C17.3002 7.2 17.3002 7.1 17.2002 7.1C17.2002 7.1 17.2002 7 17.1002 7C17.0002 6.9 17.0002 6.8 17.0002 6.7C16.9002 6.5 17.0002 6.4 17.0002 6.2C17.0002 6.1 17.1002 6.1 17.1002 6C17.1002 6 17.1002 5.90001 17.2002 5.80001C17.3002 5.70001 17.3002 5.5 17.5002 5.4C17.6002 5.4 17.7002 5.2 17.8002 5.2C17.9002 5.2 18.0002 5.1 18.1002 5.2C18.1002 5.2 18.2002 5.2 18.3002 5.2C18.4002 5.2 18.5002 5.30001 18.5002 5.30001C18.6002 5.40001 18.7002 5.4 18.7002 5.5L18.8002 5.6C18.9002 5.6 18.9002 5.4 19.0002 5.4H19.1002C19.2002 5.4 19.2002 5.4 19.3002 5.4V5.6C19.3002 5.7 19.3002 5.80001 19.2002 5.80001C19.2002 5.90001 19.2002 5.9 19.2002 6C19.1002 6.3 19.1002 6.6 19.0002 6.9C19.0002 7 19.0002 7.20001 18.9002 7.30001C18.9002 7.40001 18.9002 7.5 18.9002 7.6C19.0002 7.6 19.1002 7.6 19.3002 7.6C19.4002 7.6 19.5002 7.6 19.6002 7.6C19.7002 8.5 19.8002 8.6 19.8002 8.7Z" fill="#00587C"/>
<path d="M23.5998 3.9C23.7998 3.7 23.8998 3.5 24.0998 3.2C24.1998 3 24.2998 2.9 24.4998 2.7C24.4998 2.6 24.6998 2.5 24.6998 2.4V2.30001L24.7998 2.2C24.8998 2.2 24.7998 2.2 24.8998 2.1V2L24.9998 1.9C24.9998 1.9 25.0998 1.8 25.0998 1.7C25.2998 1.5 25.3998 1.1 25.2998 0.900005C25.0998 1 24.8998 1.2 24.6998 1.4L24.4998 1.6C24.4998 1.6 24.3998 1.6 24.3998 1.7C24.2998 1.8 24.2998 1.8 24.2998 1.9C24.1998 2 24.0998 2.1 24.0998 2.2C23.9998 2.3 23.9998 2.4 23.8998 2.5C23.8998 2.5 23.7998 2.5 23.7998 2.6C23.7998 2.7 23.6998 2.8 23.6998 2.9C23.6998 2.9 23.5998 3 23.5998 3.1C23.5998 3.2 23.4998 3.20001 23.4998 3.30001C23.4998 3.30001 23.3998 3.4 23.4998 3.4C23.4998 3.5 23.3998 3.5 23.3998 3.6V3.7C23.2998 3.7 23.3998 3.9 23.2998 3.9C23.2998 4 23.1998 4.1 23.1998 4.2C23.1998 4.3 23.0998 4.4 23.0998 4.4V4.5C23.2998 4.3 23.3998 4.1 23.5998 3.9ZM23.0998 7.7C22.9998 7.6 22.9998 7.50001 22.9998 7.30001C22.9998 7.10001 22.9998 6.9 23.0998 6.7C23.0998 6.5 23.1998 6.40001 23.1998 6.30001C23.1998 6.10001 23.0998 6.20001 22.9998 6.30001C22.7998 6.40001 22.7998 6.4 22.6998 6.5C22.5998 6.6 22.4998 6.6 22.4998 6.7C22.4998 6.8 22.4998 6.8 22.3998 6.9C22.3998 7 22.2998 7.3 22.2998 7.4C22.2998 7.5 22.2998 7.5 22.1998 7.5C22.0998 7.5 21.9998 7.5 21.8998 7.4C21.8998 7.3 21.8998 7 21.9998 6.9C22.0998 6.6 22.2998 5.4 22.2998 5.4V5.30001C22.1998 5.30001 21.9998 5.5 21.8998 5.5H21.7998V5.2C21.9998 5.1 22.1998 4.90001 22.3998 4.80001C22.3998 4.70001 22.3998 4.8 22.3998 4.7C22.4998 4.4 22.5998 4.2 22.5998 3.9C22.6998 3.6 22.7998 3.4 22.8998 3.1C22.8998 3 22.9998 2.90001 22.9998 2.80001C22.9998 2.80001 22.9998 2.7 23.0998 2.7C22.9998 2.7 22.9998 2.7 23.0998 2.6C23.0998 2.5 23.1998 2.40001 23.2998 2.30001C23.3998 2.20001 23.3998 2 23.4998 1.9C23.4998 1.8 23.5998 1.8 23.5998 1.7V1.6H23.6998C23.7998 1.5 23.7998 1.40001 23.8998 1.30001C23.8998 1.30001 23.8998 1.30001 23.7998 1.30001C23.8998 1.30001 23.8998 1.3 23.8998 1.2L23.9998 1C23.9998 1 24.0998 0.900005 24.1998 0.900005C24.2998 0.700005 24.4998 0.600003 24.6998 0.500003C24.8998 0.400003 24.9998 0.500003 25.0998 0.500003C25.1998 0.500003 25.2998 0.700006 25.1998 0.800006V0.900005C25.1998 1 25.0998 1.1 25.0998 1.2C25.0998 1.2 25.0998 1.20001 25.0998 1.30001C24.9998 1.40001 24.9998 1.5 24.9998 1.6C24.9998 1.7 24.9998 1.80001 24.8998 1.80001C24.7998 1.90001 24.7998 2 24.6998 2.1C24.5998 2.2 24.4998 2.4 24.3998 2.5C24.2998 2.6 24.1998 2.8 24.0998 2.9C23.9998 3.1 23.8998 3.20001 23.7998 3.30001C23.6998 3.50001 23.4998 3.7 23.3998 3.9C23.2998 4 23.2998 4.1 23.1998 4.1C23.0998 4.2 23.0998 4.20001 22.9998 4.30001C22.8998 4.50001 22.6998 4.60001 22.5998 4.80001L22.4998 4.9C22.4998 5 22.4998 5 22.4998 5.1C22.4998 5.1 22.3998 5.4 22.3998 5.5C22.2998 5.8 22.2998 5.8 22.2998 6C22.3998 5.9 22.3998 5.90001 22.4998 5.80001C22.5998 5.70001 22.6998 5.7 22.7998 5.6C22.8998 5.6 22.9998 5.6 22.9998 5.6C23.0998 5.6 23.1998 5.6 23.2998 5.7C23.2998 5.7 23.3998 5.8 23.3998 5.9C23.3998 6 23.3998 6.1 23.3998 6.2C23.3998 6.4 23.2998 6.5 23.2998 6.7C23.2998 6.8 23.1998 7 23.1998 7.1C23.1998 7.2 23.1998 7.30001 23.2998 7.30001C23.3998 7.30001 23.5998 7.3 23.6998 7.2C23.7998 7.1 24.0998 6.90001 24.1998 6.80001C24.4998 6.60001 24.5998 6.4 24.7998 6.2L24.8998 6.1L24.7998 6.30001C24.7998 6.40001 24.6998 6.4 24.6998 6.5C24.5998 6.6 24.5998 6.70001 24.4998 6.80001C24.3998 6.90001 24.3998 6.9 24.2998 7C24.1998 7.1 24.0998 7.20001 23.7998 7.4L23.5998 7.5C23.5998 8 23.1998 8 23.0998 7.7Z" fill="#00587C"/>
<path d="M26.2004 6.7C26.2004 6.6 26.2004 6.5 26.1004 6.4C26.1004 6.4 26.1004 6.4 26.0004 6.4C25.9004 6.4 25.9004 6.4 25.9004 6.4C25.8004 6.4 25.8004 6.5 25.8004 6.6C25.8004 6.6 25.8004 6.7 25.8004 6.8C25.8004 6.8 25.8004 6.9 25.9004 6.9H26.2004C26.2004 6.8 26.2004 6.7 26.2004 6.7ZM26.1004 7C26.1004 7 26.0004 7 25.9004 7C25.8004 7 25.7004 6.9 25.6004 6.9C25.5004 6.9 25.5004 6.8 25.5004 6.8V6.7C25.5004 6.8 25.4004 6.9 25.4004 7C25.4004 7 25.4004 7.1 25.3004 7.1C25.3004 7.2 25.3004 7.2 25.3004 7.3C25.3004 7.4 25.3004 7.5 25.3004 7.6C25.3004 7.7 25.3004 7.7 25.3004 7.8C25.3004 7.9 25.4004 7.9 25.6004 7.9C25.7004 7.9 25.9004 7.8 26.0004 7.7C26.1004 7.6 26.1004 7.6 26.2004 7.5C26.1004 7.3 26.1004 7.2 26.1004 7C26.2004 7.1 26.1004 7.1 26.1004 7ZM27.6004 6.4C27.5004 6.6 27.4004 6.7 27.3004 6.7C27.3004 6.7 27.3004 6.8 27.2004 6.8H27.1004C27.1004 6.9 27.0004 6.9 27.0004 6.9L26.9004 7C26.8004 7 26.7004 7.1 26.6004 7.1C26.6004 7.1 26.6004 7.1 26.5004 7.1C26.5004 7.1 26.4004 7.1 26.4004 7.2V7.3C26.4004 7.3 26.4004 7.4 26.3004 7.4C26.3004 7.4 26.3004 7.4 26.3004 7.5C26.2004 7.6 26.2004 7.7 26.1004 7.8L26.0004 7.9H25.9004C25.8004 7.9 25.8004 8 25.7004 8H25.6004C25.5004 8 25.4004 8 25.3004 8C25.2004 8 25.1004 7.9 25.0004 7.8C24.9004 7.7 24.9004 7.5 24.9004 7.3C24.9004 7.1 25.0004 6.9 25.0004 6.7C25.0004 6.6 25.0004 6.5 25.0004 6.5C25.1004 6.4 25.1004 6.3 25.2004 6.2C25.3004 6.1 25.4004 6 25.5004 6C25.6004 6 25.7004 6 25.8004 6C25.8004 6 25.9004 6 25.9004 6.1C26.0004 6.1 26.1004 6.1 26.3004 6.2C26.3004 6.2 26.3004 6.2 26.4004 6.2C26.5004 6.2 26.5004 6.3 26.5004 6.4L26.6004 6.6C26.8004 6.5 27.0004 6.5 27.1004 6.4C27.2004 6.5 27.3004 6.5 27.6004 6.4Z" fill="#00587C"/>
<path d="M29.8998 8.2C29.7998 8.2 29.6998 8 29.6998 7.9C29.6998 7.8 29.5998 7.7 29.5998 7.5C29.5998 7.4 29.5998 7.2 29.5998 7.1V6.9H29.4998C29.3998 7 29.1998 7.1 29.0998 7.3C28.9998 7.4 28.8998 7.4 28.8998 7.5L28.7998 7.6H28.6998H28.5998H28.4998C28.4998 7.6 28.4998 7.6 28.4998 7.5L28.3998 7.3C28.3998 7.2 28.4998 6.9 28.4998 6.7C28.4998 6.7 28.4998 6.7 28.4998 6.6C28.3998 6.7 28.2998 6.9 28.1998 6.9L28.0998 7.1L27.9998 7.2C27.8998 7.3 27.7998 7.5 27.6998 7.6L27.5998 7.7C27.5998 7.7 27.5998 7.7 27.5998 7.8L27.4998 7.9L27.3998 7.8C27.2998 7.7 27.2998 7.6 27.2998 7.5C27.2998 7.2 27.3998 6.8 27.4998 6.5C27.4998 6.3 27.5998 6.1 27.5998 5.9V5.8V5.7C27.6998 5.7 27.6998 5.7 27.7998 5.7C27.8998 5.7 27.8998 5.7 27.8998 5.8C27.8998 5.9 27.8998 6 27.8998 6.1C27.8998 6.2 27.8998 6.4 27.7998 6.5C27.7998 6.6 27.6998 6.9 27.6998 7C27.6998 7 27.6998 7 27.7998 7C27.7998 6.9 27.8998 6.9 27.9998 6.7C28.0998 6.6 28.1998 6.4 28.2998 6.3C28.3998 6.2 28.3998 6.2 28.4998 6.1H28.5998C28.6998 6.2 28.6998 6.2 28.7998 6.2H28.8998C28.8998 6.3 28.8998 6.3 28.8998 6.4V6.5C28.8998 6.6 28.8998 6.7 28.8998 6.8C28.8998 6.9 28.8998 7.1 28.7998 7.2C28.8998 7.1 29.0998 6.9 29.1998 6.8C29.2998 6.8 29.2998 6.7 29.3998 6.7C29.3998 6.7 29.4998 6.7 29.5998 6.6H29.6998C29.7998 6.6 29.7998 6.7 29.8998 6.7L29.9998 6.8C30.0998 6.8 30.0998 6.9 30.0998 7V7.1C30.0998 7.2 30.0998 7.2 30.0998 7.3C30.0998 7.4 30.0998 7.5 30.0998 7.6C30.0998 7.7 30.0998 7.7 30.1998 7.9C30.2998 8 30.2998 8.1 30.4998 8C30.4998 8 30.5998 8 30.4998 8.1C30.4998 8.1 30.4998 8.1 30.3998 8.2C30.1998 8.3 29.9998 8.3 29.8998 8.2Z" fill="#00587C"/>
<path d="M30.7 7.1C30.8 7.1 30.8 7 30.9 7L31.2 6.8L31.5 6.6C31.6 6.6 31.6 6.5 31.6 6.4C31.6 6.4 31.6 6.3 31.5 6.3C31.4 6.3 31.3 6.3 31.2 6.4C31.1 6.5 31 6.5 31 6.6C30.9 6.7 30.9 6.8 30.8 6.9C30.8 7 30.8 7 30.7 7.1ZM32.9 6.9C32.9 7 32.9 7 32.9 6.9L32.8 7C32.8 7 32.7 7 32.8 7.1C32.8 7.1 32.7 7.1 32.7 7.2C32.7 7.2 32.7 7.3 32.6 7.3L32.5 7.4L32.3 7.5C32.2 7.5 32.2 7.6 32.1 7.6C32 7.6 31.9 7.7 31.8 7.8C31.7 7.8 31.7 7.8 31.6 7.8H31.5H31.4C31.3 7.8 31.3 7.8 31.2 7.8C31.1 7.8 31 7.8 30.9 7.7C30.8 7.7 30.8 7.7 30.7 7.6C30.6 7.6 30.6 7.5 30.5 7.4C30.5 7.4 30.5 7.4 30.5 7.3C30.5 7.2 30.5 7.1 30.5 7C30.5 6.8 30.6 6.6 30.7 6.4C30.7 6.3 30.8 6.3 30.8 6.2C30.9 6.1 31 6 31.1 5.9C31.2 5.8 31.3 5.8 31.4 5.7H31.5C31.6 5.7 31.7 5.7 31.8 5.8C31.9 5.8 32 5.9 32 6C32.1 6 32.1 6.2 32.1 6.3C32.1 6.3 32.1 6.4 32 6.4C31.9 6.5 31.8 6.6 31.7 6.7C31.7 6.7 31.6 6.7 31.6 6.8C31.6 6.9 31.5 6.9 31.5 6.9L31.4 7C31.3 7 31.3 7.1 31.2 7.1C31.2 7.1 31.2 7.1 31.1 7.2C31 7.2 31 7.2 30.9 7.3C30.9 7.4 31 7.4 31 7.5C31.1 7.5 31.3 7.5 31.4 7.5C31.5 7.5 31.6 7.5 31.7 7.4C31.8 7.4 31.8 7.3 31.9 7.3H32L32.3 7.1C32.4 7 32.6 6.9 32.7 6.9C32.7 6.9 32.8 6.9 32.8 6.8L33.1 6.6V6.7C33.1 6.7 33.1 6.7 33 6.8L32.9 6.9Z" fill="#00587C"/>
<path d="M34.2002 6.2H34.1002C34.1002 6.2 34.0002 6.1 33.9002 6.1H33.8002C33.7002 6.1 33.7002 6.1 33.7002 6.1C33.7002 6.1 33.7002 6.1 33.6002 6.2C33.6002 6.2 33.5002 6.2 33.5002 6.3C33.5002 6.4 33.5002 6.4 33.5002 6.5C33.5002 6.6 33.5002 6.7 33.5002 6.7V6.8V6.9V7V7.1V7.2C33.5002 7.3 33.5002 7.3 33.6002 7.4V7.5V7.6C33.6002 7.6 33.6002 7.6 33.6002 7.7C33.6002 7.8 33.6002 7.9 33.6002 8.1C33.6002 8.1 33.6002 8.1 33.6002 8.2C33.6002 8.2 33.6002 8.3 33.6002 8.4C33.6002 8.4 33.6002 8.5 33.5002 8.6C33.4002 8.7 33.3002 8.8 33.3002 8.8H33.2002H33.1002C33.0002 8.8 33.0002 8.8 32.9002 8.8C32.8002 8.8 32.7002 8.8 32.7002 8.8C32.7002 8.8 32.6002 8.8 32.6002 8.7C32.5002 8.6 32.4002 8.6 32.4002 8.5C32.3002 8.4 32.3002 8.4 32.3002 8.3C32.3002 8.2 32.2002 8.1 32.2002 8V7.8C32.3002 7.7 32.4002 7.6 32.5002 7.6C32.6002 7.5 32.6002 7.6 32.7002 7.5V7.6L32.6002 7.7L32.5002 7.8C32.5002 8 32.5002 8.1 32.5002 8.1C32.5002 8.1 32.5002 8.1 32.5002 8.2C32.5002 8.3 32.6002 8.3 32.6002 8.4C32.6002 8.4 32.7002 8.4 32.8002 8.4C33.0002 8.4 33.0002 8.3 33.1002 8.2C33.1002 8.1 33.2002 8.1 33.2002 8C33.2002 7.9 33.2002 7.8 33.2002 7.7C33.2002 7.6 33.2002 7.5 33.1002 7.4L33.0002 7L32.9002 6.9V6.8C32.9002 6.7 32.9002 6.6 32.8002 6.5V6.4V6.3V6.1C32.8002 6 32.8002 5.9 32.8002 5.9C32.8002 5.9 32.9002 5.8 32.9002 5.7C32.9002 5.7 32.9002 5.7 33.0002 5.6H33.1002C33.2002 5.6 33.2002 5.6 33.4002 5.6C33.6002 5.6 33.6002 5.6 33.7002 5.7C34.2002 6 34.2002 6.1 34.2002 6.2Z" fill="#00587C"/>
<path d="M37.1002 6.6C37.1002 6.7 37.1002 6.7 37.0002 6.7V6.8L36.8002 7L36.7002 7.1L36.6002 7.2C36.4002 7.4 36.2002 7.5 36.2002 7.6C36.2002 7.6 36.1002 7.7 36.0002 7.7H35.9002H35.8002C35.7002 7.7 35.6002 7.8 35.5002 7.8L35.4002 7.9H35.2002H35.1002C35.0002 7.9 35.0002 7.9 34.9002 7.8L34.8002 7.7C34.8002 7.7 34.8002 7.6 34.7002 7.6C34.7002 7.5 34.7002 7.5 34.7002 7.4C34.7002 7.4 34.7002 7.3 34.7002 7.2C34.7002 6.8 35.0002 6.4 35.1002 6.2C35.1002 6.2 35.1002 6.2 35.1002 6.1C35.1002 6.1 35.2002 6 35.2002 5.9C35.3002 5.8 35.4002 5.8 35.5002 5.8H35.6002L35.7002 5.9C35.8002 5.9 35.8002 5.9 35.9002 6C36.0002 6 36.0002 6.1 36.0002 6.1V6.2C36.0002 6.2 36.0002 6.3 35.9002 6.3H35.8002C35.8002 6.3 35.7002 6.3 35.7002 6.2L35.6002 6.1C35.6002 6.1 35.6002 6.1 35.5002 6.1C35.4002 6.1 35.3002 6.2 35.3002 6.3C35.3002 6.4 35.2002 6.4 35.1002 6.5C35.1002 6.6 35.0002 6.7 34.9002 6.7C34.8002 6.8 34.7002 7 34.7002 7.2C34.7002 7.3 34.7002 7.4 34.7002 7.5C34.7002 7.5 34.7002 7.5 34.8002 7.5C34.9002 7.5 35.0002 7.5 35.2002 7.4C35.3002 7.4 35.4002 7.4 35.4002 7.3C35.5002 7.3 35.5002 7.3 35.6002 7.2H35.7002L36.0002 7C36.1002 6.9 36.2002 6.8 36.3002 6.7C36.4002 6.7 36.6002 6.4 36.7002 6.4C36.7002 6.4 36.7002 6.4 36.8002 6.3C36.9002 6.6 37.0002 6.6 37.1002 6.6C37.0002 6.6 37.1002 6.5 37.1002 6.6Z" fill="#00587C"/>
<path d="M38.3996 3.9C38.5996 3.7 38.6996 3.5 38.8996 3.2C38.9996 3 39.0996 2.9 39.2996 2.7C39.2996 2.6 39.4996 2.5 39.4996 2.4V2.30001L39.5996 2.2C39.6996 2.2 39.5996 2.2 39.6996 2.1V2L39.7996 1.9C39.7996 1.9 39.8996 1.8 39.8996 1.7C40.0996 1.5 40.1996 1.1 40.0996 0.900005C39.8996 1 39.6996 1.2 39.4996 1.4L39.2996 1.6C39.2996 1.6 39.1996 1.6 39.1996 1.7C39.0996 1.8 39.0996 1.8 39.0996 1.9C38.9996 2 38.8996 2.1 38.8996 2.2C38.7996 2.3 38.7996 2.4 38.6996 2.5C38.6996 2.5 38.5996 2.5 38.5996 2.6C38.5996 2.7 38.4996 2.8 38.4996 2.9C38.4996 2.9 38.3996 3 38.3996 3.1C38.3996 3.2 38.2996 3.20001 38.2996 3.30001C38.2996 3.30001 38.1996 3.4 38.2996 3.4C38.2996 3.5 38.1996 3.5 38.1996 3.6V3.7C38.0996 3.7 38.1996 3.9 38.0996 3.9C38.0996 4 37.9996 4.1 37.9996 4.2C37.9996 4.3 37.8996 4.4 37.8996 4.4V4.5C38.0996 4.3 38.1996 4.1 38.3996 3.9ZM37.8996 7.7C37.7996 7.6 37.7996 7.50001 37.7996 7.30001C37.7996 7.10001 37.7996 6.9 37.8996 6.7C37.8996 6.5 37.9996 6.40001 37.9996 6.30001C37.9996 6.10001 37.8996 6.20001 37.7996 6.30001C37.5996 6.40001 37.5996 6.4 37.4996 6.5C37.3996 6.6 37.2996 6.6 37.2996 6.7C37.2996 6.8 37.2996 6.8 37.1996 6.9C37.1996 7 37.0996 7.3 37.0996 7.4C37.0996 7.5 37.0996 7.5 36.9996 7.5C36.8996 7.5 36.7996 7.5 36.6996 7.4C36.6996 7.3 36.6996 7 36.7996 6.9C36.8996 6.6 37.0996 5.4 37.0996 5.4V5.30001C36.9996 5.30001 36.7996 5.5 36.6996 5.5H36.5996V5.2C36.7996 5.1 36.9996 4.90001 37.1996 4.80001C37.1996 4.70001 37.1996 4.8 37.1996 4.7C37.2996 4.4 37.3996 4.2 37.3996 3.9C37.4996 3.6 37.5996 3.4 37.6996 3.1C37.6996 3 37.7996 2.90001 37.7996 2.80001C37.7996 2.80001 37.7996 2.7 37.8996 2.7C37.7996 2.7 37.7996 2.7 37.8996 2.6C37.8996 2.5 37.9996 2.40001 38.0996 2.30001C38.1996 2.20001 38.1996 2 38.2996 1.9C38.2996 1.8 38.3996 1.8 38.3996 1.7V1.6H38.4996C38.5996 1.5 38.5996 1.40001 38.6996 1.30001C38.6996 1.30001 38.6996 1.30001 38.5996 1.30001C38.6996 1.30001 38.6996 1.3 38.6996 1.2L38.7996 1C38.7996 1 38.8996 0.900005 38.9996 0.900005C39.0996 0.700005 39.2996 0.600003 39.4996 0.500003C39.6996 0.400003 39.7996 0.500003 39.8996 0.500003C39.9996 0.500003 40.0996 0.700006 39.9996 0.800006V0.900005C39.9996 1 39.8996 1.1 39.8996 1.2C39.8996 1.2 39.8996 1.20001 39.8996 1.30001C39.7996 1.40001 39.7996 1.5 39.7996 1.6C39.7996 1.7 39.7996 1.80001 39.6996 1.80001C39.5996 1.90001 39.5996 2 39.4996 2.1C39.3996 2.2 39.2996 2.4 39.1996 2.5C39.0996 2.6 38.9996 2.8 38.8996 2.9C38.7996 3.1 38.6996 3.20001 38.5996 3.30001C38.4996 3.50001 38.2996 3.7 38.1996 3.9C38.0996 4 38.0996 4.1 37.9996 4.1C37.8996 4.2 37.8996 4.20001 37.7996 4.30001C37.6996 4.50001 37.4996 4.60001 37.3996 4.80001L37.2996 4.9C37.2996 5 37.2996 5 37.2996 5.1C37.2996 5.1 37.1996 5.4 37.1996 5.5C37.0996 5.8 37.0996 5.8 37.0996 6C37.1996 5.9 37.1996 5.90001 37.2996 5.80001C37.3996 5.70001 37.4996 5.7 37.5996 5.6C37.6996 5.6 37.7996 5.6 37.7996 5.6C37.8996 5.6 37.9996 5.6 38.0996 5.7C38.0996 5.7 38.1996 5.8 38.1996 5.9C38.1996 6 38.1996 6.1 38.1996 6.2C38.1996 6.4 38.0996 6.5 38.0996 6.7C38.0996 6.8 37.9996 7 37.9996 7.1C37.9996 7.2 37.9996 7.30001 38.0996 7.30001C38.1996 7.30001 38.3996 7.3 38.4996 7.2C38.5996 7.1 38.8996 6.90001 38.9996 6.80001C39.2996 6.60001 39.3996 6.4 39.5996 6.2L39.6996 6.1L39.5996 6.30001C39.5996 6.40001 39.4996 6.4 39.4996 6.5C39.3996 6.6 39.3996 6.70001 39.2996 6.80001C39.1996 6.90001 39.1996 6.9 39.0996 7C38.9996 7.1 38.8996 7.20001 38.5996 7.4L38.3996 7.5C38.3996 8 37.9996 8 37.8996 7.7Z" fill="#00587C"/>
<path d="M40.9998 6.7C40.9998 6.6 40.9998 6.5 40.8998 6.4C40.8998 6.4 40.8998 6.4 40.7998 6.4C40.6998 6.4 40.6998 6.4 40.6998 6.4C40.5998 6.4 40.5998 6.5 40.5998 6.6C40.5998 6.6 40.5998 6.7 40.5998 6.8C40.5998 6.8 40.5998 6.9 40.6998 6.9H40.9998C40.9998 6.8 40.9998 6.7 40.9998 6.7ZM40.8998 7C40.8998 7 40.7998 7 40.6998 7C40.5998 7 40.4998 6.9 40.3998 6.9C40.2998 6.9 40.2998 6.8 40.2998 6.8V6.7C40.2998 6.8 40.1998 6.9 40.1998 7C40.1998 7 40.1998 7.1 40.0998 7.1C40.0998 7.2 40.0998 7.2 40.0998 7.3C40.0998 7.4 40.0998 7.5 40.0998 7.6C40.0998 7.7 40.0998 7.7 40.0998 7.8C40.0998 7.9 40.1998 7.9 40.3998 7.9C40.4998 7.9 40.6998 7.8 40.7998 7.7C40.8998 7.6 40.8998 7.6 40.9998 7.5C40.7998 7.3 40.8998 7.2 40.8998 7C40.9998 7.1 40.8998 7.1 40.8998 7ZM42.3998 6.4C42.2998 6.6 42.1998 6.7 42.0998 6.7C42.0998 6.7 42.0998 6.8 41.9998 6.8C41.9998 6.9 41.8998 6.9 41.8998 6.9L41.7998 7C41.6998 7 41.5998 7.1 41.4998 7.1C41.4998 7.1 41.4998 7.1 41.3998 7.1C41.3998 7.1 41.2998 7.1 41.2998 7.2V7.3C41.2998 7.3 41.2998 7.4 41.1998 7.4C41.1998 7.4 41.1998 7.4 41.1998 7.5C41.0998 7.6 41.0998 7.7 40.9998 7.8L40.8998 7.9H40.7998C40.6998 7.9 40.6998 8 40.5998 8H40.4998C40.3998 8 40.2998 8 40.1998 8C40.0998 8 39.9998 7.9 39.8998 7.8C39.7998 7.7 39.7998 7.5 39.7998 7.3C39.7998 7.1 39.8998 6.9 39.8998 6.7C39.8998 6.6 39.8998 6.5 39.8998 6.5C39.9998 6.4 39.9998 6.3 40.0998 6.2C40.1998 6.1 40.2998 6 40.3998 6C40.4998 6 40.5998 6 40.6998 6C40.6998 6 40.7998 6 40.7998 6.1C40.8998 6.1 40.9998 6.1 41.1998 6.2C41.1998 6.2 41.1998 6.2 41.2998 6.2C41.3998 6.2 41.3998 6.3 41.3998 6.4L41.4998 6.6C41.6998 6.5 41.8998 6.5 41.9998 6.4C41.9998 6.5 42.0998 6.5 42.3998 6.4Z" fill="#00587C"/>
<path d="M43.2004 6.7C43.2004 6.6 43.2004 6.5 43.1004 6.4C43.1004 6.4 43.1004 6.4 43.0004 6.4C42.9004 6.4 42.9004 6.4 42.9004 6.4C42.8004 6.4 42.8004 6.5 42.8004 6.6C42.8004 6.6 42.8004 6.7 42.8004 6.8C42.8004 6.8 42.8004 6.9 42.9004 6.9H43.2004C43.2004 6.8 43.2004 6.7 43.2004 6.7ZM43.1004 7C43.1004 7 43.0004 7 42.9004 7C42.8004 7 42.7004 6.9 42.6004 6.9C42.5004 6.9 42.5004 6.8 42.5004 6.8V6.7C42.5004 6.8 42.4004 6.9 42.4004 7C42.4004 7 42.4004 7.1 42.3004 7.1C42.3004 7.2 42.3004 7.2 42.3004 7.3C42.3004 7.4 42.3004 7.5 42.3004 7.6C42.3004 7.7 42.3004 7.7 42.3004 7.8C42.3004 7.9 42.4004 7.9 42.6004 7.9C42.7004 7.9 42.9004 7.8 43.0004 7.7C43.1004 7.6 43.1004 7.6 43.2004 7.5C43.0004 7.3 43.1004 7.2 43.1004 7C43.2004 7.1 43.1004 7.1 43.1004 7ZM44.6004 6.4C44.5004 6.6 44.4004 6.7 44.3004 6.7C44.3004 6.7 44.3004 6.8 44.2004 6.8H44.1004C44.1004 6.9 44.0004 6.9 44.0004 6.9L43.9004 7C43.8004 7 43.7004 7.1 43.6004 7.1C43.6004 7.1 43.6004 7.1 43.5004 7.1C43.5004 7.1 43.4004 7.1 43.4004 7.2V7.3C43.4004 7.3 43.4004 7.4 43.3004 7.4C43.3004 7.4 43.3004 7.4 43.3004 7.5C43.2004 7.6 43.2004 7.7 43.1004 7.8L43.0004 7.9H42.9004C42.8004 7.9 42.8004 8 42.7004 8H42.6004C42.5004 8 42.4004 8 42.3004 8C42.2004 8 42.1004 7.9 42.0004 7.8C41.9004 7.7 41.9004 7.5 41.9004 7.3C41.9004 7.1 42.0004 6.9 42.0004 6.7C42.0004 6.6 42.0004 6.5 42.0004 6.5C42.1004 6.4 42.1004 6.3 42.2004 6.2C42.3004 6.1 42.4004 6 42.5004 6C42.6004 6 42.7004 6 42.8004 6C42.8004 6 42.9004 6 42.9004 6.1C43.0004 6.1 43.1004 6.1 43.3004 6.2C43.3004 6.2 43.3004 6.2 43.4004 6.2C43.5004 6.2 43.5004 6.3 43.5004 6.4L43.6004 6.6C43.8004 6.5 44.0004 6.5 44.1004 6.4C44.2004 6.5 44.3004 6.5 44.6004 6.4Z" fill="#00587C"/>
<path d="M46.9002 2H46.8002C46.8002 2 46.8002 2 46.8002 2.1C46.7002 2.2 46.6002 2.3 46.6002 2.4C46.5002 2.5 46.4002 2.6 46.4002 2.7C46.4002 2.8 46.3002 2.9 46.2002 3C46.2002 3.1 46.1002 3.2 46.0002 3.3C46.0002 3.4 45.9002 3.5 45.9002 3.6C45.9002 3.6 45.9002 3.7 45.8002 3.7C45.8002 3.8 45.7002 3.9 45.7002 3.9C45.7002 4 45.6002 4 45.6002 4.1C45.6002 4.2 45.6002 4.2 45.6002 4.2C45.6002 4.3 45.5002 4.4 45.5002 4.5C45.5002 4.6 45.4002 4.8 45.3002 4.9C45.3002 4.9 45.3002 5 45.2002 5L45.1002 5.3C45.2002 5.2 45.3002 5 45.4002 4.9C45.5002 4.8 45.7002 4.6 45.8002 4.4C45.9002 4.3 45.9002 4.2 46.0002 4.1C46.1002 4 46.1002 3.9 46.2002 3.7C46.3002 3.5 46.4002 3.3 46.5002 3.1C46.6002 3 46.6002 2.8 46.7002 2.6C46.8002 2.4 46.8002 2.3 46.8002 2.1C46.9002 2.3 46.9002 2.2 46.9002 2ZM47.3002 2.3C47.3002 2.4 47.2002 2.4 47.3002 2.3L47.2002 2.9C47.2002 3 47.2002 3 47.2002 3L47.1002 3.1V3.3C47.1002 3.3 47.1002 3.4 47.0002 3.4V3.5C47.0002 3.6 47.0002 3.6 47.0002 3.7C47.0002 3.7 46.4002 4.8 46.3002 4.9L45.8002 5.6C45.8002 5.6 45.8002 5.7 45.7002 5.7L45.5002 5.9C45.4002 6 45.2002 6.2 45.1002 6.3C45.1002 6.4 45.0002 6.6 45.0002 6.7C45.0002 6.9 44.9002 7.1 45.0002 7.3C45.0002 7.6 45.0002 7.8 45.1002 8C45.1002 8.1 45.2002 8.2 45.3002 8.3C45.5002 8.4 45.5002 8.3 45.7002 8.2C45.9002 8.1 45.7002 8.5 45.5002 8.6C45.4002 8.6 45.3002 8.6 45.1002 8.6L45.0002 8.5C45.0002 8.4 44.9002 8.4 44.9002 8.3C44.9002 8.2 44.8002 8.2 44.8002 8.1C44.8002 8 44.8002 7.9 44.7002 7.8C44.7002 7.6 44.7002 7.4 44.7002 7.1C44.7002 7 44.7002 6.9 44.8002 6.5L44.9002 6.2V6.1C44.9002 6 44.9002 5.9 45.0002 5.8C45.0002 5.7 45.0002 5.6 45.1002 5.4C45.1002 5.3 45.2002 5.1 45.2002 5C45.2002 4.9 45.3002 4.8 45.3002 4.8C45.3002 4.7 45.3002 4.7 45.4002 4.6L45.6002 4C45.6002 4 45.7002 3.9 45.7002 3.8L45.8002 3.6L45.9002 3.4L46.3002 2.7C46.4002 2.6 46.5002 2.4 46.5002 2.4C46.6002 2.3 46.7002 2.2 46.8002 2.2C46.9002 2.1 47.0002 2.1 47.3002 2.3C47.2002 2.2 47.3002 2.2 47.3002 2.3L47.4002 2.4H47.5002C47.5002 2.5 47.5002 2.5 47.5002 2.6L47.3002 2.3Z" fill="#00587C"/>
<path d="M46.6004 5.5C46.5004 5.4 46.5004 5.4 46.5004 5.3C46.5004 5.2 46.7004 5.1 46.8004 5C46.9004 5 47.0004 5 47.0004 5.1C47.0004 5.2 47.1004 5.3 47.0004 5.4C47.0004 5.5 46.9004 5.6 46.8004 5.6C46.8004 5.6 46.7004 5.6 46.6004 5.5C46.7004 5.6 46.7004 5.6 46.6004 5.5ZM48.1004 6.7C48.1004 6.7 47.9004 7.1 47.8004 7.1C47.8004 7.1 47.7004 7.2 47.6004 7.4L47.5004 7.6C47.5004 7.6 47.5004 7.6 47.5004 7.7C47.4004 7.7 47.4004 7.8 47.3004 7.9L47.2004 8C47.2004 8 47.1004 8 47.0004 8.1C46.9004 8.1 46.9004 8.2 46.8004 8.2C46.7004 8.2 46.7004 8.2 46.6004 8.2C46.5004 8.2 46.5004 8.1 46.4004 8C46.4004 8 46.4004 8 46.4004 7.9V7.8V7.7C46.4004 7.5 46.4004 7.3 46.5004 7.2C46.5004 7.1 46.6004 6.9 46.6004 6.8C46.6004 6.6 46.7004 6.5 46.7004 6.3V6.2V6.1H46.8004L46.9004 6.2L47.0004 6.3V6.4C47.0004 6.5 47.0004 6.5 47.0004 6.6C47.0004 6.7 46.9004 6.8 46.9004 7V7.1C46.9004 7.2 46.9004 7.3 46.9004 7.4C46.9004 7.5 46.9004 7.6 46.9004 7.7C47.0004 7.7 47.1004 7.6 47.2004 7.6C47.4004 7.5 47.5004 7.3 47.7004 7.2C47.9004 7.1 48.0004 6.9 48.1004 6.7C48.2004 6.7 48.3004 6.6 48.5004 6.5C48.1004 6.5 48.1004 6.6 48.1004 6.7Z" fill="#00587C"/>
<path d="M47.7998 8C47.7998 7.8 47.7998 7.7 47.8998 7.5C47.8998 7.3 47.9998 7.2 47.9998 7C47.9998 6.9 47.9998 6.8 48.0998 6.7V6.6C48.0998 6.5 48.0998 6.5 48.1998 6.5C48.2998 6.5 48.3998 6.6 48.4998 6.7C48.4998 6.8 48.4998 6.8 48.4998 6.9C48.4998 7 48.4998 7 48.4998 7.1C48.4998 7.2 48.4998 7.2 48.3998 7.3C48.4998 7.2 48.5998 7 48.6998 6.9C48.7998 6.8 48.7998 6.8 48.8998 6.7C48.8998 6.7 48.9998 6.7 49.0998 6.7C49.1998 6.7 49.1998 6.7 49.1998 6.7C49.1998 6.7 49.1998 6.7 49.3998 6.8V6.9C49.3998 6.9 49.3998 6.9 49.3998 7C49.3998 7.1 49.3998 7.2 49.4998 7.3C49.4998 7.4 49.4998 7.5 49.4998 7.5C49.4998 7.5 49.4998 7.5 49.4998 7.6C49.4998 7.7 49.4998 7.7 49.4998 7.8V7.9C49.4998 7.9 49.4998 7.9 49.4998 8C49.4998 8 49.4998 8 49.6998 7.9C49.7998 7.9 49.7998 7.9 49.8998 7.8L50.7998 6.9C50.8998 6.9 50.8998 6.9 50.7998 7L50.6998 7.1V7.2L50.5998 7.3L50.3998 7.5C50.3998 7.5 50.3998 7.5 50.2998 7.6C50.2998 7.7 50.1998 7.7 50.0998 7.8C49.9998 7.9 49.9998 7.9 49.8998 8C49.7998 8.1 49.5998 8.1 49.4998 8.1C49.3998 8.1 49.3998 8.1 49.3998 8C49.2998 7.9 49.1998 7.8 49.1998 7.7C49.1998 7.5 49.0998 7.3 49.0998 7.1C49.0998 7.1 49.0998 7 49.0998 6.9C49.0998 6.9 49.0998 6.9 49.0998 6.8C49.0998 6.9 48.9998 6.9 48.9998 6.9C48.9998 7 48.8998 7 48.8998 7.1C48.8998 7.2 48.7998 7.2 48.7998 7.2C48.7998 7.2 48.6998 7.3 48.7998 7.3V7.4C48.7998 7.4 48.5998 7.8 48.5998 7.9L48.4998 8V8.1C48.4998 8.2 48.3998 8.2 48.2998 8.2C47.9998 8.2 47.7998 8.1 47.7998 8Z" fill="#00587C"/>
<path d="M51.8004 6.80001C51.7004 6.70001 51.7004 6.6 51.7004 6.6C51.7004 6.5 51.7004 6.40001 51.6004 6.30001H51.5004C51.4004 6.30001 51.2004 6.3 51.1004 6.5C51.0004 6.6 50.9004 6.6 50.9004 6.7C50.9004 6.7 50.9004 6.70001 50.8004 6.80001C50.8004 6.90001 50.7004 6.9 50.6004 7C50.5004 7.1 50.5004 7.20001 50.5004 7.30001C50.5004 7.40001 50.4004 7.5 50.5004 7.6H50.6004C50.7004 7.6 50.9004 7.5 51.0004 7.5L51.3004 7.30001C51.3004 7.20001 51.4004 7.2 51.5004 7.2C51.5004 7.2 51.5004 7.2 51.6004 7.2C51.6004 7.1 51.7004 7.1 51.8004 7C51.7004 6.9 51.7004 6.90001 51.8004 6.80001C51.8004 6.90001 51.8004 6.80001 51.8004 6.80001ZM51.6004 9.1C51.5004 9.1 51.5004 9.2 51.4004 9.2C51.2004 9.3 50.9004 9.4 50.7004 9.5C50.6004 9.6 50.4004 9.70001 50.3004 9.80001C50.2004 9.90001 50.1004 9.9 49.9004 10C49.9004 10.1 49.8004 10.1 49.7004 10.2C49.6004 10.2 49.6004 10.3 49.6004 10.3C49.5004 10.4 49.5004 10.4 49.4004 10.5C49.3004 10.5 49.3004 10.6 49.2004 10.7C49.2004 10.7 49.0004 11 49.0004 11.1L48.8004 11.4L48.7004 11.6C48.7004 11.6 48.7004 11.7 48.6004 11.7C48.6004 11.8 48.6004 11.9 48.5004 11.9C48.5004 12 48.4004 12.2 48.4004 12.3C48.4004 12.5 48.4004 12.7 48.4004 12.8C48.4004 13 48.5004 13.1 48.7004 13.2C48.8004 13.2 49.0004 13.3 49.1004 13.2C49.2004 13.2 49.2004 13.1 49.3004 13.1C49.5004 13.1 49.6004 12.9 49.7004 12.8C49.8004 12.7 49.9004 12.6 50.0004 12.4C50.2004 12.2 50.3004 12 50.4004 11.8C50.5004 11.6 50.6004 11.4 50.7004 11.2C50.8004 11 50.8004 10.9 50.9004 10.7C51.0004 10.5 51.1004 10.2 51.1004 10C51.1004 9.8 51.2004 9.6 51.2004 9.5C51.2004 9.4 51.3004 9.3 51.3004 9.2C51.6004 9.4 51.6004 9.2 51.6004 9.1ZM53.0004 8.7L52.2004 8.9C52.1004 8.9 52.1004 8.9 52.1004 9V9.1H52.0004C52.0004 9.1 52.1004 9.2 52.0004 9.2C52.0004 9.3 52.0004 9.30001 52.0004 9.30001C52.0004 9.40001 52.0004 9.4 51.9004 9.4C51.9004 9.5 51.9004 9.5 51.9004 9.5V9.6V9.7C51.9004 9.8 51.9004 9.80001 51.9004 9.80001V9.9C51.9004 9.9 51.9004 9.9 52.0004 9.9C52.0004 10 52.0004 10.1 51.9004 10.1C51.9004 10.1 51.9004 10.2 51.9004 10.3C51.9004 10.4 51.9004 10.3 51.9004 10.4V10.5C51.9004 10.5 51.9004 10.5 51.9004 10.6V10.7L51.7004 11.1H51.6004V11.2L51.5004 11.4C51.5004 11.5 51.4004 11.5 51.4004 11.5C51.4004 11.5 51.4004 11.6 51.3004 11.6C51.3004 11.6 51.3004 11.6 51.3004 11.7C51.3004 11.8 51.2004 11.7 51.2004 11.7C51.2004 11.7 51.2004 11.7 51.3004 11.7H51.2004C51.2004 11.8 51.1004 11.8 51.1004 11.9H51.2004L51.1004 12L51.0004 12.1C50.9004 12.2 50.8004 12.3 50.7004 12.4C50.7004 12.5 50.7004 12.5 50.6004 12.5C50.5004 12.6 50.5004 12.6 50.4004 12.7C50.3004 12.7 50.2004 12.8 50.1004 12.8C50.1004 12.8 50.1004 12.9 50.0004 12.9C50.0004 12.9 49.9004 13 49.8004 13C49.7004 13 49.6004 13 49.4004 13H49.3004C49.1004 13 49.0004 12.9 48.9004 12.8C48.8004 12.8 48.7004 12.7 48.6004 12.5C48.6004 12.5 48.5004 12.5 48.5004 12.4C48.5004 12.3 48.4004 12.2 48.4004 12.1V12C48.4004 11.9 48.4004 11.9 48.4004 11.8C48.4004 11.6 48.4004 11.5 48.5004 11.3C48.5004 11.2 48.5004 11 48.6004 10.9L48.7004 10.7L48.8004 10.6C48.9004 10.4 49.0004 10.3 49.1004 10.1C49.2004 10 49.3004 9.8 49.4004 9.6L49.6004 9.4C49.6004 9.4 49.7004 9.3 49.8004 9.2C49.8004 9.2 49.9004 9.1 50.0004 9C50.2004 8.9 50.3004 8.8 50.5004 8.7C50.6004 8.6 50.8004 8.5 50.9004 8.4L51.3004 8.2C51.4004 8.1 51.6004 8.1 51.7004 8C51.8004 8 51.9004 7.90001 51.8004 7.80001V7.7C51.8004 7.5 51.8004 7.40001 51.8004 7.30001C51.8004 7.10001 51.9004 6.9 51.9004 6.7H51.8004C51.8004 6.7 51.8004 6.70001 51.8004 6.80001C51.8004 6.80001 51.8004 6.9 51.7004 6.9C51.7004 6.9 51.6004 7 51.4004 7.2C51.2004 7.2 51.2004 7.30001 51.1004 7.30001C51.1004 7.30001 51.0004 7.30001 50.9004 7.30001C50.8004 7.30001 50.8004 7.30001 50.7004 7.30001L50.5004 7.2C50.5004 7.2 50.5004 7.1 50.4004 7.1C50.4004 7.1 50.4004 7 50.3004 7C50.2004 6.9 50.2004 6.8 50.2004 6.7C50.1004 6.5 50.2004 6.4 50.2004 6.2C50.2004 6.1 50.3004 6.1 50.3004 6C50.3004 6 50.3004 5.90001 50.4004 5.80001C50.5004 5.70001 50.5004 5.5 50.7004 5.4C50.8004 5.4 50.9004 5.2 51.0004 5.2C51.1004 5.2 51.2004 5.1 51.3004 5.2C51.3004 5.2 51.4004 5.2 51.5004 5.2C51.6004 5.2 51.7004 5.30001 51.7004 5.30001C51.8004 5.40001 51.9004 5.4 51.9004 5.5L52.0004 5.6C52.1004 5.6 52.1004 5.4 52.2004 5.4H52.3004C52.4004 5.4 52.4004 5.4 52.5004 5.4V5.6C52.5004 5.7 52.5004 5.80001 52.4004 5.80001C52.4004 5.90001 52.4004 5.9 52.4004 6C52.3004 6.3 52.3004 6.6 52.2004 6.9C52.2004 7 52.2004 7.20001 52.1004 7.30001C52.1004 7.40001 52.1004 7.5 52.1004 7.6C52.2004 7.6 52.3004 7.6 52.5004 7.6C52.6004 7.6 52.7004 7.6 52.8004 7.6C53.0004 8.5 53.0004 8.6 53.0004 8.7Z" fill="#00587C"/>
<path d="M54.2996 11.8L54.0996 11.7C54.1996 11.2 54.2996 10.7 54.3996 10.2C54.3996 10.1 54.3996 10 54.3996 10C54.3996 10 54.3996 10 54.2996 10V9.9V9.8V9.7C54.3996 9.5 54.4996 9 54.4996 8.9V8.8C54.5996 8.6 54.5996 8.4 54.6996 8.2C54.6996 8.1 54.7996 7.9 54.7996 7.8C54.7996 7.7 54.8996 7.6 54.8996 7.5C54.8996 7.3 54.9996 7.2 54.9996 7C54.9996 6.9 54.9996 6.8 55.0996 6.7C55.0996 6.6 55.1996 6.4 55.1996 6.3C55.1996 6.2 55.1996 6.1 55.2996 6.1C55.2996 6 55.2996 6 55.3996 6C55.4996 6 55.4996 6 55.5996 6.1V6.2V6.3V6.4C55.5996 6.4 55.5996 6.4 55.5996 6.5C55.5996 6.6 55.5996 6.7 55.4996 6.8C55.4996 6.9 55.4996 6.9 55.3996 7.2C55.3996 7.2 55.3996 7.3 55.3996 7.4C55.3996 7.4 55.3996 7.4 55.4996 7.2C55.4996 7.2 55.5996 7 55.7996 6.7C55.7996 6.7 55.7996 6.7 55.7996 6.6L55.9996 6.5L56.1996 6.4C56.2996 6.3 56.3996 6.3 56.4996 6.3C56.5996 6.3 56.6996 6.3 56.6996 6.3H56.7996C56.7996 6.3 57.0996 6.5 57.0996 6.6V6.7C57.0996 6.8 57.0996 6.9 57.0996 7C57.0996 7.1 56.9996 7.2 56.9996 7.3C56.8996 7.4 56.8996 7.5 56.7996 7.6L56.5996 7.8C56.4996 7.8 56.4996 7.9 56.3996 7.9C56.3996 7.9 56.3996 7.9 56.2996 7.9C56.2996 7.9 56.1996 7.9 56.0996 7.8C56.0996 7.8 55.9996 7.8 55.9996 7.7C55.8996 7.7 55.8996 7.6 55.8996 7.5V7.4C55.9996 7.4 55.9996 7.4 55.9996 7.5C55.9996 7.6 56.0996 7.6 56.0996 7.6C56.1996 7.6 56.2996 7.5 56.2996 7.5C56.3996 7.4 56.4996 7.4 56.4996 7.3C56.5996 7.2 56.5996 7.2 56.6996 7.1V7C56.6996 6.9 56.7996 6.8 56.6996 6.8C56.6996 6.7 56.6996 6.7 56.6996 6.6H56.4996C56.3996 6.6 56.3996 6.7 56.2996 6.7L56.1996 6.8C56.1996 6.9 56.0996 6.9 55.9996 6.9C55.8996 7 55.7996 7 55.7996 7.1C55.6996 7.2 55.5996 7.3 55.4996 7.4C55.4996 7.4 55.2996 7.7 55.2996 7.8H55.1996L55.0996 8C55.0996 8.1 55.0996 8.2 54.9996 8.2C54.9996 8.3 54.9996 8.3 54.9996 8.4V8.5V8.6C54.9996 8.7 54.9996 8.9 54.8996 8.9C54.8996 9 54.8996 9 54.8996 9.1C54.8996 9.2 54.8996 9.3 54.7996 9.4C54.7996 9.5 54.7996 9.5 54.7996 9.6V9.7V9.9C54.6996 10.1 54.6996 10.2 54.6996 10.4C54.6996 10.5 54.6996 10.5 54.6996 10.6C54.6996 10.6 54.6996 10.6 54.6996 10.7C54.6996 10.7 54.6996 10.9 54.5996 10.9C54.5996 11 54.5996 11 54.4996 11.1C54.4996 11.2 54.4996 11.3 54.3996 11.4C54.3996 11.5 54.3996 11.5 54.3996 11.6L54.2996 11.8C54.3996 11.7 54.3996 11.8 54.2996 11.8L54.3996 12H54.2996C54.3996 11.9 54.3996 11.9 54.2996 11.8Z" fill="#00587C"/>
<path d="M59.0998 6.4C59.0998 6.3 59.0998 6.2 58.9998 6.1C58.9998 6.1 58.9998 6.1 58.8998 6.1C58.7998 6.1 58.7998 6.1 58.7998 6.1C58.6998 6.1 58.6998 6.2 58.6998 6.3C58.6998 6.3 58.6998 6.4 58.6998 6.5C58.6998 6.5 58.6998 6.6 58.7998 6.6H59.0998C59.0998 6.5 59.0998 6.5 59.0998 6.4ZM58.9998 6.8C58.9998 6.8 58.8998 6.8 58.7998 6.8C58.6998 6.8 58.5998 6.7 58.4998 6.7C58.3998 6.7 58.3998 6.6 58.3998 6.6V6.5C58.3998 6.6 58.2998 6.7 58.2998 6.8C58.2998 6.8 58.2998 6.9 58.1998 6.9C58.1998 7 58.1998 7 58.1998 7.1C58.1998 7.2 58.1998 7.3 58.1998 7.4C58.1998 7.5 58.1998 7.5 58.1998 7.6C58.1998 7.7 58.2998 7.7 58.4998 7.7C58.5998 7.7 58.7998 7.6 58.8998 7.5C58.9998 7.4 58.9998 7.4 59.0998 7.3C58.8998 7 58.9998 6.9 58.9998 6.8ZM60.4998 6.2C60.3998 6.4 60.2998 6.5 60.1998 6.5C60.1998 6.5 60.1998 6.6 60.0998 6.6H59.9998C59.9998 6.7 59.8998 6.7 59.8998 6.7L59.7998 6.8C59.6998 6.8 59.5998 6.9 59.4998 6.9C59.4998 6.9 59.4998 6.9 59.3998 6.9C59.3998 6.9 59.2998 6.9 59.2998 7V7.1C59.2998 7.1 59.2998 7.2 59.1998 7.2C59.1998 7.2 59.1998 7.2 59.1998 7.3C59.0998 7.4 59.0998 7.5 58.9998 7.6L58.8998 7.7H58.7998C58.6998 7.7 58.6998 7.8 58.5998 7.8H58.4998C58.3998 7.8 58.2998 7.8 58.1998 7.8C58.0998 7.8 57.9998 7.7 57.8998 7.6C57.7998 7.5 57.7998 7.3 57.7998 7.1C57.7998 6.9 57.8998 6.7 57.8998 6.5C57.8998 6.4 57.8998 6.3 57.8998 6.3C57.9998 6.2 57.9998 6.1 58.0998 6C58.1998 5.9 58.2998 5.8 58.3998 5.8C58.4998 5.8 58.5998 5.8 58.6998 5.8C58.6998 5.8 58.7998 5.8 58.7998 5.9C58.8998 5.9 58.9998 5.9 59.1998 6C59.1998 6 59.1998 6 59.2998 6C59.3998 6 59.3998 6.1 59.3998 6.2L59.4998 6.4C59.6998 6.3 59.8998 6.3 59.9998 6.2C60.0998 6.3 60.1998 6.3 60.4998 6.2Z" fill="#00587C"/>
<path d="M60.4 7.6L60.3 7.7C60.2 7.7 60.2 7.8 60.1 7.8L60 7.9C59.9 8 59.8 8.2 59.8 8.3C59.8 8.4 59.7 8.5 59.7 8.7V8.8C59.7 8.9 59.8 9 59.8 9.1H59.9C60 9.1 60.1 8.9 60.1 8.9C60.1 8.8 60.2 8.8 60.2 8.7C60.2 8.6 60.3 8.5 60.3 8.4C60.3 8.3 60.4 8.2 60.3 8C60.3 7.8 60.3 7.7 60.4 7.6ZM62.1 6.6C62 6.7 62 6.7 61.9 6.7C61.9 6.7 61.9 6.7 61.8 6.7C61.8 6.7 61.7 6.8 61.6 6.8C61.5 6.8 61.5 6.9 61.4 6.9C61.2 7 61.1 7.1 61 7.1C60.9 7.2 60.8 7.3 60.7 7.3C60.7 7.3 60.7 7.3 60.7 7.4V7.5C60.7 7.6 60.7 7.7 60.7 7.8V7.9C60.7 8 60.7 8 60.7 8V8.1C60.7 8.1 60.7 8.1 60.7 8.2C60.7 8.4 60.6 8.5 60.6 8.7V8.8C60.6 8.9 60.6 8.9 60.6 9C60.6 9 60.6 9 60.6 9.1C60.5 9.2 60.5 9.3 60.4 9.4C60.4 9.4 60.4 9.4 60.3 9.4H60.2C60.1 9.4 60 9.4 60 9.4C59.9 9.4 59.9 9.3 59.8 9.3L59.7 9.2C59.6 9.2 59.6 9.1 59.6 9C59.6 8.9 59.6 8.8 59.5 8.8C59.5 8.7 59.5 8.6 59.5 8.4C59.5 8.3 59.6 8.3 59.6 8.2C59.6 8.1 59.7 7.9 59.8 7.8C59.9 7.7 60 7.6 60.1 7.5L60.3 7.3C60.3 7.3 60.4 7.3 60.4 7.2C60.5 7.2 60.5 7.1 60.5 7.1C60.5 6.9 60.5 6.8 60.5 6.7C60.5 6.6 60.5 6.6 60.5 6.5V6.4C60.5 6.3 60.5 6.3 60.6 6.2C60.6 6.1 60.7 5.9 60.7 5.8C60.7 5.7 60.8 5.7 60.8 5.6L61 5.5C61.3 5.4 61.5 5.7 61.5 5.7C61.5 5.8 61.4 5.8 61.4 5.8C61.3 5.8 61.2 5.7 61.2 5.8C61.2 5.8 61.1 5.8 61 5.9C61 5.9 60.9 6 60.9 6.1C60.8 6.4 60.8 6.7 60.8 6.8V6.9C60.8 6.9 60.8 6.9 60.8 7C60.9 7 61 6.9 61.1 6.9C61.4 6.7 61.7 6.6 62 6.4C62.1 6.3 62.2 6.3 62.4 6.2C62.4 6.2 62.4 6.2 62.4 6.3C62.3 6.3 62.2 6.5 62.1 6.6Z" fill="#00587C"/>
<path d="M63.1998 6.1H63.0998C63.0998 6.1 62.9998 6 62.7998 6H62.6998C62.5998 6 62.5998 6 62.5998 6.1C62.5998 6.1 62.5998 6.1 62.4998 6.2L62.3998 6.3C62.3998 6.4 62.3998 6.4 62.3998 6.5C62.3998 6.6 62.3998 6.7 62.4998 6.7V6.8V6.9V7V7.1H62.5998L62.6998 7.2C62.6998 7.3 62.6998 7.3 62.7998 7.4V7.5V7.6C62.7998 7.6 62.7998 7.6 62.7998 7.7C62.7998 7.8 62.7998 7.9 62.7998 8.1C62.7998 8.1 62.7998 8.1 62.7998 8.2C62.7998 8.2 62.7998 8.3 62.7998 8.4C62.7998 8.4 62.7998 8.5 62.6998 8.6C62.5998 8.7 62.5998 8.8 62.4998 8.8H62.3998H62.1998C62.0998 8.8 62.1998 8.8 62.0998 8.8C61.9998 8.8 61.8998 8.8 61.8998 8.8C61.8998 8.8 61.7998 8.8 61.7998 8.7C61.6998 8.7 61.5998 8.6 61.5998 8.5C61.4998 8.4 61.4998 8.4 61.3998 8.3C61.2998 8.2 61.2998 8.1 61.2998 8V7.8C61.3998 7.7 61.3998 7.6 61.4998 7.5C61.5998 7.4 61.5998 7.4 61.6998 7.4V7.5L61.5998 7.6V7.7C61.5998 7.9 61.5998 8 61.6998 8C61.6998 8 61.7998 8 61.6998 8.1C61.6998 8.2 61.7998 8.2 61.8998 8.3C61.9998 8.3 61.9998 8.3 62.0998 8.3C62.2998 8.3 62.2998 8.2 62.3998 8.1C62.3998 8 62.4998 8 62.4998 7.9C62.4998 7.8 62.4998 7.7 62.4998 7.6C62.4998 7.5 62.4998 7.4 62.3998 7.3L62.1998 7L62.0998 6.9V6.8C61.9998 6.7 61.9998 6.6 61.9998 6.5V6.4V6.3V6.1C61.9998 6 61.9998 5.9 61.9998 5.9C61.9998 5.8 62.0998 5.8 62.0998 5.7C62.0998 5.7 62.0998 5.7 62.1998 5.6L62.2998 5.5C62.3998 5.5 62.3998 5.4 62.4998 5.4C62.6998 5.4 62.6998 5.4 62.7998 5.4C63.1998 5.9 63.1998 6 63.1998 6.1Z" fill="#00587C"/>
<path d="M64.0998 5.5C63.9998 5.4 63.9998 5.4 63.9998 5.3C63.9998 5.2 64.1998 5.1 64.2998 5C64.3998 5 64.4998 5 64.4998 5.1C64.4998 5.2 64.5998 5.3 64.4998 5.4C64.4998 5.5 64.3998 5.6 64.2998 5.6C64.2998 5.6 64.1998 5.6 64.0998 5.5C64.1998 5.6 64.0998 5.6 64.0998 5.5ZM65.4998 6.7C65.4998 6.7 65.2998 7.1 65.1998 7.1C65.1998 7.1 65.0998 7.2 64.9998 7.4L64.8998 7.6C64.8998 7.6 64.8998 7.6 64.8998 7.7C64.7998 7.7 64.7998 7.8 64.6998 7.9L64.5998 8C64.5998 8 64.4998 8 64.3998 8.1C64.2998 8.1 64.2998 8.2 64.1998 8.2C64.0998 8.2 64.0998 8.2 63.9998 8.2C63.8998 8.2 63.8998 8.1 63.7998 8C63.7998 8 63.7998 8 63.7998 7.9V7.8V7.7C63.7998 7.5 63.7998 7.3 63.8998 7.2C63.8998 7.1 63.9998 6.9 63.9998 6.8C63.9998 6.6 64.0998 6.5 64.0998 6.3V6.2V6.1H64.1998L64.2998 6.2L64.3998 6.3V6.4C64.3998 6.5 64.3998 6.5 64.3998 6.6C64.3998 6.7 64.2998 6.8 64.2998 7V7.1C64.2998 7.2 64.2998 7.3 64.2998 7.4C64.2998 7.5 64.2998 7.6 64.2998 7.7C64.3998 7.7 64.4998 7.6 64.5998 7.6C64.7998 7.5 64.8998 7.3 65.0998 7.2C65.2998 7.1 65.3998 6.9 65.4998 6.7C65.5998 6.7 65.6998 6.6 65.8998 6.5C65.5998 6.5 65.5998 6.6 65.4998 6.7Z" fill="#00587C"/>
<path d="M66.4998 4.7C66.7998 4.5 66.9998 4.3 67.1998 4.1C67.2998 4 67.4998 3.8 67.5998 3.7C67.7998 3.5 67.9998 3.2 68.1998 3C68.3998 2.6 68.6998 2.3 68.7998 1.9C68.8998 1.7 68.8998 1.50001 68.8998 1.30001V1.2C68.8998 1.2 68.7998 1.1 68.6998 1.1C68.5998 1.1 68.5998 1.1 68.4998 1.2C68.2998 1.3 68.2998 1.4 68.0998 1.5L67.9998 1.7C67.8998 1.8 67.8998 1.9 67.7998 2C67.7998 2.1 67.6998 2.20001 67.5998 2.30001C67.5998 2.40001 67.4998 2.5 67.4998 2.6C67.3998 2.7 67.3998 2.9 67.2998 3C67.1998 3.2 67.0998 3.4 66.9998 3.7C66.9998 3.7 66.9998 3.80001 66.8998 3.80001C66.7998 4.00001 66.7998 4.20001 66.6998 4.30001C66.5998 4.50001 66.4998 4.6 66.4998 4.7ZM66.5998 7.4C66.6998 7.3 66.7998 7.1 66.9998 7C67.0998 6.9 67.1998 6.7 67.1998 6.5C67.1998 6.4 67.1998 6.30001 67.0998 6.30001C67.0998 6.30001 66.9998 6.30001 66.8998 6.30001C66.6998 6.30001 66.5998 6.4 66.4998 6.5C66.4998 6.5 66.2998 6.6 66.2998 6.7C66.2998 6.7 66.1998 6.8 66.1998 6.9V7.2C66.1998 7.3 66.1998 7.5 66.1998 7.7C66.1998 7.7 66.2998 7.8 66.2998 7.7C66.2998 7.6 66.4998 7.5 66.5998 7.4ZM65.7998 7.80001C65.7998 7.70001 65.7998 7.6 65.6998 7.5C65.6998 7.4 65.6998 7.3 65.6998 7.2C65.6998 7.1 65.6998 7.1 65.6998 7.1C65.6998 7 65.6998 6.9 65.6998 6.7C65.6998 6.5 65.6998 6.50001 65.7998 6.30001V6.2V6.1C65.7998 6 65.7998 5.7 65.7998 5.7C65.7998 5.7 65.6998 5.80001 65.5998 5.80001C65.4998 5.80001 65.3998 5.9 65.3998 5.9C65.2998 5.9 65.2998 5.7 65.2998 5.6C65.2998 5.5 65.3998 5.5 65.3998 5.5C65.4998 5.4 65.5998 5.40001 65.5998 5.30001C65.6998 5.30001 65.6998 5.2 65.6998 5.2V5.1C65.6998 5.1 65.6998 5.1 65.7998 4.9C65.7998 4.8 65.8998 4.5 65.8998 4.4C65.9998 4.3 65.9998 4.1 66.0998 4C66.1998 3.8 66.2998 3.7 66.2998 3.5C66.3998 3.3 66.4998 3.1 66.5998 2.9C66.6998 2.7 66.7998 2.6 66.8998 2.4C66.8998 2.3 66.9998 2.2 67.0998 2.1C67.1998 2 67.2998 1.8 67.3998 1.7C67.5998 1.5 67.7998 1.3 67.9998 1.1C68.1998 1 68.3998 0.800004 68.5998 0.900004C68.6998 0.900004 68.8998 1 68.9998 1C69.0998 1 69.0998 1 69.0998 1.1C69.1998 1.2 69.1998 1.3 69.1998 1.4C69.1998 1.5 69.1998 1.7 69.0998 1.9C69.0998 2.1 68.9998 2.2 68.8998 2.4C68.8998 2.5 68.7998 2.70001 68.6998 2.80001C68.5998 3.00001 68.4998 3.10001 68.3998 3.30001C68.2998 3.40001 68.1998 3.5 68.1998 3.6C68.0998 3.7 67.9998 3.8 67.8998 4C67.7998 4.1 67.6998 4.20001 67.6998 4.30001C67.5998 4.40001 67.3998 4.6 67.2998 4.7C67.1998 4.8 66.9998 4.9 66.8998 5C66.7998 5.1 66.6998 5.2 66.5998 5.2C66.4998 5.3 66.3998 5.30001 66.2998 5.30001L66.1998 5.6C66.1998 5.8 66.0998 6.10001 66.0998 6.30001C66.1998 6.20001 66.1998 6.2 66.2998 6.1H66.3998C66.4998 6.1 66.5998 6.1 66.7998 6.1C66.9998 6.1 67.0998 6.2 67.2998 6.2C67.4998 6.3 67.4998 6.4 67.4998 6.6C67.4998 6.9 67.2998 7.2 67.0998 7.4C66.9998 7.5 66.8998 7.6 66.7998 7.7C66.5998 7.8 66.4998 8 66.2998 8.1C66.1998 8.1 66.1998 8.2 66.0998 8.2C65.9998 8.1 65.8998 8.00001 65.7998 7.80001Z" fill="#00587C"/>
<path d="M70.7004 2H70.6004C70.6004 2 70.6004 2 70.6004 2.1C70.5004 2.2 70.4004 2.3 70.4004 2.4C70.3004 2.5 70.2004 2.6 70.2004 2.7C70.2004 2.8 70.1004 2.9 70.0004 3C70.0004 3.1 69.9004 3.2 69.8004 3.3C69.8004 3.4 69.7004 3.5 69.7004 3.6C69.7004 3.6 69.7004 3.7 69.6004 3.7C69.6004 3.8 69.5004 3.9 69.5004 3.9C69.5004 4 69.4004 4 69.4004 4.1C69.4004 4.2 69.4004 4.2 69.4004 4.2C69.4004 4.3 69.3004 4.4 69.3004 4.5C69.3004 4.6 69.2004 4.8 69.1004 4.9C69.1004 4.9 69.1004 5 69.0004 5L68.9004 5.3C69.0004 5.2 69.1004 5 69.2004 4.9C69.3004 4.8 69.5004 4.6 69.6004 4.4C69.7004 4.3 69.7004 4.2 69.8004 4.1C69.9004 4 69.9004 3.9 70.0004 3.7C70.1004 3.5 70.2004 3.3 70.3004 3.1C70.4004 3 70.4004 2.8 70.5004 2.6C70.6004 2.4 70.6004 2.3 70.6004 2.1C70.6004 2.3 70.6004 2.2 70.7004 2ZM71.0004 2.3C71.0004 2.4 70.9004 2.4 71.0004 2.3L70.9004 2.9C70.9004 3 70.9004 3 70.9004 3L70.8004 3.1V3.3C70.8004 3.3 70.8004 3.4 70.7004 3.4V3.5C70.7004 3.6 70.7004 3.6 70.7004 3.7C70.7004 3.7 70.1004 4.8 70.0004 4.9L69.5004 5.6C69.5004 5.6 69.5004 5.7 69.4004 5.7L69.2004 5.9C69.1004 6 68.9004 6.2 68.8004 6.3C68.8004 6.4 68.7004 6.6 68.7004 6.7C68.7004 6.9 68.6004 7.1 68.7004 7.3C68.7004 7.6 68.7004 7.8 68.8004 8C68.8004 8.1 68.9004 8.2 69.0004 8.3C69.2004 8.4 69.2004 8.3 69.4004 8.2C69.6004 8.1 69.4004 8.5 69.2004 8.6C69.1004 8.6 69.0004 8.6 68.8004 8.6L68.7004 8.5C68.7004 8.4 68.6004 8.4 68.6004 8.3C68.6004 8.2 68.5004 8.2 68.5004 8.1C68.5004 8 68.5004 7.9 68.4004 7.8C68.4004 7.6 68.4004 7.4 68.4004 7.1C68.4004 7 68.4004 6.9 68.5004 6.5L68.6004 6.2V6.1C68.6004 6 68.6004 5.9 68.7004 5.8C68.7004 5.7 68.7004 5.6 68.8004 5.4C68.8004 5.3 68.9004 5.1 68.9004 5C68.9004 4.9 69.0004 4.8 69.0004 4.8C69.0004 4.7 69.0004 4.7 69.1004 4.6L69.3004 4C69.3004 4 69.4004 3.9 69.4004 3.8L69.5004 3.6L69.6004 3.4L70.0004 2.7C70.1004 2.6 70.2004 2.4 70.2004 2.4C70.3004 2.3 70.4004 2.2 70.5004 2.2C70.6004 2.1 70.7004 2.1 71.0004 2.3C70.9004 2.2 71.0004 2.2 71.0004 2.3L71.1004 2.4H71.2004C71.2004 2.5 71.2004 2.5 71.2004 2.6L71.0004 2.3Z" fill="#00587C"/>
<path d="M70.2004 7.1C70.3004 7.1 70.3004 7 70.4004 7L70.7004 6.8L71.0004 6.6C71.1004 6.6 71.1004 6.5 71.1004 6.4C71.1004 6.4 71.1004 6.3 71.0004 6.3C70.9004 6.3 70.8004 6.3 70.7004 6.4C70.6004 6.5 70.5004 6.5 70.5004 6.6C70.4004 6.7 70.4004 6.8 70.3004 6.9C70.2004 7 70.2004 7 70.2004 7.1ZM72.3004 6.9C72.3004 7 72.3004 7 72.3004 6.9L72.2004 7C72.2004 7 72.1004 7 72.2004 7.1C72.2004 7.1 72.1004 7.1 72.1004 7.2C72.1004 7.2 72.1004 7.3 72.0004 7.3L71.9004 7.4L71.7004 7.5C71.6004 7.5 71.6004 7.6 71.5004 7.6C71.4004 7.6 71.3004 7.7 71.2004 7.8C71.1004 7.8 71.1004 7.8 71.0004 7.8H70.9004H70.8004C70.7004 7.8 70.7004 7.8 70.6004 7.8C70.5004 7.8 70.4004 7.8 70.3004 7.7C70.2004 7.7 70.2004 7.7 70.1004 7.6C70.0004 7.6 70.0004 7.5 69.9004 7.4C69.9004 7.4 69.9004 7.4 69.9004 7.3C69.9004 7.2 69.9004 7.1 69.9004 7C69.9004 6.8 70.0004 6.6 70.1004 6.4C70.1004 6.3 70.2004 6.3 70.2004 6.2C70.3004 6.1 70.4004 6 70.5004 5.9C70.6004 5.8 70.7004 5.8 70.8004 5.7H70.9004C71.0004 5.7 71.1004 5.7 71.2004 5.8C71.3004 5.8 71.4004 5.9 71.4004 6C71.5004 6 71.5004 6.2 71.5004 6.3C71.5004 6.3 71.5004 6.4 71.4004 6.4C71.3004 6.5 71.2004 6.6 71.1004 6.7C71.1004 6.7 71.0004 6.7 71.0004 6.8C71.0004 6.9 70.9004 6.9 70.9004 6.9L70.8004 7C70.7004 7 70.7004 7.1 70.6004 7.1C70.6004 7.1 70.6004 7.1 70.5004 7.2C70.4004 7.2 70.4004 7.2 70.3004 7.3C70.3004 7.4 70.4004 7.4 70.4004 7.5C70.5004 7.5 70.7004 7.5 70.8004 7.5C70.9004 7.5 71.0004 7.5 71.1004 7.4C71.2004 7.4 71.2004 7.3 71.3004 7.3H71.4004L71.7004 7.1C71.8004 7 72.0004 6.9 72.1004 6.9C72.1004 6.9 72.2004 6.9 72.2004 6.8L72.5004 6.6V6.7C72.5004 6.7 72.5004 6.7 72.4004 6.8L72.3004 6.9Z" fill="#00587C"/>
</svg>
