<svg width="30" height="30" viewBox="0 0 30 30" fill="none" xmlns="http://www.w3.org/2000/svg">
<path d="M15 0C6.72702 0 0 6.72702 0 15C0 17.5905 0.668524 20.1393 1.92201 22.3538L0.501393 27.0752C0.292479 27.7855 0.45961 28.4958 1.00279 28.9972C1.50418 29.4986 2.25627 29.7075 2.92479 29.4986L7.64624 28.078C9.86072 29.3315 12.4095 30 15 30C23.273 30 30 23.273 30 15C30 6.72702 23.273 0 15 0Z" fill="white"/>
<path d="M15 0C6.72702 0 0 6.72702 0 15C0 17.5905 0.668524 20.1393 1.92201 22.3538L0.501393 27.0752C0.292479 27.7855 0.45961 28.4958 1.00279 28.9972C1.50418 29.4986 2.25627 29.7075 2.92479 29.4986L7.64624 28.078C9.86072 29.3315 12.4095 30 15 30C23.273 30 30 23.273 30 15C30 6.72702 23.273 0 15 0ZM15 27.8691C12.7855 27.8691 10.571 27.2841 8.64902 26.1978C8.35655 25.9889 8.02228 25.9053 7.68802 25.9053C7.47911 25.9053 7.31198 25.9471 7.14485 25.9889L2.67409 27.3259L4.01114 22.8969C4.17827 22.3955 4.09471 21.8106 3.84401 21.351C2.75766 19.429 2.1727 17.2145 2.1727 15C2.1727 7.93872 7.93872 2.1727 15 2.1727C22.1031 2.1727 27.8691 7.93872 27.8691 15.0418C27.8691 22.1031 22.1031 27.8691 15 27.8691Z" fill="#E5E1E8"/>
<path fill-rule="evenodd" clip-rule="evenodd" d="M13.2451 17.0891L20.1393 10.195C20.6407 9.69359 21.4763 9.69359 21.9777 10.195C22.4791 10.6964 22.4791 11.532 21.9777 12.0334L14.1225 19.8886C13.6212 20.39 12.7855 20.39 12.2841 19.8886L8.35653 15.961C7.85514 15.4596 7.85514 14.624 8.35653 14.1226C8.85793 13.6212 9.69359 13.6212 10.195 14.1226L13.2451 17.0891Z" fill="#E5E1E8"/>
</svg>
