<svg width="40" height="40" viewBox="0 0 40 40" fill="none" xmlns="http://www.w3.org/2000/svg">
<path d="M20 0C8.96936 0 0 8.96936 0 20C0 23.454 0.891365 26.8524 2.56267 29.805L0.668524 36.1003C0.389972 37.0474 0.612813 37.9944 1.33705 38.663C2.00557 39.3315 3.00836 39.61 3.89972 39.3315L10.195 37.4373C13.1476 39.1086 16.546 40 20 40C31.0306 40 40 31.0306 40 20C40 8.96936 31.0306 0 20 0Z" fill="white"/>
<path d="M20 0C8.96936 0 0 8.96936 0 20C0 23.454 0.891365 26.8524 2.56267 29.805L0.668524 36.1003C0.389972 37.0474 0.612813 37.9944 1.33705 38.663C2.00557 39.3315 3.00836 39.61 3.89972 39.3315L10.195 37.4373C13.1476 39.1086 16.546 40 20 40C31.0306 40 40 31.0306 40 20C40 8.96936 31.0306 0 20 0ZM20 37.1588C17.0474 37.1588 14.0947 36.3788 11.532 34.9304C11.1421 34.6518 10.6964 34.5404 10.2507 34.5404C9.97214 34.5404 9.7493 34.5961 9.52646 34.6518L3.56546 36.4345L5.34819 30.5292C5.57103 29.8607 5.45961 29.0808 5.12535 28.468C3.67688 25.9053 2.89694 22.9526 2.89694 20C2.89694 10.585 10.585 2.89694 20 2.89694C29.4708 2.89694 37.1588 10.585 37.1588 20.0557C37.1588 29.4708 29.4708 37.1588 20 37.1588Z" fill="#765D84"/>
<path fill-rule="evenodd" clip-rule="evenodd" d="M17.6601 22.7855L26.8523 13.5933C27.5209 12.9248 28.635 12.9248 29.3036 13.5933C29.9721 14.2618 29.9721 15.376 29.3036 16.0446L18.83 26.5181C18.1615 27.1866 17.0473 27.1866 16.3788 26.5181L11.142 21.2813C10.4735 20.6128 10.4735 19.4986 11.142 18.8301C11.8105 18.1616 12.9248 18.1616 13.5933 18.8301L17.6601 22.7855Z" fill="#765D84"/>
</svg>